<?xml version="1.0" encoding="UTF-8"?>
<svg width="94px" height="91px" viewBox="0 0 94 91" version="1.1" xmlns="http://www.w3.org/2000/svg" xmlns:xlink="http://www.w3.org/1999/xlink">
    <title>Shape</title>
    <g id="Page-1" stroke="none" stroke-width="1" fill="none" fill-rule="evenodd">
        <g id="Home-Page" transform="translate(-1108.000000, -1334.000000)" fill="#1E334C" fill-rule="nonzero">
            <g id="Group-41" transform="translate(275.000000, 980.000000)">
                <g id="Group-39" transform="translate(0.000000, 273.000000)">
                    <g id="Group-4" transform="translate(422.000000, 0.000000)">
                        <g id="Group-32" transform="translate(411.000000, 40.499999)">
                            <path d="M62.4982372,60.4216327 C60.4637584,60.8683303 58.4454135,61.3856114 56.4483693,61.9775048 C59.0839327,61.0689466 61.7751545,60.3517743 64.5021005,59.8392891 C63.8319544,60.0228113 63.1642781,60.2170382 62.4982372,60.4216327 Z M47.6433434,63.3132476 C58.0029804,57.9278955 69.7855345,55.3393287 81.3366057,56.9010551 C80.788399,56.9581508 80.2403525,57.0172525 79.6924661,57.0783603 C68.6163761,55.8521995 57.5684415,58.3162962 47.6433434,63.3132476 Z M33.4872034,75.7047664 C34.276494,74.9957091 35.0794397,74.3009048 35.900533,73.6260516 C37.6208335,72.5466928 39.3830097,71.5366697 41.174064,70.5849068 C38.5443926,72.2044429 35.9784027,73.9186263 33.4872034,75.7047664 Z M89.3649555,60.8319613 L89.7381913,61.157481 L89.7381913,61.157481 C89.2688545,61.2668264 88.8041537,61.3887225 88.3378008,61.5050976 C88.6838384,61.2876951 89.0242284,61.0602455 89.3649555,60.8319613 Z M7.54314457,106.26406 C5.24207441,112.069924 4.07163656,118.25591 4.49013382,124.665504 L4.42279098,125.000359 L4.42279098,125.000359 C3.53001379,118.390408 4.87818262,112.134511 7.54314457,106.26406 Z M93.1110046,60.8603211 L92.7702625,60.56249 L92.7702625,60.56249 C93.6649896,60.4862059 94.3032608,59.1803167 93.4284405,58.3832651 L92.8394982,57.8492592 L92.8394982,57.8492592 C92.9496797,57.0648136 92.1817886,56.2769903 91.3307417,56.4806092 C88.0690069,53.5165074 84.8009,50.5585673 81.5287641,47.6057941 L78.2626183,44.4195655 L78.2626183,44.4195655 C78.0910544,44.253181 77.8979725,44.1712882 77.7018317,44.1522244 L74.3275617,41.1086816 L74.3275617,41.1086816 C73.6008306,40.4520284 72.7828118,40.963108 72.5494834,41.6919749 L71.863779,41.3013626 L71.863779,41.3013626 C71.4288702,41.0732312 71.0494103,41.1451175 70.7703742,41.3672647 L70.6927095,41.3048243 L70.6927095,41.3048243 C69.440171,40.3182787 68.020666,42.2267933 69.2010283,43.2550376 L76.5087957,49.625336 L76.5087957,49.625336 L76.5728115,49.7670876 C76.7096799,50.0464483 76.8549954,50.1776199 77.4057378,50.7904775 C77.6053454,51.014785 77.8598988,51.057449 78.0780549,50.9931929 L82.5423946,54.8848385 L82.5423946,54.8848385 C65.4229249,52.2818313 47.755345,58.3391064 34.465638,69.4149979 C31.0148636,72.2908213 27.8908054,75.4607504 25.0644252,78.864519 C10.530306,91.0936174 -1.35340844,109.174154 0.124472312,128.467548 C0.175643869,129.133726 1.32146885,129.132683 1.31180101,128.450271 C1.26642229,125.196656 1.56665446,121.993375 2.16012897,118.857125 C1.90139191,122.721704 2.29265968,126.716889 3.51810381,130.843319 C3.80637567,131.813988 5.03083965,131.594282 5.45393668,130.890641 C5.99287517,131.819895 7.62585296,131.487625 7.45405661,130.231072 C7.1099666,127.716793 7.02427295,125.197227 7.16383341,122.687132 C9.3800616,113.006974 12.6336444,103.423668 17.2602546,94.6368015 C18.3930945,92.8852281 19.5902982,91.1761608 20.8383034,89.5167392 C24.2577877,85.7837811 28.0781718,82.3991677 32.0547063,79.4329127 C40.1064686,73.4267074 49.0087562,67.9941881 58.3237007,64.1950924 C59.7685506,63.6052961 61.2281858,63.0894211 62.6978435,62.6232174 C67.4964047,61.5577035 72.3883971,60.9240349 77.3076369,60.7226506 C73.7508197,62.3209234 70.3281601,64.1733597 66.9941576,66.1955699 C66.2796954,66.6281246 66.4104135,67.537079 66.9115096,68.053065 C66.16407,68.8867768 67.3112689,70.2733931 68.4245709,69.9155895 C69.5981055,69.5384408 70.7704853,69.1569429 71.9400582,68.7655747 C72.1548084,69.3464161 72.758323,69.7746813 73.5149734,69.4659467 C74.7358854,68.9691323 75.9258965,68.4190645 77.1052868,67.8472334 C82.0787939,65.7312654 87.2153389,64.1199169 92.5454096,63.0410367 C93.6055691,62.826778 93.9156277,61.5620343 93.1110046,60.8603211 Z" id="Shape"></path>
                        </g>
                    </g>
                </g>
            </g>
        </g>
    </g>
</svg>