<?xml version="1.0" encoding="UTF-8"?>
<svg width="105px" height="35px" viewBox="0 0 105 35" version="1.1" xmlns="http://www.w3.org/2000/svg" xmlns:xlink="http://www.w3.org/1999/xlink">
    <title>Shape</title>
    <g id="Page-1" stroke="none" stroke-width="1" fill="none" fill-rule="evenodd">
        <g id="Home-Page" transform="translate(-1141.000000, -1451.000000)" fill="#1E334C" fill-rule="nonzero">
            <g id="Group-41" transform="translate(275.000000, 980.000000)">
                <g id="Group-39" transform="translate(0.000000, 273.000000)">
                    <g id="Group-4" transform="translate(422.000000, 0.000000)">
                        <g id="Group-32" transform="translate(411.000000, 40.499999)">
                            <path d="M73.551359,182.956525 C81.9140708,181.221953 90.2706845,179.454632 98.6200294,177.652925 L102.366795,176.89821 L102.366795,176.89821 C92.7843914,179.020963 83.1775153,181.040979 73.551359,182.956525 Z M37.7245848,189.811868 C37.3237705,189.864416 36.9644373,189.873945 36.7057038,189.793733 L36.0110877,189.912861 L36.0110877,189.912861 L36.9388638,188.348971 L36.9388638,188.348971 C37.4835619,187.921904 38.8646749,187.827994 39.5530437,187.657915 C39.9275439,187.565796 40.3048074,187.479618 40.6806188,187.390025 C39.6366794,187.708454 38.5918952,188.021549 37.5507192,188.345918 C36.8100698,188.577128 37.0670468,189.681829 37.7245848,189.811868 Z M67.4364447,181.692547 C71.094942,180.984616 74.7572848,180.295212 78.4264297,179.643001 C82.403185,178.936603 86.3862317,178.27568 90.3736871,177.636839 C79.1188867,179.901459 67.8645087,182.168746 56.6122426,184.449366 C60.2098877,183.489553 63.818313,182.569038 67.4364447,181.692547 Z M54.630086,182.69302 C51.642658,183.330202 48.6595811,183.985146 45.6800459,184.657597 L42.7016612,185.335875 C42.582176,185.363912 42.4375196,185.394113 42.2767218,185.425959 C46.382158,184.450417 50.5008202,183.541121 54.630086,182.69302 Z M111.482624,186.828235 C116.109788,183.963113 120.632162,180.9369 125.080231,177.803997 C128.975546,175.76645 132.859341,173.707947 136.725807,171.614829 C137.837736,171.012267 137.103981,169.417213 135.918085,169.834668 C135.580654,169.953719 135.250202,170.088068 134.915253,170.211282 C134.866495,170.202603 134.814982,170.205294 134.76001,170.214912 C134.64521,170.157464 134.51021,170.127817 134.355063,170.137811 L133.782889,169.954157 L133.782889,169.954157 C133.824671,169.855507 133.845955,169.748256 133.85924,169.642274 L134.023789,169.530557 L134.023789,169.530557 L134.135959,169.565642 L134.135959,169.565642 C135.252223,169.910971 135.924435,168.240852 134.80165,167.860107 L134.62841,167.801891 L134.62841,167.801891 C134.396419,167.579848 134.067102,167.445207 133.72412,167.500442 C132.196407,166.985185 130.668835,166.470817 129.138509,165.96782 C126.322451,164.831964 123.462384,163.832472 120.559671,162.983707 C115.226915,161.11199 109.818664,159.482768 104.237938,158.415749 C103.220329,158.221547 102.804328,159.881157 103.800748,160.188972 L105.144018,160.604049 L105.134663,160.608264 C104.863465,160.587432 104.593667,160.558178 104.320647,160.543102 C103.306661,160.486832 102.772013,162.070466 103.86772,162.378047 L106.450806,163.101571 L106.450806,163.101571 C106.543935,163.240816 106.691421,163.355051 106.902611,163.422747 L109.163409,164.130797 L109.163409,164.130797 C109.100638,164.171721 109.030985,164.203711 108.972007,164.251323 C108.755784,164.422252 108.700952,164.726172 108.804006,164.974103 L108.931419,165.283784 L108.931419,165.283784 C109.230557,166.004562 110.272258,165.505156 110.022952,164.788331 C110.311569,165.621033 114.912833,166.13061 115.813957,166.366042 C116.905255,166.65154 117.995478,166.941765 119.084021,167.238634 C121.532844,168.006204 123.986059,168.761232 126.437453,169.522016 C124.358977,169.763738 122.282939,170.015096 120.207235,170.28007 C90.9928805,172.818656 62.1445745,178.237946 33.8430904,186.010871 C32.9444424,186.257082 33.15339,187.702895 34.0728613,187.461588 C35.1219216,187.186998 36.1746867,186.930045 37.2261846,186.665093 C34.6366238,187.56912 32.5147917,189.021428 34.1367947,191.42073 C34.2856416,191.641361 34.6130234,191.740771 34.8650542,191.69812 C65.0236824,186.577933 94.9724988,180.357421 124.726168,173.273001 C119.196062,176.89803 113.673825,180.538215 108.157159,184.184807 C107.392544,184.690445 107.864137,185.786667 108.601104,185.975202 C108.839679,186.463188 109.381467,186.800183 109.94563,186.473 L110.166833,186.345021 L110.166833,186.345021 C110.390208,186.846349 110.899995,187.188412 111.482624,186.828235 Z" id="Shape"></path>
                        </g>
                    </g>
                </g>
            </g>
        </g>
    </g>
</svg>