<?xml version="1.0" encoding="UTF-8"?>
<svg width="102px" height="32px" viewBox="0 0 102 32" version="1.1" xmlns="http://www.w3.org/2000/svg" xmlns:xlink="http://www.w3.org/1999/xlink">
    <title>Shape</title>
    <g id="Page-1" stroke="none" stroke-width="1" fill="none" fill-rule="evenodd">
        <g id="Home-Page" transform="translate(-1150.000000, -1516.000000)" fill="#1E334C" fill-rule="nonzero">
            <g id="Group-41" transform="translate(275.000000, 980.000000)">
                <g id="Group-39" transform="translate(0.000000, 273.000000)">
                    <g id="Group-4" transform="translate(422.000000, 0.000000)">
                        <g id="Group-32" transform="translate(411.000000, 40.499999)">
                            <path d="M122.435199,234.331203 C120.887141,233.516658 119.304799,232.755102 117.688862,232.051845 C119.901499,232.899974 122.028598,233.898194 124.049386,235.044125 C123.516612,234.798656 122.978652,234.561236 122.435199,234.331203 Z M111.053416,227.607892 C120.872949,230.345147 129.937568,235.716662 136.385582,243.600432 L135.230097,242.733454 L135.230097,242.733454 C128.885818,235.34714 120.364397,230.334106 111.053416,227.607892 Z M95.3998571,226.235121 C96.283607,226.267385 97.1678642,226.316569 98.0522335,226.388862 C99.7186332,226.746735 101.372305,227.172307 103.011378,227.651011 C100.481036,227.085216 97.9373545,226.615716 95.3998571,226.235121 Z M139.179821,250.233579 L139.201224,250.621427 L139.201224,250.621427 C138.848765,250.450688 138.491232,250.289965 138.136165,250.125032 C138.481881,250.167326 138.830487,250.200622 139.179821,250.233579 Z M60.8693197,230.925848 C55.9390654,233.264343 51.5000225,236.509248 47.9368515,240.830501 L47.6940281,241.003809 L47.6940281,241.003809 C51.0755803,236.276327 55.6693007,233.091465 60.8693197,230.925848 Z M141.534398,252.41259 L141.494344,252.022402 L141.494344,252.022402 C142.106343,252.503106 143.281886,252.053069 143.198184,251.030772 L143.14031,250.344182 L143.14031,250.344182 C143.673323,249.91229 143.651929,248.959067 142.992421,248.584872 C142.675808,244.778139 142.351519,240.971544 142.021626,237.165839 L141.833379,233.215755 L141.833379,233.215755 C141.822911,233.008887 141.748918,232.842831 141.635887,232.714777 L141.294873,228.791169 L141.294873,228.791169 C141.222108,227.945394 140.40198,227.785542 139.823751,228.109403 L139.619892,227.456456 L139.619892,227.456456 C139.479013,227.054751 139.196116,226.875931 138.888129,226.851698 L138.875785,226.766212 L138.875785,226.766212 C138.664629,225.400509 136.638212,225.770449 136.779011,227.119897 L137.648171,235.477226 L137.648171,235.477226 L137.602489,235.613366 C137.527126,235.866612 137.541294,236.039713 137.528543,236.745832 C137.522579,237.005983 137.658688,237.18353 137.834867,237.271808 L138.365835,242.377334 L138.365835,242.377334 C129.054875,230.605517 114.28292,223.99694 99.3216948,223.156834 C95.4369668,222.93862 91.5856047,223.09994 87.7847938,223.585438 C71.3540913,222.740223 53.1477255,227.169745 42.691943,240.26828 C42.3310074,240.720641 43.0576895,241.39749 43.4545105,240.959384 C45.3469328,238.870996 47.4286353,237.018855 49.6565743,235.382576 C47.2106862,237.678264 45.0995622,240.441045 43.439528,243.780223 C43.0490398,244.565709 43.9546677,245.150507 44.638251,244.954837 C44.4310549,245.862298 45.6620093,246.617322 46.2951113,245.719563 C47.561692,243.92301 48.9951313,242.275892 50.5657132,240.767966 C57.6859424,235.944846 65.4063157,231.796467 73.5264484,228.96458 C75.2785466,228.524579 77.0463309,228.149569 78.8169917,227.836054 C83.1880087,227.492669 87.6073721,227.607048 91.8786524,228.078837 C100.527266,229.034077 109.376079,230.855719 117.521882,233.95633 C118.785689,234.436942 120.015217,234.973135 121.221766,235.546726 C124.891594,237.708916 128.365632,240.199977 131.601684,242.981052 C128.404122,241.890655 125.141493,241.040626 121.834796,240.350591 C121.126655,240.202215 120.672772,240.855438 120.685621,241.478669 C119.719711,241.564975 119.627886,243.121885 120.544618,243.553453 C121.51094,244.008379 122.479098,244.459865 123.451306,244.903438 C123.244413,245.39845 123.373958,246.026657 124.035719,246.278433 C125.102722,246.68555 126.181589,247.040652 127.266576,247.375685 C131.667528,248.975729 135.873825,250.991912 139.888344,253.459907 C140.686642,253.951006 141.629914,253.332972 141.534398,252.41259 Z" id="Shape"></path>
                        </g>
                    </g>
                </g>
            </g>
        </g>
    </g>
</svg>