<?xml version="1.0" encoding="UTF-8"?>
<svg width="193px" height="164px" viewBox="0 0 193 164" version="1.1" xmlns="http://www.w3.org/2000/svg" xmlns:xlink="http://www.w3.org/1999/xlink">
    <title>Group 32</title>
    <defs>
        <rect id="path-1" x="0" y="0" width="113.600002" height="32.3999996" rx="5.39999994"></rect>
        <filter x="-21.6%" y="-54.0%" width="143.1%" height="251.2%" filterUnits="objectBoundingBox" id="filter-2">
            <feOffset dx="0" dy="7" in="SourceAlpha" result="shadowOffsetOuter1"></feOffset>
            <feGaussianBlur stdDeviation="7" in="shadowOffsetOuter1" result="shadowBlurOuter1"></feGaussianBlur>
            <feColorMatrix values="0 0 0 0 0   0 0 0 0 0   0 0 0 0 0  0 0 0 0.101398601 0" type="matrix" in="shadowBlurOuter1"></feColorMatrix>
        </filter>
        <rect id="path-3" x="0" y="0" width="82.4000012" height="32.4000005" rx="5.39999994"></rect>
        <filter x="-29.7%" y="-54.0%" width="159.5%" height="251.2%" filterUnits="objectBoundingBox" id="filter-4">
            <feOffset dx="0" dy="7" in="SourceAlpha" result="shadowOffsetOuter1"></feOffset>
            <feGaussianBlur stdDeviation="7" in="shadowOffsetOuter1" result="shadowBlurOuter1"></feGaussianBlur>
            <feColorMatrix values="0 0 0 0 0   0 0 0 0 0   0 0 0 0 0  0 0 0 0.101398601 0" type="matrix" in="shadowBlurOuter1"></feColorMatrix>
        </filter>
        <rect id="path-5" x="0" y="0" width="116.000002" height="32.3999996" rx="5.39999994"></rect>
        <filter x="-21.1%" y="-54.0%" width="142.2%" height="251.2%" filterUnits="objectBoundingBox" id="filter-6">
            <feOffset dx="0" dy="7" in="SourceAlpha" result="shadowOffsetOuter1"></feOffset>
            <feGaussianBlur stdDeviation="7" in="shadowOffsetOuter1" result="shadowBlurOuter1"></feGaussianBlur>
            <feColorMatrix values="0 0 0 0 0   0 0 0 0 0   0 0 0 0 0  0 0 0 0.101398601 0" type="matrix" in="shadowBlurOuter1"></feColorMatrix>
        </filter>
    </defs>
    <g id="Page-1" stroke="none" stroke-width="1" fill="none" fill-rule="evenodd">
        <g id="Group-4" transform="translate(14.000000, -7.999999)">
            <g id="Group-32" transform="translate(0.000000, 15.600000)">
                <g id="Group-3-Copy-2" transform="translate(35.600001, 101.600002)">
                    <g id="Rectangle">
                        <use fill="black" fill-opacity="1" filter="url(#filter-2)" xlink:href="#path-1"></use>
                        <use fill="#EECB6B" fill-rule="evenodd" xlink:href="#path-1"></use>
                    </g>
                    <path d="M11.7680001,18.6 L11.7680001,16.4688001 L13.8992001,16.4688001 L13.8992001,18.6 L14.7056001,18.6 L14.7056001,13.6680001 L13.8992001,13.6680001 L13.8992001,15.7704001 L11.7680001,15.7704001 L11.7680001,13.6680001 L10.9688001,13.6680001 L10.9688001,18.6 L11.7680001,18.6 Z M17.1320001,18.6792 C17.7224001,18.6792 18.1376001,18.5208 18.3776001,18.204 C18.6176001,17.8872 18.7376001,17.4168 18.7376001,16.7928001 C18.7376001,16.1688001 18.6140001,15.7008001 18.3668001,15.3888001 C18.1196001,15.0768001 17.7080001,14.9208001 17.1320001,14.9208001 C16.5560001,14.9208001 16.1432001,15.0768001 15.8936001,15.3888001 C15.6488001,15.7008001 15.5264001,16.1688001 15.5264001,16.7928001 C15.5264001,17.4168 15.6464001,17.8872 15.8864001,18.204 C16.1264001,18.5208 16.5416001,18.6792 17.1320001,18.6792 Z M17.1320001,18.0168 C16.8104001,18.0168 16.5944001,17.9208 16.4840001,17.7288 C16.3736001,17.5368 16.3184001,17.2224001 16.3184001,16.7856001 C16.3184001,16.3488001 16.3772001,16.0392001 16.4948001,15.8568001 C16.6124001,15.6744001 16.8248001,15.5832001 17.1320001,15.5832001 C17.4392001,15.5832001 17.6516001,15.6744001 17.7692001,15.8568001 C17.8868001,16.0392001 17.9456001,16.3488001 17.9456001,16.7856001 C17.9456001,17.2224001 17.8904001,17.5368 17.7800001,17.7288 C17.6696001,17.9208 17.4536001,18.0168 17.1320001,18.0168 Z M21.2432,18.6 L21.8048,16.1304001 L22.3664,18.6 L23.612,18.6 L24.3752,15.0000001 L23.5976,15.0000001 L23.036,17.9304 L22.892,17.9304 L22.208,15.0720001 L21.4016,15.0720001 L20.7176,17.9304 L20.5736,17.9304 L20.0048,15.0000001 L19.2344001,15.0000001 L19.9976,18.6 L21.2432,18.6 Z M27.4568,18.6 L27.4568,13.5024001 L26.672,13.5024001 L26.672,18.6 L27.4568,18.6 Z M29.8831999,18.6792 C30.4735999,18.6792 30.8887999,18.5208 31.1287999,18.204 C31.3687999,17.8872 31.4887999,17.4168 31.4887999,16.7928001 C31.4887999,16.1688001 31.3651999,15.7008001 31.1179999,15.3888001 C30.8707999,15.0768001 30.4591999,14.9208001 29.8831999,14.9208001 C29.3071999,14.9208001 28.8943999,15.0768001 28.6447999,15.3888001 C28.3999999,15.7008001 28.2775999,16.1688001 28.2775999,16.7928001 C28.2775999,17.4168 28.3975999,17.8872 28.6375999,18.204 C28.8775999,18.5208 29.2927999,18.6792 29.8831999,18.6792 Z M29.8831999,18.0168 C29.5615999,18.0168 29.3455999,17.9208 29.2351999,17.7288 C29.1247999,17.5368 29.0695999,17.2224001 29.0695999,16.7856001 C29.0695999,16.3488001 29.1283999,16.0392001 29.2459999,15.8568001 C29.3635999,15.6744001 29.5759999,15.5832001 29.8831999,15.5832001 C30.1903999,15.5832001 30.4027999,15.6744001 30.5203999,15.8568001 C30.6379999,16.0392001 30.6967999,16.3488001 30.6967999,16.7856001 C30.6967999,17.2224001 30.6415999,17.5368 30.5311999,17.7288 C30.4207999,17.9208 30.2047999,18.0168 29.8831999,18.0168 Z M33.0511999,18.6 L33.0511999,15.8064001 L33.1591999,15.7632001 C33.3847999,15.6672001 33.6199999,15.6192001 33.8647999,15.6192001 C34.1239999,15.6192001 34.2955999,15.7008001 34.3795999,15.8640001 C34.4635999,16.0272001 34.5055999,16.3032001 34.5055999,16.6920001 L34.5055999,16.6920001 L34.5055999,18.6 L35.2831999,18.6 L35.2831999,16.6704001 C35.2831999,16.0464001 35.1955999,15.5988001 35.0203999,15.3276001 C34.8451999,15.0564001 34.5175999,14.9208001 34.0375999,14.9208001 C33.7255999,14.9208001 33.3943999,15.0216001 33.0439999,15.2232001 L33.0439999,15.2232001 L33.0439999,15.0000001 L32.2663999,15.0000001 L32.2663999,18.6 L33.0511999,18.6 Z M37.6375998,20.2704 C38.7751998,20.2704 39.3439998,19.8768 39.3439998,19.0896 C39.3439998,18.6768 39.2383998,18.396 39.0271998,18.2472 C38.8159998,18.0984 38.4247998,18.0216 37.8535998,18.0168 C37.5127998,18.012 37.2979998,17.9928 37.2091998,17.9592 C37.1203998,17.9256 37.0759998,17.8644 37.0759998,17.7756 C37.0759998,17.6868 37.1095998,17.5608 37.1767998,17.3976 C37.2631998,17.4168 37.3687998,17.4264 37.4935998,17.4264 C37.9975998,17.4264 38.3683998,17.3364001 38.6059998,17.1564001 C38.8435998,16.9764001 38.9623998,16.6512001 38.9623998,16.1808001 C38.9623998,15.9552001 38.8975998,15.7584001 38.7679998,15.5904001 L38.7679998,15.5904001 L39.3655998,15.6264001 L39.3655998,14.9928001 L38.2495998,15.0216001 L38.1415998,15.0000001 C37.9351998,14.9520001 37.7263998,14.9280001 37.5151998,14.9280001 C37.0735998,14.9280001 36.7231998,15.0288001 36.4639999,15.2304001 C36.2047999,15.4320001 36.0751999,15.7488001 36.0751999,16.1808001 C36.0751999,16.6944001 36.2479999,17.0544001 36.5935999,17.2608001 L36.5935999,17.2608001 L36.5287999,17.3688001 C36.3991999,17.5848 36.3343999,17.7408 36.3343999,17.8368 C36.3343999,18.0816 36.4135999,18.2568 36.5719999,18.3624 C36.3799999,18.5112 36.2407999,18.6492 36.1543999,18.7764 C36.0679999,18.9036 36.0247999,19.056 36.0247999,19.2336 C36.0247999,19.6272 36.1567999,19.8984 36.4207999,20.0472 C36.6847999,20.196 37.0903998,20.2704 37.6375998,20.2704 Z M37.5223998,16.8216001 C37.2871998,16.8216001 37.1167998,16.7700001 37.0111998,16.6668001 C36.9055998,16.5636001 36.8527998,16.4016001 36.8527998,16.1808001 C36.8527998,15.7536001 37.0735998,15.5400001 37.5151998,15.5400001 C37.7503998,15.5400001 37.9207998,15.5916001 38.0263998,15.6948001 C38.1319998,15.7980001 38.1847998,15.9600001 38.1847998,16.1808001 C38.1847998,16.4016001 38.1331998,16.5636001 38.0299998,16.6668001 C37.9267998,16.7700001 37.7575998,16.8216001 37.5223998,16.8216001 Z M37.6879998,19.6296 C37.3615998,19.6296 37.1311998,19.5936 36.9967998,19.5216 C36.8623998,19.4496 36.7951998,19.3296 36.7951998,19.1616 C36.7951998,19.056 36.8167998,18.966 36.8599998,18.8916 C36.9031998,18.8172 36.9775998,18.7368 37.0831998,18.6504 L37.0831998,18.6504 L37.7887998,18.6936 C38.0959998,18.6984 38.3011998,18.726 38.4043998,18.7764 C38.5075998,18.8268 38.5591998,18.9456 38.5591998,19.1328 C38.5591998,19.464 38.2687998,19.6296 37.6879998,19.6296 Z M43.2895998,18.6 L43.8511998,16.1304001 L44.4127998,18.6 L45.6583997,18.6 L46.4215997,15.0000001 L45.6439997,15.0000001 L45.0823998,17.9304 L44.9383998,17.9304 L44.2543998,15.0720001 L43.4479998,15.0720001 L42.7639998,17.9304 L42.6199998,17.9304 L42.0511998,15.0000001 L41.2807998,15.0000001 L42.0439998,18.6 L43.2895998,18.6 Z M47.8759997,14.3880001 L47.8759997,13.5600001 L47.0911997,13.5600001 L47.0911997,14.3880001 L47.8759997,14.3880001 Z M47.8759997,18.6 L47.8759997,15.0000001 L47.0911997,15.0000001 L47.0911997,18.6 L47.8759997,18.6 Z M49.6543997,18.6 L49.6543997,13.5024001 L48.8695997,13.5024001 L48.8695997,18.6 L49.6543997,18.6 Z M51.4759997,18.6 L51.4759997,13.5024001 L50.6911997,13.5024001 L50.6911997,18.6 L51.4759997,18.6 Z M55.2847996,18.6792 C55.4527996,18.6792 55.6975996,18.648 56.0191996,18.5856 L56.0191996,18.5856 L55.9831996,17.9592 L55.3927996,17.9808 C55.2151996,17.9808 55.1047996,17.9328 55.0615996,17.8368 C55.0183996,17.7408 54.9967996,17.5464 54.9967996,17.2536001 L54.9967996,17.2536001 L54.9967996,15.6696001 L55.9903996,15.6696001 L55.9903996,15.0000001 L54.9967996,15.0000001 L54.9967996,13.9560001 L54.2191996,13.9560001 L54.2191996,15.0000001 L53.7583997,15.0000001 L53.7583997,15.6696001 L54.2191996,15.6696001 L54.2191996,17.3400001 C54.2191996,17.8584 54.2947996,18.2112 54.4459996,18.3984 C54.5971996,18.5856 54.8767996,18.6792 55.2847996,18.6792 Z M57.4159996,18.6 L57.4159996,15.7776001 L57.5311996,15.7344001 C57.7615996,15.6576001 57.9919996,15.6192001 58.2223996,15.6192001 C58.4863996,15.6192001 58.6591996,15.7008001 58.7407996,15.8640001 C58.8223996,16.0272001 58.8631996,16.3032001 58.8631996,16.6920001 L58.8631996,16.6920001 L58.8631996,18.6 L59.6479996,18.6 L59.6479996,16.6704001 C59.6479996,16.0464001 59.5603996,15.5988001 59.3851996,15.3276001 C59.2099996,15.0564001 58.8823996,14.9208001 58.4023996,14.9208001 C58.0999996,14.9208001 57.7711996,15.0096001 57.4159996,15.1872001 L57.4159996,15.1872001 L57.4159996,13.5024001 L56.6311996,13.5024001 L56.6311996,18.6 L57.4159996,18.6 Z M61.8871996,18.6792 C62.3095996,18.6792 62.7943995,18.624 63.3415995,18.5136 L63.3415995,18.5136 L63.3271995,17.9304 L63.1255995,17.952 C62.7655995,17.9808 62.4151996,17.9952 62.0743996,17.9952 C61.7335996,17.9952 61.5007996,17.9256 61.3759996,17.7864 C61.2511996,17.6472 61.1863996,17.4288 61.1815996,17.1312001 L61.1815996,17.1312001 L63.4135995,17.1312001 L63.4639995,16.5696001 C63.4639995,15.4704001 62.9599995,14.9208001 61.9519996,14.9208001 C60.9103996,14.9208001 60.3895996,15.5592001 60.3895996,16.8360001 C60.3895996,17.4792 60.5059996,17.9472 60.7387996,18.24 C60.9715996,18.5328 61.3543996,18.6792 61.8871996,18.6792 Z M62.6935995,16.5264001 L61.1743996,16.5264001 C61.1791996,16.1856001 61.2427996,15.9408001 61.3651996,15.7920001 C61.4875996,15.6432001 61.6831996,15.5688001 61.9519996,15.5688001 C62.2207996,15.5688001 62.4115996,15.6396001 62.5243996,15.7812001 C62.6371995,15.9228001 62.6935995,16.1712001 62.6935995,16.5264001 L62.6935995,16.5264001 Z M67.6831995,15.3168001 L68.0071995,13.6248001 L67.4095995,13.6248001 L66.8623995,15.3168001 L67.6831995,15.3168001 Z M66.4519995,15.3168001 L66.7759995,13.6248001 L66.1783995,13.6248001 L65.6311995,15.3168001 L66.4519995,15.3168001 Z M69.5623995,18.6 L69.5623995,15.7776001 L69.6775995,15.7344001 C69.9079995,15.6576001 70.1383995,15.6192001 70.3687995,15.6192001 C70.6327995,15.6192001 70.8055995,15.7008001 70.8871995,15.8640001 C70.9687995,16.0272001 71.0095995,16.3032001 71.0095995,16.6920001 L71.0095995,16.6920001 L71.0095995,18.6 L71.7943994,18.6 L71.7943994,16.6704001 C71.7943994,16.0464001 71.7067994,15.5988001 71.5315994,15.3276001 C71.3563994,15.0564001 71.0287995,14.9208001 70.5487995,14.9208001 C70.2463995,14.9208001 69.9175995,15.0096001 69.5623995,15.1872001 L69.5623995,15.1872001 L69.5623995,13.5024001 L68.7775995,13.5024001 L68.7775995,18.6 L69.5623995,18.6 Z M73.4935994,14.3880001 L73.4935994,13.5600001 L72.7087994,13.5600001 L72.7087994,14.3880001 L73.4935994,14.3880001 Z M73.4935994,18.6 L73.4935994,15.0000001 L72.7087994,15.0000001 L72.7087994,18.6 L73.4935994,18.6 Z M75.8839994,20.2704 C77.0215994,20.2704 77.5903994,19.8768 77.5903994,19.0896 C77.5903994,18.6768 77.4847994,18.396 77.2735994,18.2472 C77.0623994,18.0984 76.6711994,18.0216 76.0999994,18.0168 C75.7591994,18.012 75.5443994,17.9928 75.4555994,17.9592 C75.3667994,17.9256 75.3223994,17.8644 75.3223994,17.7756 C75.3223994,17.6868 75.3559994,17.5608 75.4231994,17.3976 C75.5095994,17.4168 75.6151994,17.4264 75.7399994,17.4264 C76.2439994,17.4264 76.6147994,17.3364001 76.8523994,17.1564001 C77.0899994,16.9764001 77.2087994,16.6512001 77.2087994,16.1808001 C77.2087994,15.9552001 77.1439994,15.7584001 77.0143994,15.5904001 L77.0143994,15.5904001 L77.6119994,15.6264001 L77.6119994,14.9928001 L76.4959994,15.0216001 L76.3879994,15.0000001 C76.1815994,14.9520001 75.9727994,14.9280001 75.7615994,14.9280001 C75.3199994,14.9280001 74.9695994,15.0288001 74.7103994,15.2304001 C74.4511994,15.4320001 74.3215994,15.7488001 74.3215994,16.1808001 C74.3215994,16.6944001 74.4943994,17.0544001 74.8399994,17.2608001 L74.8399994,17.2608001 L74.7751994,17.3688001 C74.6455994,17.5848 74.5807994,17.7408 74.5807994,17.8368 C74.5807994,18.0816 74.6599994,18.2568 74.8183994,18.3624 C74.6263994,18.5112 74.4871994,18.6492 74.4007994,18.7764 C74.3143994,18.9036 74.2711994,19.056 74.2711994,19.2336 C74.2711994,19.6272 74.4031994,19.8984 74.6671994,20.0472 C74.9311994,20.196 75.3367994,20.2704 75.8839994,20.2704 Z M75.7687994,16.8216001 C75.5335994,16.8216001 75.3631994,16.7700001 75.2575994,16.6668001 C75.1519994,16.5636001 75.0991994,16.4016001 75.0991994,16.1808001 C75.0991994,15.7536001 75.3199994,15.5400001 75.7615994,15.5400001 C75.9967994,15.5400001 76.1671994,15.5916001 76.2727994,15.6948001 C76.3783994,15.7980001 76.4311994,15.9600001 76.4311994,16.1808001 C76.4311994,16.4016001 76.3795994,16.5636001 76.2763994,16.6668001 C76.1731994,16.7700001 76.0039994,16.8216001 75.7687994,16.8216001 Z M75.9343994,19.6296 C75.6079994,19.6296 75.3775994,19.5936 75.2431994,19.5216 C75.1087994,19.4496 75.0415994,19.3296 75.0415994,19.1616 C75.0415994,19.056 75.0631994,18.966 75.1063994,18.8916 C75.1495994,18.8172 75.2239994,18.7368 75.3295994,18.6504 L75.3295994,18.6504 L76.0351994,18.6936 C76.3423994,18.6984 76.5475994,18.726 76.6507994,18.7764 C76.7539994,18.8268 76.8055994,18.9456 76.8055994,19.1328 C76.8055994,19.464 76.5151994,19.6296 75.9343994,19.6296 Z M79.0087994,18.6 L79.0087994,15.7776001 L79.1239994,15.7344001 C79.3543994,15.6576001 79.5847994,15.6192001 79.8151994,15.6192001 C80.0791993,15.6192001 80.2519993,15.7008001 80.3335993,15.8640001 C80.4151993,16.0272001 80.4559993,16.3032001 80.4559993,16.6920001 L80.4559993,16.6920001 L80.4559993,18.6 L81.2407993,18.6 L81.2407993,16.6704001 C81.2407993,16.0464001 81.1531993,15.5988001 80.9779993,15.3276001 C80.8027993,15.0564001 80.4751993,14.9208001 79.9951993,14.9208001 C79.6927994,14.9208001 79.3639994,15.0096001 79.0087994,15.1872001 L79.0087994,15.1872001 L79.0087994,13.5024001 L78.2239994,13.5024001 L78.2239994,18.6 L79.0087994,18.6 Z M82.5871993,15.3024001 L83.1343993,13.6104001 L82.3135993,13.6104001 L81.9895993,15.3024001 L82.5871993,15.3024001 Z M83.8327993,15.3024001 L84.3799993,13.6104001 L83.5591993,13.6104001 L83.2351993,15.3024001 L83.8327993,15.3024001 Z M87.5047993,18.6 L87.5047993,13.5024001 L86.7199993,13.5024001 L86.7199993,18.6 L87.5047993,18.6 Z M91.4575992,18.6792 L91.4791992,18.0816 C91.3735992,18.0672 91.2955992,18.0348 91.2451992,17.9844 C91.1947992,17.934 91.1671992,17.856 91.1623992,17.7504 L91.1623992,17.7504 L91.1623992,16.1088001 C91.1623992,15.6960001 91.0651992,15.3948001 90.8707992,15.2052001 C90.6763992,15.0156001 90.3595992,14.9208001 89.9203992,14.9208001 C89.4811992,14.9208001 88.9999992,14.9832001 88.4767993,15.1080001 L88.4767993,15.1080001 L88.5055992,15.6624001 L88.7359992,15.6480001 C89.1967992,15.6096001 89.5807992,15.5904001 89.8879992,15.5904001 C90.0511992,15.5904001 90.1747992,15.6288001 90.2587992,15.7056001 C90.3427992,15.7824001 90.3847992,15.9168001 90.3847992,16.1088001 L90.3847992,16.1088001 L90.3847992,16.3680001 L89.4559992,16.4472001 C89.0527992,16.4808001 88.7539992,16.5792001 88.5595992,16.7424001 C88.3651993,16.9056001 88.2679993,17.1696001 88.2679993,17.5344 C88.2679993,18.2976 88.6255992,18.6792 89.3407992,18.6792 C89.7295992,18.6792 90.1159992,18.5904 90.4999992,18.4128 C90.7255992,18.5904 91.0447992,18.6792 91.4575992,18.6792 L91.4575992,18.6792 Z M89.4919992,18.0384 C89.1991992,18.0384 89.0527992,17.8728 89.0527992,17.5416 C89.0527992,17.2104001 89.2183992,17.0304001 89.5495992,17.0016001 L89.5495992,17.0016001 L90.3847992,16.9224001 L90.3847992,17.88 L90.2551992,17.9232 C89.9863992,18 89.7319992,18.0384 89.4919992,18.0384 Z M93.3439992,18.6792 C93.8095992,18.6792 94.1635992,18.5904 94.4059992,18.4128 C94.6483992,18.2352 94.7695992,17.9568 94.7695992,17.5776 C94.7695992,17.1984001 94.6855992,16.9344001 94.5175992,16.7856001 C94.3495992,16.6368001 94.0651992,16.5276001 93.6643992,16.4580001 C93.2635992,16.3884001 93.0091992,16.3272001 92.9011992,16.2744001 C92.7931992,16.2216001 92.7391992,16.1304001 92.7391992,16.0008001 C92.7391992,15.8712001 92.7883992,15.7764001 92.8867992,15.7164001 C92.9851992,15.6564001 93.1615992,15.6264001 93.4159992,15.6264001 C93.6703992,15.6264001 94.0807992,15.6648001 94.6471992,15.7416001 L94.6471992,15.7416001 L94.6615992,15.0864001 L94.4383992,15.0432001 C93.9919992,14.9664001 93.6151992,14.9280001 93.3079992,14.9280001 C92.9143992,14.9280001 92.5915992,15.0192001 92.3395992,15.2016001 C92.0875992,15.3840001 91.9615992,15.6600001 91.9615992,16.0296001 C91.9615992,16.3992001 92.0527992,16.6536001 92.2351992,16.7928001 C92.4175992,16.9320001 92.7043992,17.0340001 93.0955992,17.0988001 C93.4867992,17.1636001 93.7339992,17.2236001 93.8371992,17.2788001 C93.9403992,17.3340001 93.9919992,17.4336 93.9919992,17.5776 C93.9919992,17.7216 93.9379992,17.8248 93.8299992,17.8872 C93.7219992,17.9496 93.5407992,17.9808 93.2863992,17.9808 C93.0319992,17.9808 92.6167992,17.9424 92.0407992,17.8656 L92.0407992,17.8656 L92.0119992,18.5208 L92.2351992,18.5568 C92.6815992,18.6384 93.0511992,18.6792 93.3439992,18.6792 Z M96.7567992,18.6792 C96.9247992,18.6792 97.1695991,18.648 97.4911991,18.5856 L97.4911991,18.5856 L97.4551991,17.9592 L96.8647992,17.9808 C96.6871992,17.9808 96.5767992,17.9328 96.5335992,17.8368 C96.4903992,17.7408 96.4687992,17.5464 96.4687992,17.2536001 L96.4687992,17.2536001 L96.4687992,15.6696001 L97.4623991,15.6696001 L97.4623991,15.0000001 L96.4687992,15.0000001 L96.4687992,13.9560001 L95.6911992,13.9560001 L95.6911992,15.0000001 L95.2303992,15.0000001 L95.2303992,15.6696001 L95.6911992,15.6696001 L95.6911992,17.3400001 C95.6911992,17.8584 95.7667992,18.2112 95.9179992,18.3984 C96.0691992,18.5856 96.3487992,18.6792 96.7567992,18.6792 Z M100.925599,17.0880001 L100.925599,16.8504001 C100.925599,16.7208001 100.965199,16.5996001 101.044399,16.4868001 C101.123599,16.3740001 101.285599,16.2216001 101.530399,16.0296001 C101.775199,15.8376001 101.937199,15.6576001 102.016399,15.4896001 C102.095599,15.3216001 102.135199,15.0768001 102.135199,14.7552001 C102.135199,14.3472001 102.016399,14.0508001 101.778799,13.8660001 C101.541199,13.6812001 101.170399,13.5888001 100.666399,13.5888001 C100.301599,13.5888001 99.8959991,13.6680001 99.4495991,13.8264001 L99.4495991,13.8264001 L99.4927991,14.4240001 L99.6583991,14.3880001 C99.9751991,14.3208001 100.277599,14.2872001 100.565599,14.2872001 C101.074399,14.2872001 101.328799,14.4624001 101.328799,14.8128001 C101.328799,14.9904001 101.290399,15.1332001 101.213599,15.2412001 C101.136799,15.3492001 100.980799,15.5004001 100.745599,15.6948001 C100.510399,15.8892001 100.347199,16.0464001 100.255999,16.1664001 C100.164799,16.2864001 100.119199,16.4064001 100.119199,16.5264001 C100.119199,16.7520001 100.176799,16.9392001 100.291999,17.0880001 L100.291999,17.0880001 L100.925599,17.0880001 Z M101.004799,18.6 L101.004799,17.592 L100.169599,17.592 L100.169599,18.6 L101.004799,18.6 Z" id="Howlongwillthe“high”last?" fill="#1E334C" fill-rule="nonzero"></path>
                </g>
                <path d="M146.199297,20.2463107 C145.385506,20.4249898 144.578168,20.6319022 143.77935,20.8686596 C144.833575,20.5052363 145.910064,20.2183674 147.000842,20.0133733 C146.732784,20.0867822 146.465713,20.164473 146.199297,20.2463107 Z M140.257339,21.4029567 C144.401194,19.2488159 149.114216,18.2133891 153.734645,18.8380797 C153.515362,18.860918 153.296143,18.8845586 153.076989,18.9090018 C148.646553,18.4185375 144.227379,19.4041762 140.257339,21.4029567 Z M134.594883,26.3595643 C134.9106,26.0759414 135.231778,25.7980197 135.560215,25.5280784 C136.248335,25.0963349 136.953206,24.6923256 137.669628,24.3116205 C136.617759,24.9594349 135.591363,25.6451083 134.594883,26.3595643 Z M156.945985,20.4104422 L157.095279,20.5406501 L157.095279,20.5406501 C156.907544,20.5843883 156.721664,20.6331467 156.535123,20.6796967 C156.673538,20.5927357 156.809694,20.5017559 156.945985,20.4104422 Z M124.21726,38.5832819 C123.296832,40.9056277 122.828656,43.380022 122.996055,45.9438595 L122.969118,46.0778018 L122.969118,46.0778018 C122.612007,43.4338213 123.151275,40.9314624 124.21726,38.5832819 Z M158.444404,20.4217861 L158.308107,20.3026537 L158.308107,20.3026537 C158.665998,20.27214 158.921307,19.7497844 158.571379,19.4309637 L158.335802,19.2173613 L158.335802,19.2173613 C158.379874,18.9035831 158.072718,18.5884538 157.732299,18.6699013 C156.427605,17.4842606 155.120362,16.3010845 153.811508,15.1199752 L152.50505,13.8454838 L152.50505,13.8454838 C152.436424,13.77893 152.359191,13.7461728 152.280735,13.7385473 L150.931027,12.5211302 L150.931027,12.5211302 C150.640334,12.2584689 150.313127,12.4629007 150.219796,12.7544475 L149.945514,12.5982026 L149.945514,12.5982026 C149.77155,12.5069501 149.619766,12.5357046 149.508152,12.6245634 L149.477086,12.5995873 L149.477086,12.5995873 C148.976071,12.204969 148.408269,12.9683749 148.880414,13.3796726 L151.803521,15.927792 L151.803521,15.927792 L151.829127,15.9844926 C151.883874,16.0962369 151.942,16.1487056 152.162297,16.3938486 C152.24214,16.4835716 152.343962,16.5006372 152.431224,16.4749348 L154.21696,18.0315931 L154.21696,18.0315931 C147.369172,16.9903901 140.30214,19.4133002 134.986257,23.8436569 C133.605947,24.9939863 132.356324,26.2619579 131.225772,27.6234654 C125.412124,32.5151048 120.658638,39.7473196 121.249791,47.4646773 C121.270259,47.7311484 121.728589,47.7307315 121.724722,47.4577666 C121.706571,46.1563206 121.826664,44.875008 122.064053,43.6205079 C121.960559,45.1663396 122.117066,46.7644138 122.607243,48.4149858 C122.722552,48.8032534 123.212338,48.715371 123.381577,48.4339144 C123.597152,48.8056163 124.250343,48.6727081 124.181624,48.1700868 C124.043988,47.1643754 124.009711,46.1565488 124.065535,45.1525107 C124.952027,41.2804476 126.25346,37.4471253 128.104104,33.9323785 C128.55724,33.2317491 129.036121,32.5481222 129.535323,31.8843535 C130.903117,30.3911702 132.431271,29.0373249 134.021885,27.8508228 C137.242589,25.4483407 140.803505,23.275333 144.529482,21.7556947 C145.107422,21.5197761 145.691276,21.3134261 146.27914,21.1269446 C148.198564,20.7007391 150.155361,20.4472716 152.123057,20.3667179 C150.70033,21.006027 149.331266,21.7470016 147.997665,22.5558857 C147.71188,22.7289075 147.764168,23.0924893 147.964606,23.2988837 C147.66563,23.6323685 148.12451,24.187015 148.569831,24.0438935 C149.039244,23.8930341 149.508196,23.7404349 149.976026,23.5838876 C150.061926,23.8162242 150.303331,23.9875303 150.605992,23.8640364 C151.094356,23.6653106 151.570361,23.4452835 152.042117,23.2165511 C154.03152,22.3701639 156.086138,21.7256245 158.218166,21.2940724 C158.64223,21.2083689 158.766253,20.7024714 158.444404,20.4217861 Z" id="Shape" fill="#1E334C" fill-rule="nonzero" transform="translate(139.969094, 30.538129) scale(-1, 1) translate(-139.969094, -30.538129) "></path>
                <path d="M170.174082,89.8101401 C169.554859,89.484322 168.921922,89.1796996 168.275547,88.8983968 C169.160602,89.2376485 170.011442,89.6369364 170.819757,90.0953087 C170.606647,89.9971211 170.391463,89.902153 170.174082,89.8101401 Z M165.621369,87.1208153 C169.549182,88.2157175 173.17503,90.3643235 175.754235,93.5178314 L175.292042,93.1710403 L175.292042,93.1710403 C172.75433,90.2165148 169.345761,88.2113011 165.621369,87.1208153 Z M159.359945,86.571707 C159.713445,86.5846126 160.067148,86.6042862 160.420896,86.6332036 C161.087456,86.7763527 161.748925,86.9465816 162.404554,87.138063 C161.392417,86.9117453 160.374944,86.723945 159.359945,86.571707 Z M176.871931,96.1710904 L176.880492,96.3262295 L176.880492,96.3262295 C176.739509,96.2579338 176.596495,96.1936448 176.454469,96.1276716 C176.592755,96.1445894 176.732198,96.1579078 176.871931,96.1710904 Z M145.54773,88.447998 C143.575628,89.383396 141.800011,90.681358 140.374743,92.4098591 L140.277613,92.4791823 L140.277613,92.4791823 C141.630234,90.5881895 143.467722,89.3142448 145.54773,88.447998 Z M177.813762,97.0426948 L177.79774,96.8866197 L177.79774,96.8866197 C178.04254,97.0789014 178.512757,96.8988865 178.479276,96.4899678 L178.456127,96.2153317 L178.456127,96.2153317 C178.669332,96.042575 178.660774,95.6612854 178.396971,95.5116075 C178.270326,93.9889146 178.14061,92.4662762 178.008653,90.9439944 L177.933354,89.3639606 L177.933354,89.3639606 C177.929167,89.2812135 177.89957,89.2147912 177.854358,89.1635695 L177.717952,87.5941261 L177.717952,87.5941261 C177.688846,87.2558163 177.360795,87.1918753 177.129503,87.3214197 L177.04796,87.0602409 L177.04796,87.0602409 C176.991608,86.8995593 176.878449,86.828031 176.755254,86.8183377 L176.750317,86.7841435 L176.750317,86.7841435 C176.665854,86.2378621 175.855287,86.3858383 175.911607,86.9256174 L176.259271,90.268549 L176.259271,90.268549 L176.240998,90.3230052 C176.210853,90.4243035 176.21652,90.4935438 176.21142,90.7759916 C176.209034,90.880052 176.263478,90.9510706 176.33395,90.986382 L176.546337,93.0285925 L176.546337,93.0285925 C172.821952,88.3198655 166.913171,85.6764346 160.92868,85.3403921 C159.374789,85.2531065 157.834244,85.3176345 156.31392,85.5118337 C149.741639,85.173748 142.459092,86.9455569 138.276779,92.1849707 C138.132405,92.365915 138.423078,92.6366548 138.581806,92.4614122 C139.338775,91.626057 140.171456,90.8852006 141.062632,90.2306892 C140.084277,91.1489644 139.239827,92.2540769 138.575813,93.5897479 C138.419618,93.9039425 138.781869,94.1378617 139.055302,94.0595936 C138.972424,94.4225781 139.464806,94.7245874 139.718047,94.3654841 C140.224679,93.6468628 140.798055,92.9880157 141.426287,92.384845 C144.274379,90.4555971 147.362528,88.7962456 150.610582,87.6634905 C151.311421,87.4874904 152.018535,87.3374864 152.726799,87.2120803 C154.475206,87.0747262 156.242951,87.1204779 157.951463,87.3091936 C161.410909,87.6912894 164.950434,88.4199463 168.208755,89.6601906 C168.714278,89.8524355 169.206089,90.0669126 169.688709,90.2963493 C171.15664,91.1612253 172.546256,92.1576494 173.840676,93.2700796 C172.561651,92.8339206 171.2566,92.493909 169.933921,92.217895 C169.650665,92.1585446 169.469111,92.4198341 169.474251,92.6691262 C169.087887,92.7036487 169.051157,93.3264129 169.41785,93.4990401 C169.804379,93.6810103 170.191642,93.8616049 170.580525,94.0390341 C170.497768,94.2370388 170.549586,94.4883217 170.81429,94.5890321 C171.241091,94.7518786 171.672638,94.8939196 172.106633,95.0279328 C173.867014,95.6679505 175.549533,96.4744237 177.15534,97.4616217 C177.474659,97.6580611 177.851968,97.4108475 177.813762,97.0426948 Z" id="Shape" fill="#1E334C" fill-rule="nonzero" transform="translate(158.422021, 91.416537) scale(-1, 1) translate(-158.422021, -91.416537) "></path>
                <path d="M150.620546,69.2602684 C153.965631,68.5664397 157.308276,67.8595113 160.648014,67.1388283 L162.14672,66.8369423 L162.14672,66.8369423 C158.313759,67.6860434 154.471008,68.4940499 150.620546,69.2602684 Z M136.289836,72.0024056 C136.12951,72.0234249 135.985777,72.0272366 135.882284,71.9951515 L135.604437,72.042803 L135.604437,72.042803 L135.975548,71.4172469 L135.975548,71.4172469 C136.193427,71.2464199 136.745872,71.2088559 137.02122,71.1408245 C137.17102,71.103977 137.321925,71.0695058 137.47225,71.0336686 C137.054674,71.16104 136.63676,71.286278 136.22029,71.4160257 C135.92403,71.5085096 136.026821,71.9503898 136.289836,72.0024056 Z M148.17458,68.7546771 C149.637979,68.4715048 151.102916,68.195743 152.570574,67.9348588 C154.161276,67.6522994 155.754495,67.3879303 157.349477,67.132394 C152.847557,68.038242 148.345806,68.9451566 143.844899,69.8574048 C145.283957,69.4734798 146.727327,69.1052737 148.17458,68.7546771 Z M143.052037,69.1548665 C141.857065,69.4097391 140.663835,69.6717169 139.47202,69.9406974 L138.280667,70.2120083 C138.232872,70.2232231 138.17501,70.2353035 138.110691,70.2480421 C139.752865,69.8578251 141.40033,69.4941069 143.052037,69.1548665 Z M165.793052,70.8089524 C167.643918,69.6629034 169.452867,68.4524183 171.232095,67.1992573 C172.790221,66.3842385 174.343739,65.5608373 175.890326,64.7235899 C176.335097,64.4825649 176.041595,63.8445437 175.567236,64.0115255 C175.432264,64.0591461 175.300084,64.1128853 175.166104,64.1621711 C175.146601,64.1586994 175.125996,64.159776 175.104007,64.1636232 C175.058086,64.1406438 175.004087,64.1287852 174.942028,64.1327825 L174.713158,64.0593212 L174.713158,64.0593212 C174.729871,64.0198609 174.738385,63.9769609 174.743698,63.9345677 L174.809518,63.8898811 L174.809518,63.8898811 L174.854386,63.903915 L174.854386,63.903915 C175.300892,64.0420467 175.569777,63.3739991 175.120663,63.221701 L175.051367,63.1984146 L175.051367,63.1984146 C174.95857,63.1095977 174.826843,63.0557412 174.689651,63.0778349 C174.078565,62.8717322 173.467537,62.6659851 172.855406,62.4647863 C171.728983,62.010444 170.584956,61.6106471 169.423871,61.271141 C167.290768,60.5224541 165.127468,59.8707655 162.895178,59.443958 C162.488134,59.3662772 162.321734,60.030121 162.720302,60.1532471 L163.25761,60.3192777 L163.253868,60.3209639 C163.145388,60.3126312 163.037469,60.3009294 162.928261,60.294899 C162.522667,60.2723909 162.308808,60.9058447 162.74709,61.0288769 L163.780325,61.3182865 L163.780325,61.3182865 C163.817576,61.3739848 163.876571,61.4196786 163.961047,61.446757 L164.865366,61.7299773 L164.865366,61.7299773 C164.840258,61.7463466 164.812396,61.7591426 164.788805,61.7781876 C164.702316,61.8465592 164.680383,61.968127 164.721605,62.0672995 L164.77257,62.1911718 L164.77257,62.1911718 C164.892225,62.4794832 165.308905,62.2797207 165.209183,61.9929905 C165.32463,62.3260715 167.165136,62.5299024 167.525585,62.6240751 C167.962104,62.7382745 168.398194,62.8543643 168.833611,62.9731121 C169.81314,63.2801399 170.794426,63.5821512 171.774984,63.8864648 C170.943593,63.9831533 170.113178,64.0836968 169.282896,64.1896863 C157.597155,65.2051208 146.057832,67.3728367 134.737238,70.4820068 C134.377779,70.5804911 134.461358,71.1588166 134.829147,71.0622934 C135.248771,70.9524575 135.669877,70.8496766 136.090476,70.7436956 C135.054652,71.1053062 134.205919,71.6862294 134.85472,72.6459503 C134.914259,72.7342029 135.045211,72.773967 135.146024,72.7569064 C147.209475,70.7088316 159.189002,68.2206269 171.09047,65.3868588 C168.878427,66.8368704 166.669533,68.2929444 164.462866,69.7515813 C164.15702,69.9538363 164.345657,70.3923254 164.640444,70.4677391 C164.735874,70.6629337 164.952589,70.7977316 165.178254,70.6668585 L165.266736,70.6156667 L165.266736,70.6156667 C165.356086,70.8161982 165.56,70.9530234 165.793052,70.8089524 Z" id="Shape" fill="#1E334C" fill-rule="nonzero" transform="translate(155.308239, 66.099217) scale(-1, 1) translate(-155.308239, -66.099217) "></path>
                <g id="Group-3-Copy" transform="translate(48.000000, 47.399999)">
                    <g id="Rectangle">
                        <use fill="black" fill-opacity="1" filter="url(#filter-4)" xlink:href="#path-3"></use>
                        <use fill="#EECB6B" fill-rule="evenodd" xlink:href="#path-3"></use>
                    </g>
                    <path d="M8.16800009,18.6 L8.16800009,16.4688001 L10.2992001,16.4688001 L10.2992001,18.6 L11.1056001,18.6 L11.1056001,13.6680001 L10.2992001,13.6680001 L10.2992001,15.7704001 L8.16800009,15.7704001 L8.16800009,13.6680001 L7.36880009,13.6680001 L7.36880009,18.6 L8.16800009,18.6 Z M13.532,18.6792 C14.1224,18.6792 14.5376,18.5208 14.7776,18.204 C15.0176,17.8872 15.1376,17.4168 15.1376,16.7928001 C15.1376,16.1688001 15.014,15.7008001 14.7668,15.3888001 C14.5196,15.0768001 14.108,14.9208001 13.532,14.9208001 C12.956,14.9208001 12.5432,15.0768001 12.2936,15.3888001 C12.0488,15.7008001 11.9264,16.1688001 11.9264,16.7928001 C11.9264,17.4168 12.0464,17.8872 12.2864,18.204 C12.5264,18.5208 12.9416,18.6792 13.532,18.6792 Z M13.532,18.0168 C13.2104,18.0168 12.9944,17.9208 12.884,17.7288 C12.7736,17.5368 12.7184,17.2224001 12.7184,16.7856001 C12.7184,16.3488001 12.7772,16.0392001 12.8948,15.8568001 C13.0124,15.6744001 13.2248,15.5832001 13.532,15.5832001 C13.8392,15.5832001 14.0516,15.6744001 14.1692,15.8568001 C14.2868,16.0392001 14.3456,16.3488001 14.3456,16.7856001 C14.3456,17.2224001 14.2904,17.5368 14.18,17.7288 C14.0696,17.9208 13.8536,18.0168 13.532,18.0168 Z M17.6432,18.6 L18.2048,16.1304001 L18.7664,18.6 L20.0119999,18.6 L20.7751999,15.0000001 L19.9975999,15.0000001 L19.436,17.9304 L19.292,17.9304 L18.608,15.0720001 L17.8016,15.0720001 L17.1176,17.9304 L16.9736,17.9304 L16.4048,15.0000001 L15.6344,15.0000001 L16.3976,18.6 L17.6432,18.6 Z M24.9079999,15.3168001 L25.2319999,13.6248001 L24.6343999,13.6248001 L24.0871999,15.3168001 L24.9079999,15.3168001 Z M23.6767999,15.3168001 L24.0007999,13.6248001 L23.4031999,13.6248001 L22.8559999,15.3168001 L23.6767999,15.3168001 Z M26.7871999,18.6 L26.7871999,15.7776001 L26.9023999,15.7344001 C27.1327999,15.6576001 27.3631999,15.6192001 27.5935999,15.6192001 C27.8575999,15.6192001 28.0303999,15.7008001 28.1119999,15.8640001 C28.1935999,16.0272001 28.2343999,16.3032001 28.2343999,16.6920001 L28.2343999,16.6920001 L28.2343999,18.6 L29.0191998,18.6 L29.0191998,16.6704001 C29.0191998,16.0464001 28.9315998,15.5988001 28.7563998,15.3276001 C28.5811998,15.0564001 28.2535999,14.9208001 27.7735999,14.9208001 C27.4711999,14.9208001 27.1423999,15.0096001 26.7871999,15.1872001 L26.7871999,15.1872001 L26.7871999,13.5024001 L26.0023999,13.5024001 L26.0023999,18.6 L26.7871999,18.6 Z M30.7183998,14.3880001 L30.7183998,13.5600001 L29.9335998,13.5600001 L29.9335998,14.3880001 L30.7183998,14.3880001 Z M30.7183998,18.6 L30.7183998,15.0000001 L29.9335998,15.0000001 L29.9335998,18.6 L30.7183998,18.6 Z M33.1087998,20.2704 C34.2463998,20.2704 34.8151998,19.8768 34.8151998,19.0896 C34.8151998,18.6768 34.7095998,18.396 34.4983998,18.2472 C34.2871998,18.0984 33.8959998,18.0216 33.3247998,18.0168 C32.9839998,18.012 32.7691998,17.9928 32.6803998,17.9592 C32.5915998,17.9256 32.5471998,17.8644 32.5471998,17.7756 C32.5471998,17.6868 32.5807998,17.5608 32.6479998,17.3976 C32.7343998,17.4168 32.8399998,17.4264 32.9647998,17.4264 C33.4687998,17.4264 33.8395998,17.3364001 34.0771998,17.1564001 C34.3147998,16.9764001 34.4335998,16.6512001 34.4335998,16.1808001 C34.4335998,15.9552001 34.3687998,15.7584001 34.2391998,15.5904001 L34.2391998,15.5904001 L34.8367998,15.6264001 L34.8367998,14.9928001 L33.7207998,15.0216001 L33.6127998,15.0000001 C33.4063998,14.9520001 33.1975998,14.9280001 32.9863998,14.9280001 C32.5447998,14.9280001 32.1943998,15.0288001 31.9351998,15.2304001 C31.6759998,15.4320001 31.5463998,15.7488001 31.5463998,16.1808001 C31.5463998,16.6944001 31.7191998,17.0544001 32.0647998,17.2608001 L32.0647998,17.2608001 L31.9999998,17.3688001 C31.8703998,17.5848 31.8055998,17.7408 31.8055998,17.8368 C31.8055998,18.0816 31.8847998,18.2568 32.0431998,18.3624 C31.8511998,18.5112 31.7119998,18.6492 31.6255998,18.7764 C31.5391998,18.9036 31.4959998,19.056 31.4959998,19.2336 C31.4959998,19.6272 31.6279998,19.8984 31.8919998,20.0472 C32.1559998,20.196 32.5615998,20.2704 33.1087998,20.2704 Z M32.9935998,16.8216001 C32.7583998,16.8216001 32.5879998,16.7700001 32.4823998,16.6668001 C32.3767998,16.5636001 32.3239998,16.4016001 32.3239998,16.1808001 C32.3239998,15.7536001 32.5447998,15.5400001 32.9863998,15.5400001 C33.2215998,15.5400001 33.3919998,15.5916001 33.4975998,15.6948001 C33.6031998,15.7980001 33.6559998,15.9600001 33.6559998,16.1808001 C33.6559998,16.4016001 33.6043998,16.5636001 33.5011998,16.6668001 C33.3979998,16.7700001 33.2287998,16.8216001 32.9935998,16.8216001 Z M33.1591998,19.6296 C32.8327998,19.6296 32.6023998,19.5936 32.4679998,19.5216 C32.3335998,19.4496 32.2663998,19.3296 32.2663998,19.1616 C32.2663998,19.056 32.2879998,18.966 32.3311998,18.8916 C32.3743998,18.8172 32.4487998,18.7368 32.5543998,18.6504 L32.5543998,18.6504 L33.2599998,18.6936 C33.5671998,18.6984 33.7723998,18.726 33.8755998,18.7764 C33.9787998,18.8268 34.0303998,18.9456 34.0303998,19.1328 C34.0303998,19.464 33.7399998,19.6296 33.1591998,19.6296 Z M36.2335998,18.6 L36.2335998,15.7776001 L36.3487998,15.7344001 C36.5791998,15.6576001 36.8095998,15.6192001 37.0399998,15.6192001 C37.3039997,15.6192001 37.4767997,15.7008001 37.5583997,15.8640001 C37.6399997,16.0272001 37.6807997,16.3032001 37.6807997,16.6920001 L37.6807997,16.6920001 L37.6807997,18.6 L38.4655997,18.6 L38.4655997,16.6704001 C38.4655997,16.0464001 38.3779997,15.5988001 38.2027997,15.3276001 C38.0275997,15.0564001 37.6999997,14.9208001 37.2199997,14.9208001 C36.9175998,14.9208001 36.5887998,15.0096001 36.2335998,15.1872001 L36.2335998,15.1872001 L36.2335998,13.5024001 L35.4487998,13.5024001 L35.4487998,18.6 L36.2335998,18.6 Z M39.8119997,15.3024001 L40.3591997,13.6104001 L39.5383997,13.6104001 L39.2143997,15.3024001 L39.8119997,15.3024001 Z M41.0575997,15.3024001 L41.6047997,13.6104001 L40.7839997,13.6104001 L40.4599997,15.3024001 L41.0575997,15.3024001 Z M45.6295997,18.6 L46.1911996,16.1304001 L46.7527996,18.6 L47.9983996,18.6 L48.7615996,15.0000001 L47.9839996,15.0000001 L47.4223996,17.9304 L47.2783996,17.9304 L46.5943996,15.0720001 L45.7879996,15.0720001 L45.1039997,17.9304 L44.9599997,17.9304 L44.3911997,15.0000001 L43.6207997,15.0000001 L44.3839997,18.6 L45.6295997,18.6 Z M50.2159996,14.3880001 L50.2159996,13.5600001 L49.4311996,13.5600001 L49.4311996,14.3880001 L50.2159996,14.3880001 Z M50.2159996,18.6 L50.2159996,15.0000001 L49.4311996,15.0000001 L49.4311996,18.6 L50.2159996,18.6 Z M51.9943996,18.6 L51.9943996,13.5024001 L51.2095996,13.5024001 L51.2095996,18.6 L51.9943996,18.6 Z M53.8159996,18.6 L53.8159996,13.5024001 L53.0311996,13.5024001 L53.0311996,18.6 L53.8159996,18.6 Z M57.2863995,18.6 L57.2863995,13.6680001 L56.4871995,13.6680001 L56.4871995,18.6 L57.2863995,18.6 Z M61.3543995,20.2704 C62.4919995,20.2704 63.0607994,19.8768 63.0607994,19.0896 C63.0607994,18.6768 62.9551995,18.396 62.7439995,18.2472 C62.5327995,18.0984 62.1415995,18.0216 61.5703995,18.0168 C61.2295995,18.012 61.0147995,17.9928 60.9259995,17.9592 C60.8371995,17.9256 60.7927995,17.8644 60.7927995,17.7756 C60.7927995,17.6868 60.8263995,17.5608 60.8935995,17.3976 C60.9799995,17.4168 61.0855995,17.4264 61.2103995,17.4264 C61.7143995,17.4264 62.0851995,17.3364001 62.3227995,17.1564001 C62.5603995,16.9764001 62.6791995,16.6512001 62.6791995,16.1808001 C62.6791995,15.9552001 62.6143995,15.7584001 62.4847995,15.5904001 L62.4847995,15.5904001 L63.0823994,15.6264001 L63.0823994,14.9928001 L61.9663995,15.0216001 L61.8583995,15.0000001 C61.6519995,14.9520001 61.4431995,14.9280001 61.2319995,14.9280001 C60.7903995,14.9280001 60.4399995,15.0288001 60.1807995,15.2304001 C59.9215995,15.4320001 59.7919995,15.7488001 59.7919995,16.1808001 C59.7919995,16.6944001 59.9647995,17.0544001 60.3103995,17.2608001 L60.3103995,17.2608001 L60.2455995,17.3688001 C60.1159995,17.5848 60.0511995,17.7408 60.0511995,17.8368 C60.0511995,18.0816 60.1303995,18.2568 60.2887995,18.3624 C60.0967995,18.5112 59.9575995,18.6492 59.8711995,18.7764 C59.7847995,18.9036 59.7415995,19.056 59.7415995,19.2336 C59.7415995,19.6272 59.8735995,19.8984 60.1375995,20.0472 C60.4015995,20.196 60.8071995,20.2704 61.3543995,20.2704 Z M61.2391995,16.8216001 C61.0039995,16.8216001 60.8335995,16.7700001 60.7279995,16.6668001 C60.6223995,16.5636001 60.5695995,16.4016001 60.5695995,16.1808001 C60.5695995,15.7536001 60.7903995,15.5400001 61.2319995,15.5400001 C61.4671995,15.5400001 61.6375995,15.5916001 61.7431995,15.6948001 C61.8487995,15.7980001 61.9015995,15.9600001 61.9015995,16.1808001 C61.9015995,16.4016001 61.8499995,16.5636001 61.7467995,16.6668001 C61.6435995,16.7700001 61.4743995,16.8216001 61.2391995,16.8216001 Z M61.4047995,19.6296 C61.0783995,19.6296 60.8479995,19.5936 60.7135995,19.5216 C60.5791995,19.4496 60.5119995,19.3296 60.5119995,19.1616 C60.5119995,19.056 60.5335995,18.966 60.5767995,18.8916 C60.6199995,18.8172 60.6943995,18.7368 60.7999995,18.6504 L60.7999995,18.6504 L61.5055995,18.6936 C61.8127995,18.6984 62.0179995,18.726 62.1211995,18.7764 C62.2243995,18.8268 62.2759995,18.9456 62.2759995,19.1328 C62.2759995,19.464 61.9855995,19.6296 61.4047995,19.6296 Z M65.0191994,18.6792 C65.4415994,18.6792 65.9263994,18.624 66.4735994,18.5136 L66.4735994,18.5136 L66.4591994,17.9304 L66.2575994,17.952 C65.8975994,17.9808 65.5471994,17.9952 65.2063994,17.9952 C64.8655994,17.9952 64.6327994,17.9256 64.5079994,17.7864 C64.3831994,17.6472 64.3183994,17.4288 64.3135994,17.1312001 L64.3135994,17.1312001 L66.5455994,17.1312001 L66.5959994,16.5696001 C66.5959994,15.4704001 66.0919994,14.9208001 65.0839994,14.9208001 C64.0423994,14.9208001 63.5215994,15.5592001 63.5215994,16.8360001 C63.5215994,17.4792 63.6379994,17.9472 63.8707994,18.24 C64.1035994,18.5328 64.4863994,18.6792 65.0191994,18.6792 Z M65.8255994,16.5264001 L64.3063994,16.5264001 C64.3111994,16.1856001 64.3747994,15.9408001 64.4971994,15.7920001 C64.6195994,15.6432001 64.8151994,15.5688001 65.0839994,15.5688001 C65.3527994,15.5688001 65.5435994,15.6396001 65.6563994,15.7812001 C65.7691994,15.9228001 65.8255994,16.1712001 65.8255994,16.5264001 L65.8255994,16.5264001 Z M68.5831994,18.6792 C68.7511994,18.6792 68.9959994,18.648 69.3175994,18.5856 L69.3175994,18.5856 L69.2815994,17.9592 L68.6911994,17.9808 C68.5135994,17.9808 68.4031994,17.9328 68.3599994,17.8368 C68.3167994,17.7408 68.2951994,17.5464 68.2951994,17.2536001 L68.2951994,17.2536001 L68.2951994,15.6696001 L69.2887994,15.6696001 L69.2887994,15.0000001 L68.2951994,15.0000001 L68.2951994,13.9560001 L67.5175994,13.9560001 L67.5175994,15.0000001 L67.0567994,15.0000001 L67.0567994,15.6696001 L67.5175994,15.6696001 L67.5175994,17.3400001 C67.5175994,17.8584 67.5931994,18.2112 67.7443994,18.3984 C67.8955994,18.5856 68.1751994,18.6792 68.5831994,18.6792 Z M72.7519993,17.0880001 L72.7519993,16.8504001 C72.7519993,16.7208001 72.7915993,16.5996001 72.8707993,16.4868001 C72.9499993,16.3740001 73.1119993,16.2216001 73.3567993,16.0296001 C73.6015993,15.8376001 73.7635993,15.6576001 73.8427993,15.4896001 C73.9219993,15.3216001 73.9615993,15.0768001 73.9615993,14.7552001 C73.9615993,14.3472001 73.8427993,14.0508001 73.6051993,13.8660001 C73.3675993,13.6812001 72.9967993,13.5888001 72.4927993,13.5888001 C72.1279993,13.5888001 71.7223993,13.6680001 71.2759994,13.8264001 L71.2759994,13.8264001 L71.3191994,14.4240001 L71.4847994,14.3880001 C71.8015993,14.3208001 72.1039993,14.2872001 72.3919993,14.2872001 C72.9007993,14.2872001 73.1551993,14.4624001 73.1551993,14.8128001 C73.1551993,14.9904001 73.1167993,15.1332001 73.0399993,15.2412001 C72.9631993,15.3492001 72.8071993,15.5004001 72.5719993,15.6948001 C72.3367993,15.8892001 72.1735993,16.0464001 72.0823993,16.1664001 C71.9911993,16.2864001 71.9455993,16.4064001 71.9455993,16.5264001 C71.9455993,16.7520001 72.0031993,16.9392001 72.1183993,17.0880001 L72.1183993,17.0880001 L72.7519993,17.0880001 Z M72.8311993,18.6 L72.8311993,17.592 L71.9959993,17.592 L71.9959993,18.6 L72.8311993,18.6 Z" id="How“high”willIget?" fill="#1E334C" fill-rule="nonzero"></path>
                </g>
                <g id="Group-3">
                    <g id="Rectangle">
                        <use fill="black" fill-opacity="1" filter="url(#filter-6)" xlink:href="#path-5"></use>
                        <use fill="#EECB6B" fill-rule="evenodd" xlink:href="#path-5"></use>
                    </g>
                    <path d="M10.3679999,18.5999997 L10.3679999,16.4687998 L12.4991999,16.4687998 L12.4991999,18.5999997 L13.3055998,18.5999997 L13.3055998,13.6679998 L12.4991999,13.6679998 L12.4991999,15.7703998 L10.3679999,15.7703998 L10.3679999,13.6679998 L9.56879989,13.6679998 L9.56879989,18.5999997 L10.3679999,18.5999997 Z M15.7319998,18.6791997 C16.3223998,18.6791997 16.7375998,18.5207998 16.9775998,18.2039998 C17.2175998,17.8871998 17.3375998,17.4167998 17.3375998,16.7927998 C17.3375998,16.1687998 17.2139998,15.7007998 16.9667998,15.3887998 C16.7195998,15.0767998 16.3079998,14.9207998 15.7319998,14.9207998 C15.1559998,14.9207998 14.7431998,15.0767998 14.4935998,15.3887998 C14.2487998,15.7007998 14.1263998,16.1687998 14.1263998,16.7927998 C14.1263998,17.4167998 14.2463998,17.8871998 14.4863998,18.2039998 C14.7263998,18.5207998 15.1415998,18.6791997 15.7319998,18.6791997 Z M15.7319998,18.0167998 C15.4103998,18.0167998 15.1943998,17.9207998 15.0839998,17.7287998 C14.9735998,17.5367998 14.9183998,17.2223998 14.9183998,16.7855998 C14.9183998,16.3487998 14.9771998,16.0391998 15.0947998,15.8567998 C15.2123998,15.6743998 15.4247998,15.5831998 15.7319998,15.5831998 C16.0391998,15.5831998 16.2515998,15.6743998 16.3691998,15.8567998 C16.4867998,16.0391998 16.5455998,16.3487998 16.5455998,16.7855998 C16.5455998,17.2223998 16.4903998,17.5367998 16.3799998,17.7287998 C16.2695998,17.9207998 16.0535998,18.0167998 15.7319998,18.0167998 Z M19.8431998,18.5999997 L20.4047998,16.1303998 L20.9663998,18.5999997 L22.2119997,18.5999997 L22.9751997,14.9999998 L22.1975997,14.9999998 L21.6359997,17.9303998 L21.4919998,17.9303998 L20.8079998,15.0719998 L20.0015998,15.0719998 L19.3175998,17.9303998 L19.1735998,17.9303998 L18.6047998,14.9999998 L17.8343998,14.9999998 L18.5975998,18.5999997 L19.8431998,18.5999997 Z M26.4239997,18.6791997 C26.8895997,18.6791997 27.2435997,18.5903997 27.4859997,18.4127998 C27.7283997,18.2351998 27.8495997,17.9567998 27.8495997,17.5775998 C27.8495997,17.1983998 27.7655997,16.9343998 27.5975997,16.7855998 C27.4295997,16.6367998 27.1451997,16.5275998 26.7443997,16.4579998 C26.3435997,16.3883998 26.0891997,16.3271998 25.9811997,16.2743998 C25.8731997,16.2215998 25.8191997,16.1303998 25.8191997,16.0007998 C25.8191997,15.8711998 25.8683997,15.7763998 25.9667997,15.7163998 C26.0651997,15.6563998 26.2415997,15.6263998 26.4959997,15.6263998 C26.7503997,15.6263998 27.1607997,15.6647998 27.7271997,15.7415998 L27.7271997,15.7415998 L27.7415997,15.0863998 L27.5183997,15.0431998 C27.0719997,14.9663998 26.6951997,14.9279998 26.3879997,14.9279998 C25.9943997,14.9279998 25.6715997,15.0191998 25.4195997,15.2015998 C25.1675997,15.3839998 25.0415997,15.6599998 25.0415997,16.0295998 C25.0415997,16.3991998 25.1327997,16.6535998 25.3151997,16.7927998 C25.4975997,16.9319998 25.7843997,17.0339998 26.1755997,17.0987998 C26.5667997,17.1635998 26.8139997,17.2235998 26.9171997,17.2787998 C27.0203997,17.3339998 27.0719997,17.4335998 27.0719997,17.5775998 C27.0719997,17.7215998 27.0179997,17.8247998 26.9099997,17.8871998 C26.8019997,17.9495998 26.6207997,17.9807998 26.3663997,17.9807998 C26.1119997,17.9807998 25.6967997,17.9423998 25.1207997,17.8655998 L25.1207997,17.8655998 L25.0919997,18.5207998 L25.3151997,18.5567998 C25.7615997,18.6383997 26.1311997,18.6791997 26.4239997,18.6791997 Z M30.0383997,18.6791997 C30.6287996,18.6791997 31.0439996,18.5207998 31.2839996,18.2039998 C31.5239996,17.8871998 31.6439996,17.4167998 31.6439996,16.7927998 C31.6439996,16.1687998 31.5203996,15.7007998 31.2731996,15.3887998 C31.0259996,15.0767998 30.6143996,14.9207998 30.0383997,14.9207998 C29.4623997,14.9207998 29.0495997,15.0767998 28.7999997,15.3887998 C28.5551997,15.7007998 28.4327997,16.1687998 28.4327997,16.7927998 C28.4327997,17.4167998 28.5527997,17.8871998 28.7927997,18.2039998 C29.0327997,18.5207998 29.4479997,18.6791997 30.0383997,18.6791997 Z M30.0383997,18.0167998 C29.7167997,18.0167998 29.5007997,17.9207998 29.3903997,17.7287998 C29.2799997,17.5367998 29.2247997,17.2223998 29.2247997,16.7855998 C29.2247997,16.3487998 29.2835997,16.0391998 29.4011997,15.8567998 C29.5187997,15.6743998 29.7311997,15.5831998 30.0383997,15.5831998 C30.3455996,15.5831998 30.5579996,15.6743998 30.6755996,15.8567998 C30.7931996,16.0391998 30.8519996,16.3487998 30.8519996,16.7855998 C30.8519996,17.2223998 30.7967996,17.5367998 30.6863996,17.7287998 C30.5759996,17.9207998 30.3599996,18.0167998 30.0383997,18.0167998 Z M33.8543996,18.6791997 C34.4447996,18.6791997 34.8599996,18.5207998 35.0999996,18.2039998 C35.3399996,17.8871998 35.4599996,17.4167998 35.4599996,16.7927998 C35.4599996,16.1687998 35.3363996,15.7007998 35.0891996,15.3887998 C34.8419996,15.0767998 34.4303996,14.9207998 33.8543996,14.9207998 C33.2783996,14.9207998 32.8655996,15.0767998 32.6159996,15.3887998 C32.3711996,15.7007998 32.2487996,16.1687998 32.2487996,16.7927998 C32.2487996,17.4167998 32.3687996,17.8871998 32.6087996,18.2039998 C32.8487996,18.5207998 33.2639996,18.6791997 33.8543996,18.6791997 Z M33.8543996,18.0167998 C33.5327996,18.0167998 33.3167996,17.9207998 33.2063996,17.7287998 C33.0959996,17.5367998 33.0407996,17.2223998 33.0407996,16.7855998 C33.0407996,16.3487998 33.0995996,16.0391998 33.2171996,15.8567998 C33.3347996,15.6743998 33.5471996,15.5831998 33.8543996,15.5831998 C34.1615996,15.5831998 34.3739996,15.6743998 34.4915996,15.8567998 C34.6091996,16.0391998 34.6679996,16.3487998 34.6679996,16.7855998 C34.6679996,17.2223998 34.6127996,17.5367998 34.5023996,17.7287998 C34.3919996,17.9207998 34.1759996,18.0167998 33.8543996,18.0167998 Z M37.0223996,18.5999997 L37.0223996,15.8063998 L37.1303996,15.7631998 C37.3559996,15.6671998 37.5911996,15.6191998 37.8359996,15.6191998 C38.0951996,15.6191998 38.2667996,15.7007998 38.3507996,15.8639998 C38.4347996,16.0271998 38.4767996,16.3031998 38.4767996,16.6919998 L38.4767996,16.6919998 L38.4767996,18.5999997 L39.2543995,18.5999997 L39.2543995,16.6703998 C39.2543995,16.0463998 39.1667995,15.5987998 38.9915995,15.3275998 C38.8163996,15.0563998 38.4887996,14.9207998 38.0087996,14.9207998 C37.6967996,14.9207998 37.3655996,15.0215998 37.0151996,15.2231998 L37.0151996,15.2231998 L37.0151996,14.9999998 L36.2375996,14.9999998 L36.2375996,18.5999997 L37.0223996,18.5999997 Z M43.4807995,18.5999997 L44.0423995,16.1303998 L44.6039995,18.5999997 L45.8495995,18.5999997 L46.6127995,14.9999998 L45.8351995,14.9999998 L45.2735995,17.9303998 L45.1295995,17.9303998 L44.4455995,15.0719998 L43.6391995,15.0719998 L42.9551995,17.9303998 L42.8111995,17.9303998 L42.2423995,14.9999998 L41.4719995,14.9999998 L42.2351995,18.5999997 L43.4807995,18.5999997 Z M48.0671994,14.3879998 L48.0671994,13.5599998 L47.2823995,13.5599998 L47.2823995,14.3879998 L48.0671994,14.3879998 Z M48.0671994,18.5999997 L48.0671994,14.9999998 L47.2823995,14.9999998 L47.2823995,18.5999997 L48.0671994,18.5999997 Z M49.8455994,18.5999997 L49.8455994,13.5023998 L49.0607994,13.5023998 L49.0607994,18.5999997 L49.8455994,18.5999997 Z M51.6671994,18.5999997 L51.6671994,13.5023998 L50.8823994,13.5023998 L50.8823994,18.5999997 L51.6671994,18.5999997 Z M55.4759994,18.6791997 C55.6439994,18.6791997 55.8887994,18.6479997 56.2103993,18.5855997 L56.2103993,18.5855997 L56.1743993,17.9591998 L55.5839994,17.9807998 C55.4063994,17.9807998 55.2959994,17.9327998 55.2527994,17.8367998 C55.2095994,17.7407998 55.1879994,17.5463998 55.1879994,17.2535998 L55.1879994,17.2535998 L55.1879994,15.6695998 L56.1815993,15.6695998 L56.1815993,14.9999998 L55.1879994,14.9999998 L55.1879994,13.9559998 L54.4103994,13.9559998 L54.4103994,14.9999998 L53.9495994,14.9999998 L53.9495994,15.6695998 L54.4103994,15.6695998 L54.4103994,17.3399998 C54.4103994,17.8583998 54.4859994,18.2111998 54.6371994,18.3983998 C54.7883994,18.5855997 55.0679994,18.6791997 55.4759994,18.6791997 Z M57.6071993,18.5999997 L57.6071993,15.7775998 L57.7223993,15.7343998 C57.9527993,15.6575998 58.1831993,15.6191998 58.4135993,15.6191998 C58.6775993,15.6191998 58.8503993,15.7007998 58.9319993,15.8639998 C59.0135993,16.0271998 59.0543993,16.3031998 59.0543993,16.6919998 L59.0543993,16.6919998 L59.0543993,18.5999997 L59.8391993,18.5999997 L59.8391993,16.6703998 C59.8391993,16.0463998 59.7515993,15.5987998 59.5763993,15.3275998 C59.4011993,15.0563998 59.0735993,14.9207998 58.5935993,14.9207998 C58.2911993,14.9207998 57.9623993,15.0095998 57.6071993,15.1871998 L57.6071993,15.1871998 L57.6071993,13.5023998 L56.8223993,13.5023998 L56.8223993,18.5999997 L57.6071993,18.5999997 Z M62.0783993,18.6791997 C62.5007993,18.6791997 62.9855993,18.6239997 63.5327993,18.5135998 L63.5327993,18.5135998 L63.5183993,17.9303998 L63.3167993,17.9519998 C62.9567993,17.9807998 62.6063993,17.9951998 62.2655993,17.9951998 C61.9247993,17.9951998 61.6919993,17.9255998 61.5671993,17.7863998 C61.4423993,17.6471998 61.3775993,17.4287998 61.3727993,17.1311998 L61.3727993,17.1311998 L63.6047993,17.1311998 L63.6551993,16.5695998 C63.6551993,15.4703998 63.1511993,14.9207998 62.1431993,14.9207998 C61.1015993,14.9207998 60.5807993,15.5591998 60.5807993,16.8359998 C60.5807993,17.4791998 60.6971993,17.9471998 60.9299993,18.2399998 C61.1627993,18.5327998 61.5455993,18.6791997 62.0783993,18.6791997 Z M62.8847993,16.5263998 L61.3655993,16.5263998 C61.3703993,16.1855998 61.4339993,15.9407998 61.5563993,15.7919998 C61.6787993,15.6431998 61.8743993,15.5687998 62.1431993,15.5687998 C62.4119993,15.5687998 62.6027993,15.6395998 62.7155993,15.7811998 C62.8283993,15.9227998 62.8847993,16.1711998 62.8847993,16.5263998 L62.8847993,16.5263998 Z M67.8743992,15.3167998 L68.1983992,13.6247998 L67.6007992,13.6247998 L67.0535992,15.3167998 L67.8743992,15.3167998 Z M66.6431992,15.3167998 L66.9671992,13.6247998 L66.3695992,13.6247998 L65.8223992,15.3167998 L66.6431992,15.3167998 Z M69.7535992,18.5999997 L69.7535992,15.7775998 L69.8687992,15.7343998 C70.0991992,15.6575998 70.3295992,15.6191998 70.5599992,15.6191998 C70.8239992,15.6191998 70.9967992,15.7007998 71.0783992,15.8639998 C71.1599992,16.0271998 71.2007992,16.3031998 71.2007992,16.6919998 L71.2007992,16.6919998 L71.2007992,18.5999997 L71.9855992,18.5999997 L71.9855992,16.6703998 C71.9855992,16.0463998 71.8979992,15.5987998 71.7227992,15.3275998 C71.5475992,15.0563998 71.2199992,14.9207998 70.7399992,14.9207998 C70.4375992,14.9207998 70.1087992,15.0095998 69.7535992,15.1871998 L69.7535992,15.1871998 L69.7535992,13.5023998 L68.9687992,13.5023998 L68.9687992,18.5999997 L69.7535992,18.5999997 Z M73.6847991,14.3879998 L73.6847991,13.5599998 L72.8999992,13.5599998 L72.8999992,14.3879998 L73.6847991,14.3879998 Z M73.6847991,18.5999997 L73.6847991,14.9999998 L72.8999992,14.9999998 L72.8999992,18.5999997 L73.6847991,18.5999997 Z M76.0751991,20.2703997 C77.2127991,20.2703997 77.7815991,19.8767997 77.7815991,19.0895997 C77.7815991,18.6767997 77.6759991,18.3959998 77.4647991,18.2471998 C77.2535991,18.0983998 76.8623991,18.0215998 76.2911991,18.0167998 C75.9503991,18.0119998 75.7355991,17.9927998 75.6467991,17.9591998 C75.5579991,17.9255998 75.5135991,17.8643998 75.5135991,17.7755998 C75.5135991,17.6867998 75.5471991,17.5607998 75.6143991,17.3975998 C75.7007991,17.4167998 75.8063991,17.4263998 75.9311991,17.4263998 C76.4351991,17.4263998 76.8059991,17.3363998 77.0435991,17.1563998 C77.2811991,16.9763998 77.3999991,16.6511998 77.3999991,16.1807998 C77.3999991,15.9551998 77.3351991,15.7583998 77.2055991,15.5903998 L77.2055991,15.5903998 L77.8031991,15.6263998 L77.8031991,14.9927998 L76.6871991,15.0215998 L76.5791991,14.9999998 C76.3727991,14.9519998 76.1639991,14.9279998 75.9527991,14.9279998 C75.5111991,14.9279998 75.1607991,15.0287998 74.9015991,15.2303998 C74.6423991,15.4319998 74.5127991,15.7487998 74.5127991,16.1807998 C74.5127991,16.6943998 74.6855991,17.0543998 75.0311991,17.2607998 L75.0311991,17.2607998 L74.9663991,17.3687998 C74.8367991,17.5847998 74.7719991,17.7407998 74.7719991,17.8367998 C74.7719991,18.0815998 74.8511991,18.2567998 75.0095991,18.3623998 C74.8175991,18.5111998 74.6783991,18.6491997 74.5919991,18.7763997 C74.5055991,18.9035997 74.4623991,19.0559997 74.4623991,19.2335997 C74.4623991,19.6271997 74.5943991,19.8983997 74.8583991,20.0471997 C75.1223991,20.1959997 75.5279991,20.2703997 76.0751991,20.2703997 Z M75.9599991,16.8215998 C75.7247991,16.8215998 75.5543991,16.7699998 75.4487991,16.6667998 C75.3431991,16.5635998 75.2903991,16.4015998 75.2903991,16.1807998 C75.2903991,15.7535998 75.5111991,15.5399998 75.9527991,15.5399998 C76.1879991,15.5399998 76.3583991,15.5915998 76.4639991,15.6947998 C76.5695991,15.7979998 76.6223991,15.9599998 76.6223991,16.1807998 C76.6223991,16.4015998 76.5707991,16.5635998 76.4675991,16.6667998 C76.3643991,16.7699998 76.1951991,16.8215998 75.9599991,16.8215998 Z M76.1255991,19.6295997 C75.7991991,19.6295997 75.5687991,19.5935997 75.4343991,19.5215997 C75.2999991,19.4495997 75.2327991,19.3295997 75.2327991,19.1615997 C75.2327991,19.0559997 75.2543991,18.9659997 75.2975991,18.8915997 C75.3407991,18.8171997 75.4151991,18.7367997 75.5207991,18.6503997 L75.5207991,18.6503997 L76.2263991,18.6935997 C76.5335991,18.6983997 76.7387991,18.7259997 76.8419991,18.7763997 C76.9451991,18.8267997 76.9967991,18.9455997 76.9967991,19.1327997 C76.9967991,19.4639997 76.7063991,19.6295997 76.1255991,19.6295997 Z M79.1999991,18.5999997 L79.1999991,15.7775998 L79.3151991,15.7343998 C79.5455991,15.6575998 79.7759991,15.6191998 80.0063991,15.6191998 C80.2703991,15.6191998 80.4431991,15.7007998 80.5247991,15.8639998 C80.6063991,16.0271998 80.6471991,16.3031998 80.6471991,16.6919998 L80.6471991,16.6919998 L80.6471991,18.5999997 L81.4319991,18.5999997 L81.4319991,16.6703998 C81.4319991,16.0463998 81.3443991,15.5987998 81.1691991,15.3275998 C80.9939991,15.0563998 80.6663991,14.9207998 80.1863991,14.9207998 C79.8839991,14.9207998 79.5551991,15.0095998 79.1999991,15.1871998 L79.1999991,15.1871998 L79.1999991,13.5023998 L78.4151991,13.5023998 L78.4151991,18.5999997 L79.1999991,18.5999997 Z M82.778399,15.3023998 L83.325599,13.6103998 L82.504799,13.6103998 L82.180799,15.3023998 L82.778399,15.3023998 Z M84.023999,15.3023998 L84.571199,13.6103998 L83.750399,13.6103998 L83.426399,15.3023998 L84.023999,15.3023998 Z M88.185599,18.6791997 C88.838399,18.6791997 89.294399,18.5411998 89.553599,18.2651998 C89.812799,17.9891998 89.942399,17.5007998 89.942399,16.7999998 C89.942399,16.0991998 89.833199,15.6107998 89.614799,15.3347998 C89.396399,15.0587998 89.039999,14.9207998 88.545599,14.9207998 C88.276799,14.9207998 87.976799,14.9927998 87.645599,15.1367998 L87.645599,15.1367998 L87.645599,13.5023998 L86.867999,13.5023998 L86.867999,18.5927997 L87.112799,18.6143997 C87.602399,18.6575997 87.959999,18.6791997 88.185599,18.6791997 Z M88.185599,17.9807998 C88.089599,17.9807998 87.909599,17.9711998 87.645599,17.9519998 L87.645599,17.9519998 L87.645599,15.7631998 L87.760799,15.7271998 C87.991199,15.6551998 88.221599,15.6191998 88.451999,15.6191998 C88.696799,15.6191998 88.873199,15.7067998 88.981199,15.8819998 C89.089199,16.0571998 89.143199,16.3607998 89.143199,16.7927998 C89.143199,17.2247998 89.079599,17.5307998 88.952399,17.7107998 C88.825199,17.8907998 88.569599,17.9807998 88.185599,17.9807998 Z M92.0519989,18.6791997 C92.4743989,18.6791997 92.9591989,18.6239997 93.5063989,18.5135998 L93.5063989,18.5135998 L93.4919989,17.9303998 L93.2903989,17.9519998 C92.9303989,17.9807998 92.5799989,17.9951998 92.2391989,17.9951998 C91.8983989,17.9951998 91.6655989,17.9255998 91.5407989,17.7863998 C91.4159989,17.6471998 91.3511989,17.4287998 91.3463989,17.1311998 L91.3463989,17.1311998 L93.5783989,17.1311998 L93.6287989,16.5695998 C93.6287989,15.4703998 93.1247989,14.9207998 92.1167989,14.9207998 C91.0751989,14.9207998 90.554399,15.5591998 90.554399,16.8359998 C90.554399,17.4791998 90.6707989,17.9471998 90.9035989,18.2399998 C91.1363989,18.5327998 91.5191989,18.6791997 92.0519989,18.6791997 Z M92.8583989,16.5263998 L91.3391989,16.5263998 C91.3439989,16.1855998 91.4075989,15.9407998 91.5299989,15.7919998 C91.6523989,15.6431998 91.8479989,15.5687998 92.1167989,15.5687998 C92.3855989,15.5687998 92.5763989,15.6395998 92.6891989,15.7811998 C92.8019989,15.9227998 92.8583989,16.1711998 92.8583989,16.5263998 L92.8583989,16.5263998 Z M95.8247989,20.2703997 C96.9623989,20.2703997 97.5311989,19.8767997 97.5311989,19.0895997 C97.5311989,18.6767997 97.4255989,18.3959998 97.2143989,18.2471998 C97.0031989,18.0983998 96.6119989,18.0215998 96.0407989,18.0167998 C95.6999989,18.0119998 95.4851989,17.9927998 95.3963989,17.9591998 C95.3075989,17.9255998 95.2631989,17.8643998 95.2631989,17.7755998 C95.2631989,17.6867998 95.2967989,17.5607998 95.3639989,17.3975998 C95.4503989,17.4167998 95.5559989,17.4263998 95.6807989,17.4263998 C96.1847989,17.4263998 96.5555989,17.3363998 96.7931989,17.1563998 C97.0307989,16.9763998 97.1495989,16.6511998 97.1495989,16.1807998 C97.1495989,15.9551998 97.0847989,15.7583998 96.9551989,15.5903998 L96.9551989,15.5903998 L97.5527989,15.6263998 L97.5527989,14.9927998 L96.4367989,15.0215998 L96.3287989,14.9999998 C96.1223989,14.9519998 95.9135989,14.9279998 95.7023989,14.9279998 C95.2607989,14.9279998 94.9103989,15.0287998 94.6511989,15.2303998 C94.3919989,15.4319998 94.2623989,15.7487998 94.2623989,16.1807998 C94.2623989,16.6943998 94.4351989,17.0543998 94.7807989,17.2607998 L94.7807989,17.2607998 L94.7159989,17.3687998 C94.5863989,17.5847998 94.5215989,17.7407998 94.5215989,17.8367998 C94.5215989,18.0815998 94.6007989,18.2567998 94.7591989,18.3623998 C94.5671989,18.5111998 94.4279989,18.6491997 94.3415989,18.7763997 C94.2551989,18.9035997 94.2119989,19.0559997 94.2119989,19.2335997 C94.2119989,19.6271997 94.3439989,19.8983997 94.6079989,20.0471997 C94.8719989,20.1959997 95.2775989,20.2703997 95.8247989,20.2703997 Z M95.7095989,16.8215998 C95.4743989,16.8215998 95.3039989,16.7699998 95.1983989,16.6667998 C95.0927989,16.5635998 95.0399989,16.4015998 95.0399989,16.1807998 C95.0399989,15.7535998 95.2607989,15.5399998 95.7023989,15.5399998 C95.9375989,15.5399998 96.1079989,15.5915998 96.2135989,15.6947998 C96.3191989,15.7979998 96.3719989,15.9599998 96.3719989,16.1807998 C96.3719989,16.4015998 96.3203989,16.5635998 96.2171989,16.6667998 C96.1139989,16.7699998 95.9447989,16.8215998 95.7095989,16.8215998 Z M95.8751989,19.6295997 C95.5487989,19.6295997 95.3183989,19.5935997 95.1839989,19.5215997 C95.0495989,19.4495997 94.9823989,19.3295997 94.9823989,19.1615997 C94.9823989,19.0559997 95.0039989,18.9659997 95.0471989,18.8915997 C95.0903989,18.8171997 95.1647989,18.7367997 95.2703989,18.6503997 L95.2703989,18.6503997 L95.9759989,18.6935997 C96.2831989,18.6983997 96.4883989,18.7259997 96.5915989,18.7763997 C96.6947989,18.8267997 96.7463989,18.9455997 96.7463989,19.1327997 C96.7463989,19.4639997 96.4559989,19.6295997 95.8751989,19.6295997 Z M98.9495989,14.3879998 L98.9495989,13.5599998 L98.1647989,13.5599998 L98.1647989,14.3879998 L98.9495989,14.3879998 Z M98.9495989,18.5999997 L98.9495989,14.9999998 L98.1647989,14.9999998 L98.1647989,18.5999997 L98.9495989,18.5999997 Z M100.684799,18.5999997 L100.684799,15.8063998 L100.792799,15.7631998 C101.018399,15.6671998 101.253599,15.6191998 101.498399,15.6191998 C101.757599,15.6191998 101.929199,15.7007998 102.013199,15.8639998 C102.097199,16.0271998 102.139199,16.3031998 102.139199,16.6919998 L102.139199,16.6919998 L102.139199,18.5999997 L102.916799,18.5999997 L102.916799,16.6703998 C102.916799,16.0463998 102.829199,15.5987998 102.653999,15.3275998 C102.478799,15.0563998 102.151199,14.9207998 101.671199,14.9207998 C101.359199,14.9207998 101.027999,15.0215998 100.677599,15.2231998 L100.677599,15.2231998 L100.677599,14.9999998 L99.8999988,14.9999998 L99.8999988,18.5999997 L100.684799,18.5999997 Z M106.653599,17.0879998 L106.653599,16.8503998 C106.653599,16.7207998 106.693199,16.5995998 106.772399,16.4867998 C106.851599,16.3739998 107.013599,16.2215998 107.258399,16.0295998 C107.503199,15.8375998 107.665199,15.6575998 107.744399,15.4895998 C107.823599,15.3215998 107.863199,15.0767998 107.863199,14.7551998 C107.863199,14.3471998 107.744399,14.0507998 107.506799,13.8659998 C107.269199,13.6811998 106.898399,13.5887998 106.394399,13.5887998 C106.029599,13.5887998 105.623999,13.6679998 105.177599,13.8263998 L105.177599,13.8263998 L105.220799,14.4239998 L105.386399,14.3879998 C105.703199,14.3207998 106.005599,14.2871998 106.293599,14.2871998 C106.802399,14.2871998 107.056799,14.4623998 107.056799,14.8127998 C107.056799,14.9903998 107.018399,15.1331998 106.941599,15.2411998 C106.864799,15.3491998 106.708799,15.5003998 106.473599,15.6947998 C106.238399,15.8891998 106.075199,16.0463998 105.983999,16.1663998 C105.892799,16.2863998 105.847199,16.4063998 105.847199,16.5263998 C105.847199,16.7519998 105.904799,16.9391998 106.019999,17.0879998 L106.019999,17.0879998 L106.653599,17.0879998 Z M106.732799,18.5999997 L106.732799,17.5919998 L105.897599,17.5919998 L105.897599,18.5999997 L106.732799,18.5999997 Z" id="Howsoonwillthe“high”begin?" fill="#1E334C" fill-rule="nonzero"></path>
                </g>
            </g>
        </g>
    </g>
</svg>