<?xml version="1.0" encoding="UTF-8"?>
<svg width="362px" height="155px" viewBox="0 0 362 155" version="1.1" xmlns="http://www.w3.org/2000/svg" xmlns:xlink="http://www.w3.org/1999/xlink">
    <title>Group 3</title>
    <defs>
        <rect id="path-1" x="0" y="0" width="290" height="80.9999979" rx="13.4999996"></rect>
        <filter x="-21.7%" y="-55.6%" width="143.4%" height="255.6%" filterUnits="objectBoundingBox" id="filter-2">
            <feOffset dx="0" dy="18" in="SourceAlpha" result="shadowOffsetOuter1"></feOffset>
            <feGaussianBlur stdDeviation="18" in="shadowOffsetOuter1" result="shadowBlurOuter1"></feGaussianBlur>
            <feColorMatrix values="0 0 0 0 0   0 0 0 0 0   0 0 0 0 0  0 0 0 0.101398601 0" type="matrix" in="shadowBlurOuter1"></feColorMatrix>
        </filter>
    </defs>
    <g id="Page-1" stroke="none" stroke-width="1" fill="none" fill-rule="evenodd">
        <g id="Home-Page" transform="translate(-1178.000000, -1275.000000)">
            <g id="Group-41" transform="translate(275.000000, 980.000000)">
                <g id="Group-39" transform="translate(0.000000, 273.000000)">
                    <g id="Group-4" transform="translate(422.000000, 0.000000)">
                        <g id="Group-32" transform="translate(411.000000, 40.499999)">
                            <g id="Group-3" transform="translate(106.000000, 0.500001)">
                                <g id="Rectangle">
                                    <use fill="black" fill-opacity="1" filter="url(#filter-2)" xlink:href="#path-1"></use>
                                    <use fill="#EECB6B" fill-rule="evenodd" xlink:href="#path-1"></use>
                                </g>
                                <path d="M25.9199993,46.9999986 L25.9199993,41.6719987 L31.2479992,41.6719987 L31.2479992,46.9999986 L33.2639991,46.9999986 L33.2639991,34.6699989 L31.2479992,34.6699989 L31.2479992,39.9259988 L25.9199993,39.9259988 L25.9199993,34.6699989 L23.9219994,34.6699989 L23.9219994,46.9999986 L25.9199993,46.9999986 Z M39.329999,47.1979986 C40.8059989,47.1979986 41.8439989,46.8019988 42.4439989,46.0099986 C43.0439989,45.2179986 43.3439989,44.0419986 43.3439989,42.4819987 C43.3439989,40.9219987 43.0349989,39.7519988 42.4169989,38.9719988 C41.7989989,38.1919988 40.7699989,37.8019988 39.329999,37.8019988 C37.889999,37.8019988 36.857999,38.1919988 36.233999,38.9719988 C35.6219991,39.7519988 35.3159991,40.9219987 35.3159991,42.4819987 C35.3159991,44.0419986 35.6159991,45.2179986 36.215999,46.0099986 C36.8159991,46.8019988 37.853999,47.1979986 39.329999,47.1979986 Z M39.329999,45.5419986 C38.525999,45.5419986 37.985999,45.3019986 37.709999,44.8219986 C37.433999,44.3419986 37.295999,43.5559987 37.295999,42.4639987 C37.295999,41.3719987 37.442999,40.5979987 37.736999,40.1419988 C38.030999,39.6859988 38.561999,39.4579988 39.329999,39.4579988 C40.0979989,39.4579988 40.6289989,39.6859988 40.9229989,40.1419988 C41.2169989,40.5979987 41.3639989,41.3719987 41.3639989,42.4639987 C41.3639989,43.5559987 41.2259989,44.3419986 40.9499989,44.8219986 C40.6739989,45.3019986 40.1339989,45.5419986 39.329999,45.5419986 Z M49.6079987,46.9999988 L51.0119986,40.8259987 L52.4159986,46.9999988 L55.5299985,46.9999988 L57.4379985,37.9999988 L55.4939985,37.9999988 L54.0899986,45.3259986 L53.7299986,45.3259986 L52.0199986,38.1799988 L50.0039987,38.1799988 L48.2939987,45.3259986 L47.9339987,45.3259986 L46.5119988,37.9999988 L44.5859988,37.9999988 L46.4939988,46.9999988 L49.6079987,46.9999988 Z M66.0599983,47.1979986 C67.2239982,47.1979986 68.1089982,46.9759986 68.7149982,46.5319986 C69.3209982,46.0879986 69.6239982,45.3919986 69.6239982,44.4439986 C69.6239982,43.4959987 69.4139982,42.8359987 68.9939982,42.4639987 C68.5739982,42.0919987 67.8629982,41.8189987 66.8609982,41.6449987 C65.8589983,41.4709987 65.2229983,41.3179987 64.9529983,41.1859987 C64.6829983,41.0539987 64.5479983,40.8259987 64.5479983,40.5019987 C64.5479983,40.1779988 64.6709983,39.9409988 64.9169983,39.7909988 C65.1629983,39.6409988 65.6039983,39.5659988 66.2399982,39.5659988 C66.8759982,39.5659988 67.9019982,39.6619988 69.3179982,39.8539988 L69.3179982,39.8539988 L69.3539982,38.2159988 L68.7959982,38.1079988 C67.6799982,37.9159988 66.7379982,37.8199988 65.9699983,37.8199988 C64.9859983,37.8199988 64.1789983,38.0479988 63.5489983,38.5039988 C62.9189983,38.9599988 62.6039983,39.6499988 62.6039983,40.5739987 C62.6039983,41.4979987 62.8319983,42.1339987 63.2879983,42.4819987 C63.7439983,42.8299987 64.4609983,43.0849987 65.4389983,43.2469987 C66.4169982,43.4089987 67.0349982,43.5589987 67.2929982,43.6969987 C67.5509982,43.8349987 67.6799982,44.0839986 67.6799982,44.4439986 C67.6799982,44.8039986 67.5449982,45.0619986 67.2749982,45.2179986 C67.0049982,45.3739986 66.5519982,45.4519986 65.9159983,45.4519986 C65.2799983,45.4519986 64.2419983,45.3559986 62.8019983,45.1639986 L62.8019983,45.1639986 L62.7299983,46.8019986 L63.2879983,46.8919986 C64.4039983,47.0959986 65.3279983,47.1979986 66.0599983,47.1979986 Z M75.095998,47.1979986 C76.571998,47.1979986 77.6099979,46.8019988 78.2099979,46.0099986 C78.8099979,45.2179986 79.1099979,44.0419986 79.1099979,42.4819987 C79.1099979,40.9219987 78.8009979,39.7519988 78.1829979,38.9719988 C77.5649979,38.1919988 76.535998,37.8019988 75.095998,37.8019988 C73.655998,37.8019988 72.6239981,38.1919988 71.9999981,38.9719988 C71.3879981,39.7519988 71.0819981,40.9219987 71.0819981,42.4819987 C71.0819981,44.0419986 71.3819981,45.2179986 71.9819981,46.0099986 C72.5819981,46.8019988 73.619998,47.1979986 75.095998,47.1979986 Z M75.095998,45.5419986 C74.291998,45.5419986 73.751998,45.3019986 73.4759981,44.8219986 C73.1999981,44.3419986 73.0619981,43.5559987 73.0619981,42.4639987 C73.0619981,41.3719987 73.2089981,40.5979987 73.5029981,40.1419988 C73.796998,39.6859988 74.327998,39.4579988 75.095998,39.4579988 C75.863998,39.4579988 76.394998,39.6859988 76.688998,40.1419988 C76.982998,40.5979987 77.129998,41.3719987 77.129998,42.4639987 C77.129998,43.5559987 76.991998,44.3419986 76.715998,44.8219986 C76.439998,45.3019986 75.899998,45.5419986 75.095998,45.5419986 Z M84.6359978,47.1979986 C86.1119977,47.1979986 87.1499977,46.8019988 87.7499977,46.0099986 C88.3499977,45.2179986 88.6499977,44.0419986 88.6499977,42.4819987 C88.6499977,40.9219987 88.3409977,39.7519988 87.7229977,38.9719988 C87.1049977,38.1919988 86.0759977,37.8019988 84.6359978,37.8019988 C83.1959978,37.8019988 82.1639978,38.1919988 81.5399978,38.9719988 C80.9279979,39.7519988 80.6219979,40.9219987 80.6219979,42.4819987 C80.6219979,44.0419986 80.9219979,45.2179986 81.5219978,46.0099986 C82.1219979,46.8019988 83.1599978,47.1979986 84.6359978,47.1979986 Z M84.6359978,45.5419986 C83.8319978,45.5419986 83.2919978,45.3019986 83.0159978,44.8219986 C82.7399978,44.3419986 82.6019978,43.5559987 82.6019978,42.4639987 C82.6019978,41.3719987 82.7489978,40.5979987 83.0429978,40.1419988 C83.3369978,39.6859988 83.8679978,39.4579988 84.6359978,39.4579988 C85.4039977,39.4579988 85.9349977,39.6859988 86.2289977,40.1419988 C86.5229977,40.5979987 86.6699977,41.3719987 86.6699977,42.4639987 C86.6699977,43.5559987 86.5319977,44.3419986 86.2559977,44.8219986 C85.9799977,45.3019986 85.4399977,45.5419986 84.6359978,45.5419986 Z M92.5559975,46.9999986 L92.5559975,40.0159988 L92.8259975,39.9079988 C93.3899975,39.6679988 93.9779975,39.5479988 94.5899975,39.5479988 C95.2379975,39.5479988 95.6669975,39.7519988 95.8769975,40.1599988 C96.0869975,40.5679987 96.1919975,41.2579987 96.1919975,42.2299987 L96.1919975,42.2299987 L96.1919975,46.9999986 L98.1359974,46.9999986 L98.1359974,42.1759987 C98.1359974,40.6159987 97.9169974,39.4969988 97.4789974,38.8189988 C97.0409974,38.1409988 96.2219975,37.8019988 95.0219975,37.8019988 C94.2419975,37.8019988 93.4139975,38.0539988 92.5379975,38.5579988 L92.5379975,38.5579988 L92.5379975,37.9999988 L90.5939976,37.9999988 L90.5939976,46.9999986 L92.5559975,46.9999986 Z M108.701997,46.9999988 L110.105997,40.8259987 L111.509997,46.9999988 L114.623997,46.9999988 L116.531997,37.9999988 L114.587997,37.9999988 L113.183997,45.3259986 L112.823997,45.3259986 L111.113997,38.1799988 L109.097997,38.1799988 L107.387997,45.3259986 L107.027997,45.3259986 L105.605997,37.9999988 L103.679997,37.9999988 L105.587997,46.9999988 L108.701997,46.9999988 Z M120.167997,36.4699988 L120.167997,34.3999989 L118.205997,34.3999989 L118.205997,36.4699988 L120.167997,36.4699988 Z M120.167997,46.9999988 L120.167997,37.9999988 L118.205997,37.9999988 L118.205997,46.9999988 L120.167997,46.9999988 Z M124.613997,46.9999986 L124.613997,34.2559989 L122.651997,34.2559989 L122.651997,46.9999986 L124.613997,46.9999986 Z M129.167997,46.9999986 L129.167997,34.2559989 L127.205997,34.2559989 L127.205997,46.9999986 L129.167997,46.9999986 Z M138.689996,47.1979986 C139.109996,47.1979986 139.721996,47.1199986 140.525996,46.9639986 L140.525996,46.9639986 L140.435996,45.3979986 L138.959996,45.4519986 C138.515996,45.4519986 138.239996,45.3319986 138.131996,45.0919986 C138.023996,44.8519986 137.969996,44.3659986 137.969996,43.6339987 L137.969996,43.6339987 L137.969996,39.6739988 L140.453996,39.6739988 L140.453996,37.9999988 L137.969996,37.9999988 L137.969996,35.3899989 L136.025996,35.3899989 L136.025996,37.9999988 L134.873996,37.9999988 L134.873996,39.6739988 L136.025996,39.6739988 L136.025996,43.8499987 C136.025996,45.1459986 136.214996,46.0279986 136.592996,46.4959986 C136.970996,46.9639986 137.669996,47.1979986 138.689996,47.1979986 Z M144.017996,46.9999986 L144.017996,39.9439988 L144.305996,39.8359988 C144.881996,39.6439988 145.457996,39.5479988 146.033996,39.5479988 C146.693996,39.5479988 147.125996,39.7519988 147.329996,40.1599988 C147.533996,40.5679987 147.635996,41.2579987 147.635996,42.2299987 L147.635996,42.2299987 L147.635996,46.9999986 L149.597996,46.9999986 L149.597996,42.1759987 C149.597996,40.6159987 149.378996,39.4969988 148.940996,38.8189988 C148.502996,38.1409988 147.683996,37.8019988 146.483996,37.8019988 C145.727996,37.8019988 144.905996,38.0239988 144.017996,38.4679988 L144.017996,38.4679988 L144.017996,34.2559989 L142.055996,34.2559989 L142.055996,46.9999986 L144.017996,46.9999986 Z M155.195996,47.1979986 C156.251996,47.1979986 157.463996,47.0599986 158.831996,46.7839986 L158.831996,46.7839986 L158.795996,45.3259986 L158.291996,45.3799986 C157.391996,45.4519986 156.515996,45.4879986 155.663996,45.4879986 C154.811996,45.4879986 154.229996,45.3139986 153.917996,44.9659986 C153.605996,44.6179986 153.443996,44.0719986 153.431996,43.3279987 L153.431996,43.3279987 L159.011996,43.3279987 L159.137996,41.9239987 C159.137996,39.1759988 157.877996,37.8019988 155.357996,37.8019988 C152.753996,37.8019988 151.451996,39.3979988 151.451996,42.5899987 C151.451996,44.1979986 151.742996,45.3679986 152.324996,46.0999986 C152.906996,46.8319986 153.863996,47.1979986 155.195996,47.1979986 Z M157.211996,41.8159987 L153.413996,41.8159987 C153.425996,40.9639987 153.584996,40.3519987 153.890996,39.9799988 C154.196996,39.6079988 154.685996,39.4219988 155.357996,39.4219988 C156.029996,39.4219988 156.506996,39.5989988 156.788996,39.9529988 C157.070996,40.3069987 157.211996,40.9279987 157.211996,41.8159987 L157.211996,41.8159987 Z M169.685996,38.7919988 L170.495995,34.5619989 L169.001996,34.5619989 L167.633996,38.7919988 L169.685996,38.7919988 Z M166.607996,38.7919988 L167.417996,34.5619989 L165.923996,34.5619989 L164.555996,38.7919988 L166.607996,38.7919988 Z M174.383995,46.9999986 L174.383995,39.9439988 L174.671995,39.8359988 C175.247995,39.6439988 175.823995,39.5479988 176.399995,39.5479988 C177.059995,39.5479988 177.491995,39.7519988 177.695995,40.1599988 C177.899995,40.5679987 178.001995,41.2579987 178.001995,42.2299987 L178.001995,42.2299987 L178.001995,46.9999986 L179.963995,46.9999986 L179.963995,42.1759987 C179.963995,40.6159987 179.744995,39.4969988 179.306995,38.8189988 C178.868995,38.1409988 178.049995,37.8019988 176.849995,37.8019988 C176.093995,37.8019988 175.271995,38.0239988 174.383995,38.4679988 L174.383995,38.4679988 L174.383995,34.2559989 L172.421995,34.2559989 L172.421995,46.9999986 L174.383995,46.9999986 Z M184.211995,36.4699988 L184.211995,34.3999989 L182.249995,34.3999989 L182.249995,36.4699988 L184.211995,36.4699988 Z M184.211995,46.9999988 L184.211995,37.9999988 L182.249995,37.9999988 L182.249995,46.9999988 L184.211995,46.9999988 Z M190.187995,51.1759985 C193.031995,51.1759985 194.453995,50.1919985 194.453995,48.2239985 C194.453995,47.1919986 194.189995,46.4899986 193.661995,46.1179986 C193.133995,45.7459986 192.155995,45.5539986 190.727995,45.5419986 C189.875995,45.5299986 189.338995,45.4819986 189.116995,45.3979986 C188.894995,45.3139986 188.783995,45.1609986 188.783995,44.9389986 C188.783995,44.7169986 188.867995,44.4019986 189.035995,43.9939986 C189.251995,44.0419986 189.515995,44.0659986 189.827995,44.0659986 C191.087995,44.0659986 192.014995,43.8409987 192.608995,43.3909987 C193.202995,42.9409987 193.499995,42.1279987 193.499995,40.9519987 C193.499995,40.3879987 193.337995,39.8959988 193.013995,39.4759988 L193.013995,39.4759988 L194.507995,39.5659988 L194.507995,37.9819988 L191.717995,38.0539988 L191.447995,37.9999988 C190.931995,37.8799988 190.409995,37.8199988 189.881995,37.8199988 C188.777995,37.8199988 187.901995,38.0719988 187.253995,38.5759988 C186.605995,39.0799988 186.281995,39.8719988 186.281995,40.9519987 C186.281995,42.2359987 186.713995,43.1359987 187.577995,43.6519987 L187.577995,43.6519987 L187.415995,43.9219987 C187.091995,44.4619986 186.929995,44.8519986 186.929995,45.0919986 C186.929995,45.7039986 187.127995,46.1419986 187.523995,46.4059986 C187.043995,46.7779986 186.695995,47.1229986 186.479995,47.4409986 C186.263995,47.7589985 186.155995,48.1399985 186.155995,48.5839985 C186.155995,49.5679985 186.485995,50.2459985 187.145995,50.6179985 C187.805995,50.9899985 188.819995,51.1759985 190.187995,51.1759985 Z M189.899995,42.5539987 C189.311995,42.5539987 188.885995,42.4249987 188.621995,42.1669987 C188.357995,41.9089987 188.225995,41.5039987 188.225995,40.9519987 C188.225995,39.8839988 188.777995,39.3499988 189.881995,39.3499988 C190.469995,39.3499988 190.895995,39.4789988 191.159995,39.7369988 C191.423995,39.9949988 191.555995,40.3999987 191.555995,40.9519987 C191.555995,41.5039987 191.426995,41.9089987 191.168995,42.1669987 C190.910995,42.4249987 190.487995,42.5539987 189.899995,42.5539987 Z M190.313995,49.5739985 C189.497995,49.5739985 188.921995,49.4839985 188.585995,49.3039985 C188.249995,49.1239985 188.081995,48.8239985 188.081995,48.4039985 C188.081995,48.1399985 188.135995,47.9149985 188.243995,47.7289986 C188.351995,47.5429986 188.537995,47.3419986 188.801995,47.1259986 L188.801995,47.1259986 L190.565995,47.2339986 C191.333995,47.2459986 191.846995,47.3149986 192.104995,47.4409986 C192.362995,47.5669986 192.491995,47.8639985 192.491995,48.3319985 C192.491995,49.1599985 191.765995,49.5739985 190.313995,49.5739985 Z M197.999995,46.9999986 L197.999995,39.9439988 L198.287995,39.8359988 C198.863995,39.6439988 199.439995,39.5479988 200.015995,39.5479988 C200.675995,39.5479988 201.107995,39.7519988 201.311995,40.1599988 C201.515995,40.5679987 201.617995,41.2579987 201.617995,42.2299987 L201.617995,42.2299987 L201.617995,46.9999986 L203.579995,46.9999986 L203.579995,42.1759987 C203.579995,40.6159987 203.360995,39.4969988 202.922995,38.8189988 C202.484995,38.1409988 201.665995,37.8019988 200.465995,37.8019988 C199.709995,37.8019988 198.887995,38.0239988 197.999995,38.4679988 L197.999995,38.4679988 L197.999995,34.2559989 L196.037995,34.2559989 L196.037995,46.9999986 L197.999995,46.9999986 Z M206.945995,38.7559988 L208.313994,34.5259989 L206.261995,34.5259989 L205.451995,38.7559988 L206.945995,38.7559988 Z M210.059994,38.7559988 L211.427994,34.5259989 L209.375994,34.5259989 L208.565994,38.7559988 L210.059994,38.7559988 Z M220.463994,47.1979986 C222.095994,47.1979986 223.235994,46.8529986 223.883994,46.1629986 C224.531994,45.4729986 224.855994,44.2519986 224.855994,42.4999987 C224.855994,40.7479987 224.582994,39.5269988 224.036994,38.8369988 C223.490994,38.1469988 222.599994,37.8019988 221.363994,37.8019988 C220.691994,37.8019988 219.941994,37.9819988 219.113994,38.3419988 L219.113994,38.3419988 L219.113994,34.2559989 L217.169994,34.2559989 L217.169994,46.9819986 L217.781994,47.0359986 C219.005994,47.1439986 219.899994,47.1979986 220.463994,47.1979986 Z M220.463994,45.4519986 C220.223994,45.4519986 219.773994,45.4279986 219.113994,45.3799986 L219.113994,45.3799986 L219.113994,39.9079988 L219.401994,39.8179988 C219.977994,39.6379988 220.553994,39.5479988 221.129994,39.5479988 C221.741994,39.5479988 222.182994,39.7669988 222.452994,40.2049987 C222.722994,40.6429987 222.857994,41.4019987 222.857994,42.4819987 C222.857994,43.5619987 222.698994,44.3269986 222.380994,44.7769986 C222.062994,45.2269986 221.423994,45.4519986 220.463994,45.4519986 Z M230.129994,47.1979986 C231.185994,47.1979986 232.397994,47.0599986 233.765994,46.7839986 L233.765994,46.7839986 L233.729994,45.3259986 L233.225994,45.3799986 C232.325994,45.4519986 231.449994,45.4879986 230.597994,45.4879986 C229.745994,45.4879986 229.163994,45.3139986 228.851994,44.9659986 C228.539994,44.6179986 228.377994,44.0719986 228.365994,43.3279987 L228.365994,43.3279987 L233.945994,43.3279987 L234.071994,41.9239987 C234.071994,39.1759988 232.811994,37.8019988 230.291994,37.8019988 C227.687994,37.8019988 226.385994,39.3979988 226.385994,42.5899987 C226.385994,44.1979986 226.676994,45.3679986 227.258994,46.0999986 C227.840994,46.8319986 228.797994,47.1979986 230.129994,47.1979986 Z M232.145994,41.8159987 L228.347994,41.8159987 C228.359994,40.9639987 228.518994,40.3519987 228.824994,39.9799988 C229.130994,39.6079988 229.619994,39.4219988 230.291994,39.4219988 C230.963994,39.4219988 231.440994,39.5989988 231.722994,39.9529988 C232.004994,40.3069987 232.145994,40.9279987 232.145994,41.8159987 L232.145994,41.8159987 Z M239.561994,51.1759985 C242.405994,51.1759985 243.827994,50.1919985 243.827994,48.2239985 C243.827994,47.1919986 243.563994,46.4899986 243.035994,46.1179986 C242.507994,45.7459986 241.529994,45.5539986 240.101994,45.5419986 C239.249994,45.5299986 238.712994,45.4819986 238.490994,45.3979986 C238.268994,45.3139986 238.157994,45.1609986 238.157994,44.9389986 C238.157994,44.7169986 238.241994,44.4019986 238.409994,43.9939986 C238.625994,44.0419986 238.889994,44.0659986 239.201994,44.0659986 C240.461994,44.0659986 241.388994,43.8409987 241.982994,43.3909987 C242.576994,42.9409987 242.873994,42.1279987 242.873994,40.9519987 C242.873994,40.3879987 242.711994,39.8959988 242.387994,39.4759988 L242.387994,39.4759988 L243.881994,39.5659988 L243.881994,37.9819988 L241.091994,38.0539988 L240.821994,37.9999988 C240.305994,37.8799988 239.783994,37.8199988 239.255994,37.8199988 C238.151994,37.8199988 237.275994,38.0719988 236.627994,38.5759988 C235.979994,39.0799988 235.655994,39.8719988 235.655994,40.9519987 C235.655994,42.2359987 236.087994,43.1359987 236.951994,43.6519987 L236.951994,43.6519987 L236.789994,43.9219987 C236.465994,44.4619986 236.303994,44.8519986 236.303994,45.0919986 C236.303994,45.7039986 236.501994,46.1419986 236.897994,46.4059986 C236.417994,46.7779986 236.069994,47.1229986 235.853994,47.4409986 C235.637994,47.7589985 235.529994,48.1399985 235.529994,48.5839985 C235.529994,49.5679985 235.859994,50.2459985 236.519994,50.6179985 C237.179994,50.9899985 238.193994,51.1759985 239.561994,51.1759985 Z M239.273994,42.5539987 C238.685994,42.5539987 238.259994,42.4249987 237.995994,42.1669987 C237.731994,41.9089987 237.599994,41.5039987 237.599994,40.9519987 C237.599994,39.8839988 238.151994,39.3499988 239.255994,39.3499988 C239.843994,39.3499988 240.269994,39.4789988 240.533994,39.7369988 C240.797994,39.9949988 240.929994,40.3999987 240.929994,40.9519987 C240.929994,41.5039987 240.800994,41.9089987 240.542994,42.1669987 C240.284994,42.4249987 239.861994,42.5539987 239.273994,42.5539987 Z M239.687994,49.5739985 C238.871994,49.5739985 238.295994,49.4839985 237.959994,49.3039985 C237.623994,49.1239985 237.455994,48.8239985 237.455994,48.4039985 C237.455994,48.1399985 237.509994,47.9149985 237.617994,47.7289986 C237.725994,47.5429986 237.911994,47.3419986 238.175994,47.1259986 L238.175994,47.1259986 L239.939994,47.2339986 C240.707994,47.2459986 241.220994,47.3149986 241.478994,47.4409986 C241.736994,47.5669986 241.865994,47.8639985 241.865994,48.3319985 C241.865994,49.1599985 241.139994,49.5739985 239.687994,49.5739985 Z M247.373993,36.4699988 L247.373993,34.3999989 L245.411993,34.3999989 L245.411993,36.4699988 L247.373993,36.4699988 Z M247.373993,46.9999988 L247.373993,37.9999988 L245.411993,37.9999988 L245.411993,46.9999988 L247.373993,46.9999988 Z M251.711993,46.9999986 L251.711993,40.0159988 L251.981993,39.9079988 C252.545993,39.6679988 253.133993,39.5479988 253.745993,39.5479988 C254.393993,39.5479988 254.822993,39.7519988 255.032993,40.1599988 C255.242993,40.5679987 255.347993,41.2579987 255.347993,42.2299987 L255.347993,42.2299987 L255.347993,46.9999986 L257.291993,46.9999986 L257.291993,42.1759987 C257.291993,40.6159987 257.072993,39.4969988 256.634993,38.8189988 C256.196993,38.1409988 255.377993,37.8019988 254.177993,37.8019988 C253.397993,37.8019988 252.569993,38.0539988 251.693993,38.5579988 L251.693993,38.5579988 L251.693993,37.9999988 L249.749993,37.9999988 L249.749993,46.9999986 L251.711993,46.9999986 Z M266.633993,43.2199987 L266.633993,42.6259987 C266.633993,42.3019987 266.732993,41.9989987 266.930993,41.7169987 C267.128993,41.4349987 267.533993,41.0539987 268.145993,40.5739987 C268.757993,40.0939988 269.162993,39.6439988 269.360993,39.2239988 C269.558993,38.8039988 269.657993,38.1919988 269.657993,37.3879988 C269.657993,36.3679989 269.360993,35.6269989 268.766993,35.1649989 C268.172993,34.7029989 267.245993,34.4719989 265.985993,34.4719989 C265.073993,34.4719989 264.059993,34.6699989 262.943993,35.0659989 L262.943993,35.0659989 L263.051993,36.5599988 L263.465993,36.4699988 C264.257993,36.3019989 265.013993,36.2179989 265.733993,36.2179989 C267.005993,36.2179989 267.641993,36.6559988 267.641993,37.5319988 C267.641993,37.9759988 267.545993,38.3329988 267.353993,38.6029988 C267.161993,38.8729988 266.771993,39.2509988 266.183993,39.7369988 L265.99466,39.8955543 C265.507549,40.3091839 265.16266,40.6493321 264.959993,40.9159987 C264.731993,41.2159987 264.617993,41.5159987 264.617993,41.8159987 C264.617993,42.3799987 264.761993,42.8479987 265.049993,43.2199987 L265.049993,43.2199987 L266.633993,43.2199987 Z M266.831993,46.9999986 L266.831993,44.4799986 L264.743993,44.4799986 L264.743993,46.9999986 L266.831993,46.9999986 Z" id="Howsoonwillthe“high”begin?" fill="#1E334C" fill-rule="nonzero"></path>
                            </g>
                        </g>
                    </g>
                </g>
            </g>
        </g>
    </g>
</svg>