<?xml version="1.0" encoding="UTF-8"?>
<svg width="356px" height="155px" viewBox="0 0 356 155" version="1.1" xmlns="http://www.w3.org/2000/svg" xmlns:xlink="http://www.w3.org/1999/xlink">
    <title>Group 3 Copy 2</title>
    <defs>
        <rect id="path-1" x="0" y="0" width="284" height="80.9999979" rx="13.4999996"></rect>
        <filter x="-22.2%" y="-55.6%" width="144.4%" height="255.6%" filterUnits="objectBoundingBox" id="filter-2">
            <feOffset dx="0" dy="18" in="SourceAlpha" result="shadowOffsetOuter1"></feOffset>
            <feGaussianBlur stdDeviation="18" in="shadowOffsetOuter1" result="shadowBlurOuter1"></feGaussianBlur>
            <feColorMatrix values="0 0 0 0 0   0 0 0 0 0   0 0 0 0 0  0 0 0 0.101398601 0" type="matrix" in="shadowBlurOuter1"></feColorMatrix>
        </filter>
    </defs>
    <g id="Page-1" stroke="none" stroke-width="1" fill="none" fill-rule="evenodd">
        <g id="Home-Page" transform="translate(-1209.000000, -1535.000000)">
            <g id="Group-41" transform="translate(275.000000, 980.000000)">
                <g id="Group-39" transform="translate(0.000000, 273.000000)">
                    <g id="Group-4" transform="translate(422.000000, 0.000000)">
                        <g id="Group-32" transform="translate(411.000000, 40.499999)">
                            <g id="Group-3-Copy-2" transform="translate(137.000000, 260.500001)">
                                <g id="Rectangle">
                                    <use fill="black" fill-opacity="1" filter="url(#filter-2)" xlink:href="#path-1"></use>
                                    <use fill="#EECB6B" fill-rule="evenodd" xlink:href="#path-1"></use>
                                </g>
                                <path d="M29.4199999,46.9999993 L29.4199999,41.6719994 L34.7479998,41.6719994 L34.7479998,46.9999993 L36.7639997,46.9999993 L36.7639997,34.6699996 L34.7479998,34.6699996 L34.7479998,39.9259995 L29.4199999,39.9259995 L29.4199999,34.6699996 L27.422,34.6699996 L27.422,46.9999993 L29.4199999,46.9999993 Z M42.8299996,47.1979993 C44.3059995,47.1979993 45.3439995,46.8019995 45.9439995,46.0099993 C46.5439995,45.2179993 46.8439994,44.0419994 46.8439994,42.4819994 C46.8439994,40.9219994 46.5349995,39.7519995 45.9169995,38.9719995 C45.2989995,38.1919995 44.2699995,37.8019995 42.8299996,37.8019995 C41.3899996,37.8019995 40.3579996,38.1919995 39.7339996,38.9719995 C39.1219997,39.7519995 38.8159997,40.9219994 38.8159997,42.4819994 C38.8159997,44.0419994 39.1159997,45.2179993 39.7159996,46.0099993 C40.3159997,46.8019995 41.3539996,47.1979993 42.8299996,47.1979993 Z M42.8299996,45.5419993 C42.0259996,45.5419993 41.4859996,45.3019993 41.2099996,44.8219993 C40.9339996,44.3419994 40.7959996,43.5559994 40.7959996,42.4639994 C40.7959996,41.3719994 40.9429996,40.5979995 41.2369996,40.1419995 C41.5309996,39.6859995 42.0619996,39.4579995 42.8299996,39.4579995 C43.5979995,39.4579995 44.1289995,39.6859995 44.4229995,40.1419995 C44.7169995,40.5979995 44.8639995,41.3719994 44.8639995,42.4639994 C44.8639995,43.5559994 44.7259995,44.3419994 44.4499995,44.8219993 C44.1739995,45.3019993 43.6339995,45.5419993 42.8299996,45.5419993 Z M53.1079993,46.9999995 L54.5119992,40.8259994 L55.9159992,46.9999995 L59.0299991,46.9999995 L60.9379991,37.9999995 L58.9939991,37.9999995 L57.5899992,45.3259993 L57.2299992,45.3259993 L55.5199992,38.1799995 L53.5039993,38.1799995 L51.7939993,45.3259993 L51.4339993,45.3259993 L50.0119994,37.9999995 L48.0859994,37.9999995 L49.9939994,46.9999995 L53.1079993,46.9999995 Z M68.6419989,46.9999993 L68.6419989,34.2559996 L66.6799989,34.2559996 L66.6799989,46.9999993 L68.6419989,46.9999993 Z M74.7079987,47.1979993 C76.1839987,47.1979993 77.2219986,46.8019995 77.8219986,46.0099993 C78.4219986,45.2179993 78.7219986,44.0419994 78.7219986,42.4819994 C78.7219986,40.9219994 78.4129986,39.7519995 77.7949986,38.9719995 C77.1769986,38.1919995 76.1479987,37.8019995 74.7079987,37.8019995 C73.2679987,37.8019995 72.2359988,38.1919995 71.6119988,38.9719995 C70.9999988,39.7519995 70.6939988,40.9219994 70.6939988,42.4819994 C70.6939988,44.0419994 70.9939988,45.2179993 71.5939988,46.0099993 C72.1939988,46.8019995 73.2319987,47.1979993 74.7079987,47.1979993 Z M74.7079987,45.5419993 C73.9039987,45.5419993 73.3639987,45.3019993 73.0879988,44.8219993 C72.8119988,44.3419994 72.6739988,43.5559994 72.6739988,42.4639994 C72.6739988,41.3719994 72.8209988,40.5979995 73.1149988,40.1419995 C73.4089987,39.6859995 73.9399987,39.4579995 74.7079987,39.4579995 C75.4759987,39.4579995 76.0069987,39.6859995 76.3009987,40.1419995 C76.5949987,40.5979995 76.7419987,41.3719994 76.7419987,42.4639994 C76.7419987,43.5559994 76.6039987,44.3419994 76.3279987,44.8219993 C76.0519987,45.3019993 75.5119987,45.5419993 74.7079987,45.5419993 Z M82.6279985,46.9999993 L82.6279985,40.0159995 L82.8979985,39.9079995 C83.4619985,39.6679995 84.0499985,39.5479995 84.6619984,39.5479995 C85.3099984,39.5479995 85.7389984,39.7519995 85.9489984,40.1599995 C86.1589984,40.5679995 86.2639984,41.2579994 86.2639984,42.2299994 L86.2639984,42.2299994 L86.2639984,46.9999993 L88.2079984,46.9999993 L88.2079984,42.1759994 C88.2079984,40.6159995 87.9889984,39.4969995 87.5509984,38.8189995 C87.1129984,38.1409995 86.2939984,37.8019995 85.0939984,37.8019995 C84.3139985,37.8019995 83.4859985,38.0539995 82.6099985,38.5579995 L82.6099985,38.5579995 L82.6099985,37.9999995 L80.6659986,37.9999995 L80.6659986,46.9999993 L82.6279985,46.9999993 Z M94.0939982,51.1759992 C96.9379981,51.1759992 98.3599981,50.1919992 98.3599981,48.2239993 C98.3599981,47.1919993 98.0959981,46.4899993 97.5679981,46.1179993 C97.0399981,45.7459993 96.0619983,45.5539993 94.6339982,45.5419993 C93.7819982,45.5299993 93.2449982,45.4819993 93.0229982,45.3979993 C92.8009982,45.3139993 92.6899982,45.1609993 92.6899982,44.9389993 C92.6899982,44.7169993 92.7739982,44.4019994 92.9419982,43.9939994 C93.1579982,44.0419994 93.4219982,44.0659994 93.7339982,44.0659994 C94.9939982,44.0659994 95.9209981,43.8409994 96.5149981,43.3909994 C97.1089981,42.9409994 97.4059981,42.1279994 97.4059981,40.9519994 C97.4059981,40.3879995 97.2439981,39.8959995 96.9199981,39.4759995 L96.9199981,39.4759995 L98.4139981,39.5659995 L98.4139981,37.9819995 L95.6239982,38.0539995 L95.3539982,37.9999995 C94.8379982,37.8799995 94.3159982,37.8199995 93.7879982,37.8199995 C92.6839982,37.8199995 91.8079983,38.0719995 91.1599983,38.5759995 C90.5119983,39.0799995 90.1879983,39.8719995 90.1879983,40.9519994 C90.1879983,42.2359994 90.6199983,43.1359994 91.4839983,43.6519994 L91.4839983,43.6519994 L91.3219983,43.9219994 C90.9979983,44.4619994 90.8359983,44.8519993 90.8359983,45.0919993 C90.8359983,45.7039993 91.0339983,46.1419993 91.4299983,46.4059993 C90.9499983,46.7779993 90.6019983,47.1229993 90.3859983,47.4409993 C90.1699983,47.7589993 90.0619983,48.1399993 90.0619983,48.5839992 C90.0619983,49.5679992 90.3919983,50.2459992 91.0519983,50.6179992 C91.7119983,50.9899992 92.7259982,51.1759992 94.0939982,51.1759992 Z M93.8059982,42.5539994 C93.2179982,42.5539994 92.7919982,42.4249994 92.5279982,42.1669994 C92.2639982,41.9089994 92.1319982,41.5039994 92.1319982,40.9519994 C92.1319982,39.8839995 92.6839982,39.3499995 93.7879982,39.3499995 C94.3759982,39.3499995 94.8019982,39.4789995 95.0659982,39.7369995 C95.3299982,39.9949995 95.4619982,40.3999995 95.4619982,40.9519994 C95.4619982,41.5039994 95.3329982,41.9089994 95.0749982,42.1669994 C94.8169982,42.4249994 94.3939982,42.5539994 93.8059982,42.5539994 Z M94.2199982,49.5739992 C93.4039982,49.5739992 92.8279982,49.4839992 92.4919982,49.3039992 C92.1559982,49.1239992 91.9879983,48.8239992 91.9879983,48.4039992 C91.9879983,48.1399993 92.0419983,47.9149993 92.1499982,47.7289993 C92.2579982,47.5429993 92.4439982,47.3419993 92.7079982,47.1259993 L92.7079982,47.1259993 L94.4719982,47.2339993 C95.2399982,47.2459993 95.7529982,47.3149993 96.0109981,47.4409993 C96.2689981,47.5669993 96.3979981,47.8639993 96.3979981,48.3319992 C96.3979981,49.1599992 95.6719982,49.5739992 94.2199982,49.5739992 Z M108.223998,46.9999995 L109.627998,40.8259994 L111.031998,46.9999995 L114.145998,46.9999995 L116.053998,37.9999995 L114.109998,37.9999995 L112.705998,45.3259993 L112.345998,45.3259993 L110.635998,38.1799995 L108.619998,38.1799995 L106.909998,45.3259993 L106.549998,45.3259993 L105.127998,37.9999995 L103.201998,37.9999995 L105.109998,46.9999995 L108.223998,46.9999995 Z M119.689998,36.4699996 L119.689998,34.3999996 L117.727998,34.3999996 L117.727998,36.4699996 L119.689998,36.4699996 Z M119.689998,46.9999995 L119.689998,37.9999995 L117.727998,37.9999995 L117.727998,46.9999995 L119.689998,46.9999995 Z M124.135997,46.9999993 L124.135997,34.2559996 L122.173997,34.2559996 L122.173997,46.9999993 L124.135997,46.9999993 Z M128.689997,46.9999993 L128.689997,34.2559996 L126.727997,34.2559996 L126.727997,46.9999993 L128.689997,46.9999993 Z M138.211997,47.1979993 C138.631997,47.1979993 139.243997,47.1199993 140.047997,46.9639993 L140.047997,46.9639993 L139.957997,45.3979993 L138.481997,45.4519993 C138.037997,45.4519993 137.761997,45.3319993 137.653997,45.0919993 C137.545997,44.8519993 137.491997,44.3659994 137.491997,43.6339994 L137.491997,43.6339994 L137.491997,39.6739995 L139.975997,39.6739995 L139.975997,37.9999995 L137.491997,37.9999995 L137.491997,35.3899996 L135.547997,35.3899996 L135.547997,37.9999995 L134.395997,37.9999995 L134.395997,39.6739995 L135.547997,39.6739995 L135.547997,43.8499994 C135.547997,45.1459993 135.736997,46.0279993 136.114997,46.4959993 C136.492997,46.9639993 137.191997,47.1979993 138.211997,47.1979993 Z M143.539997,46.9999993 L143.539997,39.9439995 L143.827997,39.8359995 C144.403997,39.6439995 144.979997,39.5479995 145.555997,39.5479995 C146.215997,39.5479995 146.647997,39.7519995 146.851997,40.1599995 C147.055997,40.5679995 147.157997,41.2579994 147.157997,42.2299994 L147.157997,42.2299994 L147.157997,46.9999993 L149.119997,46.9999993 L149.119997,42.1759994 C149.119997,40.6159995 148.900997,39.4969995 148.462997,38.8189995 C148.024997,38.1409995 147.205997,37.8019995 146.005997,37.8019995 C145.249997,37.8019995 144.427997,38.0239995 143.539997,38.4679995 L143.539997,38.4679995 L143.539997,34.2559996 L141.577997,34.2559996 L141.577997,46.9999993 L143.539997,46.9999993 Z M154.717997,47.1979993 C155.773997,47.1979993 156.985997,47.0599993 158.353996,46.7839993 L158.353996,46.7839993 L158.317996,45.3259993 L157.813997,45.3799993 C156.913997,45.4519993 156.037997,45.4879993 155.185997,45.4879993 C154.333997,45.4879993 153.751997,45.3139993 153.439997,44.9659993 C153.127997,44.6179993 152.965997,44.0719994 152.953997,43.3279994 L152.953997,43.3279994 L158.533996,43.3279994 L158.659996,41.9239994 C158.659996,39.1759995 157.399997,37.8019995 154.879997,37.8019995 C152.275997,37.8019995 150.973997,39.3979995 150.973997,42.5899994 C150.973997,44.1979994 151.264997,45.3679993 151.846997,46.0999993 C152.428997,46.8319993 153.385997,47.1979993 154.717997,47.1979993 Z M156.733997,41.8159994 L152.935997,41.8159994 C152.947997,40.9639994 153.106997,40.3519995 153.412997,39.9799995 C153.718997,39.6079995 154.207997,39.4219995 154.879997,39.4219995 C155.551997,39.4219995 156.028997,39.5989995 156.310997,39.9529995 C156.592997,40.3069995 156.733997,40.9279994 156.733997,41.8159994 L156.733997,41.8159994 Z M169.207996,38.7919995 L170.017996,34.5619996 L168.523996,34.5619996 L167.155996,38.7919995 L169.207996,38.7919995 Z M166.129996,38.7919995 L166.939996,34.5619996 L165.445996,34.5619996 L164.077996,38.7919995 L166.129996,38.7919995 Z M173.905996,46.9999993 L173.905996,39.9439995 L174.193996,39.8359995 C174.769996,39.6439995 175.345996,39.5479995 175.921996,39.5479995 C176.581996,39.5479995 177.013996,39.7519995 177.217996,40.1599995 C177.421996,40.5679995 177.523996,41.2579994 177.523996,42.2299994 L177.523996,42.2299994 L177.523996,46.9999993 L179.485996,46.9999993 L179.485996,42.1759994 C179.485996,40.6159995 179.266996,39.4969995 178.828996,38.8189995 C178.390996,38.1409995 177.571996,37.8019995 176.371996,37.8019995 C175.615996,37.8019995 174.793996,38.0239995 173.905996,38.4679995 L173.905996,38.4679995 L173.905996,34.2559996 L171.943996,34.2559996 L171.943996,46.9999993 L173.905996,46.9999993 Z M183.733996,36.4699996 L183.733996,34.3999996 L181.771996,34.3999996 L181.771996,36.4699996 L183.733996,36.4699996 Z M183.733996,46.9999995 L183.733996,37.9999995 L181.771996,37.9999995 L181.771996,46.9999995 L183.733996,46.9999995 Z M189.709996,51.1759992 C192.553996,51.1759992 193.975996,50.1919992 193.975996,48.2239993 C193.975996,47.1919993 193.711996,46.4899993 193.183996,46.1179993 C192.655996,45.7459993 191.677996,45.5539993 190.249996,45.5419993 C189.397996,45.5299993 188.860996,45.4819993 188.638996,45.3979993 C188.416996,45.3139993 188.305996,45.1609993 188.305996,44.9389993 C188.305996,44.7169993 188.389996,44.4019994 188.557996,43.9939994 C188.773996,44.0419994 189.037996,44.0659994 189.349996,44.0659994 C190.609996,44.0659994 191.536996,43.8409994 192.130996,43.3909994 C192.724996,42.9409994 193.021996,42.1279994 193.021996,40.9519994 C193.021996,40.3879995 192.859996,39.8959995 192.535996,39.4759995 L192.535996,39.4759995 L194.029996,39.5659995 L194.029996,37.9819995 L191.239996,38.0539995 L190.969996,37.9999995 C190.453996,37.8799995 189.931996,37.8199995 189.403996,37.8199995 C188.299996,37.8199995 187.423996,38.0719995 186.775996,38.5759995 C186.127996,39.0799995 185.803996,39.8719995 185.803996,40.9519994 C185.803996,42.2359994 186.235996,43.1359994 187.099996,43.6519994 L187.099996,43.6519994 L186.937996,43.9219994 C186.613996,44.4619994 186.451996,44.8519993 186.451996,45.0919993 C186.451996,45.7039993 186.649996,46.1419993 187.045996,46.4059993 C186.565996,46.7779993 186.217996,47.1229993 186.001996,47.4409993 C185.785996,47.7589993 185.677996,48.1399993 185.677996,48.5839992 C185.677996,49.5679992 186.007996,50.2459992 186.667996,50.6179992 C187.327996,50.9899992 188.341996,51.1759992 189.709996,51.1759992 Z M189.421996,42.5539994 C188.833996,42.5539994 188.407996,42.4249994 188.143996,42.1669994 C187.879996,41.9089994 187.747996,41.5039994 187.747996,40.9519994 C187.747996,39.8839995 188.299996,39.3499995 189.403996,39.3499995 C189.991996,39.3499995 190.417996,39.4789995 190.681996,39.7369995 C190.945996,39.9949995 191.077996,40.3999995 191.077996,40.9519994 C191.077996,41.5039994 190.948996,41.9089994 190.690996,42.1669994 C190.432996,42.4249994 190.009996,42.5539994 189.421996,42.5539994 Z M189.835996,49.5739992 C189.019996,49.5739992 188.443996,49.4839992 188.107996,49.3039992 C187.771996,49.1239992 187.603996,48.8239992 187.603996,48.4039992 C187.603996,48.1399993 187.657996,47.9149993 187.765996,47.7289993 C187.873996,47.5429993 188.059996,47.3419993 188.323996,47.1259993 L188.323996,47.1259993 L190.087996,47.2339993 C190.855996,47.2459993 191.368996,47.3149993 191.626996,47.4409993 C191.884996,47.5669993 192.013996,47.8639993 192.013996,48.3319992 C192.013996,49.1599992 191.287996,49.5739992 189.835996,49.5739992 Z M197.521995,46.9999993 L197.521995,39.9439995 L197.809995,39.8359995 C198.385995,39.6439995 198.961995,39.5479995 199.537995,39.5479995 C200.197995,39.5479995 200.629995,39.7519995 200.833995,40.1599995 C201.037995,40.5679995 201.139995,41.2579994 201.139995,42.2299994 L201.139995,42.2299994 L201.139995,46.9999993 L203.101995,46.9999993 L203.101995,42.1759994 C203.101995,40.6159995 202.882995,39.4969995 202.444995,38.8189995 C202.006995,38.1409995 201.187995,37.8019995 199.987995,37.8019995 C199.231995,37.8019995 198.409995,38.0239995 197.521995,38.4679995 L197.521995,38.4679995 L197.521995,34.2559996 L195.559996,34.2559996 L195.559996,46.9999993 L197.521995,46.9999993 Z M206.467995,38.7559995 L207.835995,34.5259996 L205.783995,34.5259996 L204.973995,38.7559995 L206.467995,38.7559995 Z M209.581995,38.7559995 L210.949995,34.5259996 L208.897995,34.5259996 L208.087995,38.7559995 L209.581995,38.7559995 Z M218.761995,46.9999993 L218.761995,34.2559996 L216.799995,34.2559996 L216.799995,46.9999993 L218.761995,46.9999993 Z M228.643995,47.1979993 L228.697995,45.7039993 C228.433995,45.6679993 228.238995,45.5869993 228.112995,45.4609993 C227.986995,45.3349993 227.917995,45.1399993 227.905995,44.8759993 L227.905995,44.8759993 L227.905995,40.7719994 C227.905995,39.7399995 227.662995,38.9869995 227.176995,38.5129995 C226.690995,38.0389995 225.898995,37.8019995 224.800995,37.8019995 C223.702995,37.8019995 222.499995,37.9579995 221.191995,38.2699995 L221.191995,38.2699995 L221.263995,39.6559995 L221.839995,39.6199995 C222.991995,39.5239995 223.951995,39.4759995 224.719995,39.4759995 C225.127995,39.4759995 225.436995,39.5719995 225.646995,39.7639995 C225.856995,39.9559995 225.961995,40.2919995 225.961995,40.7719994 L225.961995,40.7719994 L225.961995,41.4199994 L223.639995,41.6179994 C222.631995,41.7019994 221.884995,41.9479994 221.398995,42.3559994 C220.912995,42.7639994 220.669995,43.4239994 220.669995,44.3359994 C220.669995,46.2439993 221.563995,47.1979993 223.351995,47.1979993 C224.323995,47.1979993 225.289995,46.9759993 226.249995,46.5319993 C226.813995,46.9759993 227.611995,47.1979993 228.643995,47.1979993 L228.643995,47.1979993 Z M223.729995,45.5959993 C222.997995,45.5959993 222.631995,45.1819993 222.631995,44.3539994 C222.631995,43.5259994 223.045995,43.0759994 223.873995,43.0039994 L223.873995,43.0039994 L225.961995,42.8059994 L225.961995,45.1999993 L225.637995,45.3079993 C224.965995,45.4999993 224.329995,45.5959993 223.729995,45.5959993 Z M233.359995,47.1979993 C234.523994,47.1979993 235.408994,46.9759993 236.014994,46.5319993 C236.620994,46.0879993 236.923994,45.3919993 236.923994,44.4439994 C236.923994,43.4959994 236.713994,42.8359994 236.293994,42.4639994 C235.873994,42.0919994 235.162994,41.8189994 234.160994,41.6449994 C233.158995,41.4709994 232.522995,41.3179994 232.252995,41.1859994 C231.982995,41.0539994 231.847995,40.8259994 231.847995,40.5019995 C231.847995,40.1779995 231.970995,39.9409995 232.216995,39.7909995 C232.462995,39.6409995 232.903995,39.5659995 233.539995,39.5659995 C234.175994,39.5659995 235.201994,39.6619995 236.617994,39.8539995 L236.617994,39.8539995 L236.653994,38.2159995 L236.095994,38.1079995 C234.979994,37.9159995 234.037994,37.8199995 233.269995,37.8199995 C232.285995,37.8199995 231.478995,38.0479995 230.848995,38.5039995 C230.218995,38.9599995 229.903995,39.6499995 229.903995,40.5739995 C229.903995,41.4979994 230.131995,42.1339994 230.587995,42.4819994 C231.043995,42.8299994 231.760995,43.0849994 232.738995,43.2469994 C233.716994,43.4089994 234.334994,43.5589994 234.592994,43.6969994 C234.850994,43.8349994 234.979994,44.0839994 234.979994,44.4439994 C234.979994,44.8039993 234.844994,45.0619993 234.574994,45.2179993 C234.304994,45.3739993 233.851994,45.4519993 233.215995,45.4519993 C232.579995,45.4519993 231.541995,45.3559993 230.101995,45.1639993 L230.101995,45.1639993 L230.029995,46.8019993 L230.587995,46.8919993 C231.703995,47.0959993 232.627995,47.1979993 233.359995,47.1979993 Z M241.891994,47.1979993 C242.311994,47.1979993 242.923994,47.1199993 243.727994,46.9639993 L243.727994,46.9639993 L243.637994,45.3979993 L242.161994,45.4519993 C241.717994,45.4519993 241.441994,45.3319993 241.333994,45.0919993 C241.225994,44.8519993 241.171994,44.3659994 241.171994,43.6339994 L241.171994,43.6339994 L241.171994,39.6739995 L243.655994,39.6739995 L243.655994,37.9999995 L241.171994,37.9999995 L241.171994,35.3899996 L239.227994,35.3899996 L239.227994,37.9999995 L238.075994,37.9999995 L238.075994,39.6739995 L239.227994,39.6739995 L239.227994,43.8499994 C239.227994,45.1459993 239.416994,46.0279993 239.794994,46.4959993 C240.172994,46.9639993 240.871994,47.1979993 241.891994,47.1979993 Z M252.313994,43.2199994 L252.313994,42.6259994 C252.313994,42.3019994 252.412994,41.9989994 252.610994,41.7169994 C252.808994,41.4349994 253.213994,41.0539994 253.825994,40.5739995 C254.437994,40.0939995 254.842994,39.6439995 255.040994,39.2239995 C255.238994,38.8039995 255.337994,38.1919995 255.337994,37.3879995 C255.337994,36.3679996 255.040994,35.6269996 254.446994,35.1649996 C253.852994,34.7029996 252.925994,34.4719996 251.665994,34.4719996 C250.753994,34.4719996 249.739994,34.6699996 248.623994,35.0659996 L248.623994,35.0659996 L248.731994,36.5599996 L249.145994,36.4699996 C249.937994,36.3019996 250.693994,36.2179996 251.413994,36.2179996 C252.685994,36.2179996 253.321994,36.6559996 253.321994,37.5319995 C253.321994,37.9759995 253.225994,38.3329995 253.033994,38.6029995 C252.841994,38.8729995 252.451994,39.2509995 251.863994,39.7369995 L251.674661,39.895555 C251.18755,40.3091846 250.842661,40.6493328 250.639994,40.9159994 C250.411994,41.2159994 250.297994,41.5159994 250.297994,41.8159994 C250.297994,42.3799994 250.441994,42.8479994 250.729994,43.2199994 L250.729994,43.2199994 L252.313994,43.2199994 Z M252.511994,46.9999993 L252.511994,44.4799994 L250.423994,44.4799994 L250.423994,46.9999993 L252.511994,46.9999993 Z" id="Howlongwillthe“high”last?" fill="#1E334C" fill-rule="nonzero"></path>
                            </g>
                        </g>
                    </g>
                </g>
            </g>
        </g>
    </g>
</svg>