<?xml version="1.0" encoding="UTF-8"?>
<svg width="278px" height="155px" viewBox="0 0 278 155" version="1.1" xmlns="http://www.w3.org/2000/svg" xmlns:xlink="http://www.w3.org/1999/xlink">
    <title>Group 3 Copy</title>
    <defs>
        <rect id="path-1" x="0" y="0" width="206" height="81" rx="13.4999996"></rect>
        <filter x="-30.6%" y="-55.6%" width="161.2%" height="255.6%" filterUnits="objectBoundingBox" id="filter-2">
            <feOffset dx="0" dy="18" in="SourceAlpha" result="shadowOffsetOuter1"></feOffset>
            <feGaussianBlur stdDeviation="18" in="shadowOffsetOuter1" result="shadowBlurOuter1"></feGaussianBlur>
            <feColorMatrix values="0 0 0 0 0   0 0 0 0 0   0 0 0 0 0  0 0 0 0.101398601 0" type="matrix" in="shadowBlurOuter1"></feColorMatrix>
        </filter>
    </defs>
    <g id="Page-1" stroke="none" stroke-width="1" fill="none" fill-rule="evenodd">
        <g id="Home-Page" transform="translate(-1216.000000, -1409.000000)">
            <g id="Group-41" transform="translate(275.000000, 980.000000)">
                <g id="Group-39" transform="translate(0.000000, 273.000000)">
                    <g id="Group-4" transform="translate(422.000000, 0.000000)">
                        <g id="Group-32" transform="translate(411.000000, 40.499999)">
                            <g id="Group-3-Copy" transform="translate(144.000000, 134.500001)">
                                <g id="Rectangle">
                                    <use fill="black" fill-opacity="1" filter="url(#filter-2)" xlink:href="#path-1"></use>
                                    <use fill="#EECB6B" fill-rule="evenodd" xlink:href="#path-1"></use>
                                </g>
                                <path d="M20.4199999,46.9999993 L20.4199999,41.6719994 L25.7479998,41.6719994 L25.7479998,46.9999993 L27.7639997,46.9999993 L27.7639997,34.6699996 L25.7479998,34.6699996 L25.7479998,39.9259995 L20.4199999,39.9259995 L20.4199999,34.6699996 L18.422,34.6699996 L18.422,46.9999993 L20.4199999,46.9999993 Z M33.8299996,47.1979993 C35.3059995,47.1979993 36.3439995,46.8019995 36.9439995,46.0099993 C37.5439995,45.2179993 37.8439994,44.0419994 37.8439994,42.4819994 C37.8439994,40.9219994 37.5349995,39.7519995 36.9169995,38.9719995 C36.2989995,38.1919995 35.2699995,37.8019995 33.8299996,37.8019995 C32.3899996,37.8019995 31.3579996,38.1919995 30.7339996,38.9719995 C30.1219997,39.7519995 29.8159997,40.9219994 29.8159997,42.4819994 C29.8159997,44.0419994 30.1159997,45.2179993 30.7159996,46.0099993 C31.3159997,46.8019995 32.3539996,47.1979993 33.8299996,47.1979993 Z M33.8299996,45.5419993 C33.0259996,45.5419993 32.4859996,45.3019993 32.2099996,44.8219993 C31.9339996,44.3419994 31.7959996,43.5559994 31.7959996,42.4639994 C31.7959996,41.3719994 31.9429996,40.5979995 32.2369996,40.1419995 C32.5309996,39.6859995 33.0619996,39.4579995 33.8299996,39.4579995 C34.5979995,39.4579995 35.1289995,39.6859995 35.4229995,40.1419995 C35.7169995,40.5979995 35.8639995,41.3719994 35.8639995,42.4639994 C35.8639995,43.5559994 35.7259995,44.3419994 35.4499995,44.8219993 C35.1739995,45.3019993 34.6339995,45.5419993 33.8299996,45.5419993 Z M44.1079993,46.9999995 L45.5119992,40.8259994 L46.9159992,46.9999995 L50.0299991,46.9999995 L51.9379991,37.9999995 L49.9939991,37.9999995 L48.5899992,45.3259993 L48.2299992,45.3259993 L46.5199992,38.1799995 L44.5039993,38.1799995 L42.7939993,45.3259993 L42.4339993,45.3259993 L41.0119994,37.9999995 L39.0859994,37.9999995 L40.9939994,46.9999995 L44.1079993,46.9999995 Z M62.2699988,38.7919995 L63.0799988,34.5619996 L61.5859988,34.5619996 L60.2179989,38.7919995 L62.2699988,38.7919995 Z M59.1919989,38.7919995 L60.0019989,34.5619996 L58.5079989,34.5619996 L57.1399989,38.7919995 L59.1919989,38.7919995 Z M66.9679987,46.9999993 L66.9679987,39.9439995 L67.2559987,39.8359995 C67.8319987,39.6439995 68.4079986,39.5479995 68.9839986,39.5479995 C69.6439986,39.5479995 70.0759986,39.7519995 70.2799986,40.1599995 C70.4839986,40.5679995 70.5859986,41.2579994 70.5859986,42.2299994 L70.5859986,42.2299994 L70.5859986,46.9999993 L72.5479985,46.9999993 L72.5479985,42.1759994 C72.5479985,40.6159995 72.3289985,39.4969995 71.8909985,38.8189995 C71.4529986,38.1409995 70.6339986,37.8019995 69.4339986,37.8019995 C68.6779986,37.8019995 67.8559987,38.0239995 66.9679987,38.4679995 L66.9679987,38.4679995 L66.9679987,34.2559996 L65.0059987,34.2559996 L65.0059987,46.9999993 L66.9679987,46.9999993 Z M76.7959984,36.4699996 L76.7959984,34.3999996 L74.8339985,34.3999996 L74.8339985,36.4699996 L76.7959984,36.4699996 Z M76.7959984,46.9999995 L76.7959984,37.9999995 L74.8339985,37.9999995 L74.8339985,46.9999995 L76.7959984,46.9999995 Z M82.7719983,51.1759992 C85.6159982,51.1759992 87.0379981,50.1919992 87.0379981,48.2239993 C87.0379981,47.1919993 86.7739982,46.4899993 86.2459982,46.1179993 C85.7179982,45.7459993 84.7399984,45.5539993 83.3119982,45.5419993 L83.0874445,45.537834 C82.3649652,45.5209745 81.9028165,45.474363 81.7009983,45.3979993 C81.4789983,45.3139993 81.3679983,45.1609993 81.3679983,44.9389993 C81.3679983,44.7169993 81.4519983,44.4019994 81.6199983,43.9939994 C81.8359983,44.0419994 82.0999983,44.0659994 82.4119983,44.0659994 C83.6719982,44.0659994 84.5989982,43.8409994 85.1929982,43.3909994 C85.7869982,42.9409994 86.0839982,42.1279994 86.0839982,40.9519994 C86.0839982,40.3879995 85.9219982,39.8959995 85.5979982,39.4759995 L85.5979982,39.4759995 L87.0919981,39.5659995 L87.0919981,37.9819995 L84.3019982,38.0539995 L84.0319982,37.9999995 C83.5159982,37.8799995 82.9939983,37.8199995 82.4659983,37.8199995 C81.3619983,37.8199995 80.4859983,38.0719995 79.8379983,38.5759995 C79.1899984,39.0799995 78.8659984,39.8719995 78.8659984,40.9519994 C78.8659984,42.2359994 79.2979983,43.1359994 80.1619983,43.6519994 L80.1619983,43.6519994 L79.9999983,43.9219994 C79.6759983,44.4619994 79.5139983,44.8519993 79.5139983,45.0919993 C79.5139983,45.7039993 79.7119983,46.1419993 80.1079983,46.4059993 C79.6279983,46.7779993 79.2799984,47.1229993 79.0639984,47.4409993 C78.8479984,47.7589993 78.7399984,48.1399993 78.7399984,48.5839992 C78.7399984,49.5679992 79.0699984,50.2459992 79.7299983,50.6179992 C80.3899983,50.9899992 81.4039983,51.1759992 82.7719983,51.1759992 Z M82.4839983,42.5539994 C81.8959983,42.5539994 81.4699983,42.4249994 81.2059983,42.1669994 C80.9419983,41.9089994 80.8099983,41.5039994 80.8099983,40.9519994 C80.8099983,39.8839995 81.3619983,39.3499995 82.4659983,39.3499995 C83.0539983,39.3499995 83.4799982,39.4789995 83.7439982,39.7369995 C84.0079982,39.9949995 84.1399982,40.3999995 84.1399982,40.9519994 C84.1399982,41.5039994 84.0109982,41.9089994 83.7529982,42.1669994 C83.4949982,42.4249994 83.0719982,42.5539994 82.4839983,42.5539994 Z M82.8979983,49.5739992 C82.0819983,49.5739992 81.5059983,49.4839992 81.1699983,49.3039992 C80.8339983,49.1239992 80.6659983,48.8239992 80.6659983,48.4039992 C80.6659983,48.1399993 80.7199983,47.9149993 80.8279983,47.7289993 C80.9359983,47.5429993 81.1219983,47.3419993 81.3859983,47.1259993 L81.3859983,47.1259993 L83.1499982,47.2339993 C83.9179982,47.2459993 84.4309982,47.3149993 84.6889982,47.4409993 C84.9469982,47.5669993 85.0759982,47.8639993 85.0759982,48.3319992 C85.0759982,49.1599992 84.3499982,49.5739992 82.8979983,49.5739992 Z M90.5839981,46.9999993 L90.5839981,39.9439995 L90.871998,39.8359995 C91.447998,39.6439995 92.023998,39.5479995 92.599998,39.5479995 C93.259998,39.5479995 93.691998,39.7519995 93.895998,40.1599995 C94.099998,40.5679995 94.201998,41.2579994 94.201998,42.2299994 L94.201998,42.2299994 L94.201998,46.9999993 L96.1639979,46.9999993 L96.1639979,42.1759994 C96.1639979,40.6159995 95.9449979,39.4969995 95.5069979,38.8189995 C95.0689979,38.1409995 94.249998,37.8019995 93.049998,37.8019995 C92.293998,37.8019995 91.471998,38.0239995 90.5839981,38.4679995 L90.5839981,38.4679995 L90.5839981,34.2559996 L88.6219981,34.2559996 L88.6219981,46.9999993 L90.5839981,46.9999993 Z M99.5299978,38.7559995 L100.897998,34.5259996 L98.8459978,34.5259996 L98.0359979,38.7559995 L99.5299978,38.7559995 Z M102.643998,38.7559995 L104.011998,34.5259996 L101.959998,34.5259996 L101.149998,38.7559995 L102.643998,38.7559995 Z M114.073997,46.9999995 L115.477997,40.8259994 L116.881997,46.9999995 L119.995997,46.9999995 L121.903997,37.9999995 L119.959997,37.9999995 L118.555997,45.3259993 L118.195997,45.3259993 L116.485997,38.1799995 L114.469997,38.1799995 L112.759997,45.3259993 L112.399997,45.3259993 L110.977998,37.9999995 L109.051998,37.9999995 L110.959998,46.9999995 L114.073997,46.9999995 Z M125.539997,36.4699996 L125.539997,34.3999996 L123.577997,34.3999996 L123.577997,36.4699996 L125.539997,36.4699996 Z M125.539997,46.9999995 L125.539997,37.9999995 L123.577997,37.9999995 L123.577997,46.9999995 L125.539997,46.9999995 Z M129.985997,46.9999993 L129.985997,34.2559996 L128.023997,34.2559996 L128.023997,46.9999993 L129.985997,46.9999993 Z M134.539997,46.9999993 L134.539997,34.2559996 L132.577997,34.2559996 L132.577997,46.9999993 L134.539997,46.9999993 Z M143.215997,46.9999993 L143.215997,34.6699996 L141.217997,34.6699996 L141.217997,46.9999993 L143.215997,46.9999993 Z M153.385996,51.1759992 C156.229996,51.1759992 157.651996,50.1919992 157.651996,48.2239993 C157.651996,47.1919993 157.387996,46.4899993 156.859996,46.1179993 C156.331996,45.7459993 155.353996,45.5539993 153.925996,45.5419993 L153.701443,45.537834 C152.978963,45.5209745 152.516815,45.474363 152.314996,45.3979993 C152.092996,45.3139993 151.981996,45.1609993 151.981996,44.9389993 C151.981996,44.7169993 152.065996,44.4019994 152.233996,43.9939994 C152.449996,44.0419994 152.713996,44.0659994 153.025996,44.0659994 C154.285996,44.0659994 155.212996,43.8409994 155.806996,43.3909994 C156.400996,42.9409994 156.697996,42.1279994 156.697996,40.9519994 C156.697996,40.3879995 156.535996,39.8959995 156.211996,39.4759995 L156.211996,39.4759995 L157.705996,39.5659995 L157.705996,37.9819995 L154.915996,38.0539995 L154.645996,37.9999995 C154.129996,37.8799995 153.607996,37.8199995 153.079996,37.8199995 C151.975996,37.8199995 151.099996,38.0719995 150.451996,38.5759995 C149.803996,39.0799995 149.479996,39.8719995 149.479996,40.9519994 C149.479996,42.2359994 149.911996,43.1359994 150.775996,43.6519994 L150.775996,43.6519994 L150.613996,43.9219994 C150.289996,44.4619994 150.127996,44.8519993 150.127996,45.0919993 C150.127996,45.7039993 150.325996,46.1419993 150.721996,46.4059993 C150.241996,46.7779993 149.893996,47.1229993 149.677996,47.4409993 C149.461996,47.7589993 149.353996,48.1399993 149.353996,48.5839992 C149.353996,49.5679992 149.683996,50.2459992 150.343996,50.6179992 C151.003996,50.9899992 152.017996,51.1759992 153.385996,51.1759992 Z M153.097996,42.5539994 C152.509996,42.5539994 152.083996,42.4249994 151.819996,42.1669994 C151.555996,41.9089994 151.423996,41.5039994 151.423996,40.9519994 C151.423996,39.8839995 151.975996,39.3499995 153.079996,39.3499995 C153.667996,39.3499995 154.093996,39.4789995 154.357996,39.7369995 C154.621996,39.9949995 154.753996,40.3999995 154.753996,40.9519994 C154.753996,41.5039994 154.624996,41.9089994 154.366996,42.1669994 C154.108996,42.4249994 153.685996,42.5539994 153.097996,42.5539994 Z M153.511996,49.5739992 C152.695996,49.5739992 152.119996,49.4839992 151.783996,49.3039992 C151.447996,49.1239992 151.279996,48.8239992 151.279996,48.4039992 C151.279996,48.1399993 151.333996,47.9149993 151.441996,47.7289993 C151.549996,47.5429993 151.735996,47.3419993 151.999996,47.1259993 L151.999996,47.1259993 L153.763996,47.2339993 C154.531996,47.2459993 155.044996,47.3149993 155.302996,47.4409993 C155.560996,47.5669993 155.689996,47.8639993 155.689996,48.3319992 C155.689996,49.1599992 154.963996,49.5739992 153.511996,49.5739992 Z M162.547996,47.1979993 C163.603996,47.1979993 164.815996,47.0599993 166.183996,46.7839993 L166.183996,46.7839993 L166.147996,45.3259993 L165.643996,45.3799993 C164.743996,45.4519993 163.867996,45.4879993 163.015996,45.4879993 C162.163996,45.4879993 161.581996,45.3139993 161.269996,44.9659993 C160.957996,44.6179993 160.795996,44.0719994 160.783996,43.3279994 L160.783996,43.3279994 L166.363996,43.3279994 L166.489996,41.9239994 C166.489996,39.1759995 165.229996,37.8019995 162.709996,37.8019995 C160.105996,37.8019995 158.803996,39.3979995 158.803996,42.5899994 C158.803996,44.1979994 159.094996,45.3679993 159.676996,46.0999993 C160.258996,46.8319993 161.215996,47.1979993 162.547996,47.1979993 Z M164.563996,41.8159994 L160.765996,41.8159994 C160.777996,40.9639994 160.936996,40.3519995 161.242996,39.9799995 C161.548996,39.6079995 162.037996,39.4219995 162.709996,39.4219995 C163.381996,39.4219995 163.858996,39.5989995 164.140996,39.9529995 C164.422996,40.3069995 164.563996,40.9279994 164.563996,41.8159994 L164.563996,41.8159994 Z M171.457996,47.1979993 C171.877996,47.1979993 172.489996,47.1199993 173.293996,46.9639993 L173.293996,46.9639993 L173.203996,45.3979993 L171.727996,45.4519993 C171.283996,45.4519993 171.007996,45.3319993 170.899996,45.0919993 C170.791996,44.8519993 170.737996,44.3659994 170.737996,43.6339994 L170.737996,43.6339994 L170.737996,39.6739995 L173.221996,39.6739995 L173.221996,37.9999995 L170.737996,37.9999995 L170.737996,35.3899996 L168.793996,35.3899996 L168.793996,37.9999995 L167.641996,37.9999995 L167.641996,39.6739995 L168.793996,39.6739995 L168.793996,43.8499994 C168.793996,45.1459993 168.982996,46.0279993 169.360996,46.4959993 C169.738996,46.9639993 170.437996,47.1979993 171.457996,47.1979993 Z M181.879996,43.2199994 L181.879996,42.6259994 C181.879996,42.3019994 181.978996,41.9989994 182.176996,41.7169994 C182.374996,41.4349994 182.779996,41.0539994 183.391996,40.5739995 C184.003996,40.0939995 184.408996,39.6439995 184.606996,39.2239995 C184.804996,38.8039995 184.903996,38.1919995 184.903996,37.3879995 C184.903996,36.3679996 184.606996,35.6269996 184.012996,35.1649996 C183.418996,34.7029996 182.491996,34.4719996 181.231996,34.4719996 C180.319996,34.4719996 179.305996,34.6699996 178.189996,35.0659996 L178.189996,35.0659996 L178.297996,36.5599996 L178.711996,36.4699996 C179.503996,36.3019996 180.259996,36.2179996 180.979996,36.2179996 C182.251996,36.2179996 182.887996,36.6559996 182.887996,37.5319995 C182.887996,37.9759995 182.791996,38.3329995 182.599996,38.6029995 C182.407996,38.8729995 182.017996,39.2509995 181.429996,39.7369995 C180.841996,40.2229995 180.433996,40.6159995 180.205996,40.9159994 C179.977996,41.2159994 179.863996,41.5159994 179.863996,41.8159994 C179.863996,42.3799994 180.007996,42.8479994 180.295996,43.2199994 L180.295996,43.2199994 L181.879996,43.2199994 Z M182.077996,46.9999993 L182.077996,44.4799994 L179.989996,44.4799994 L179.989996,46.9999993 L182.077996,46.9999993 Z" id="How“high”willIget?" fill="#1E334C" fill-rule="nonzero"></path>
                            </g>
                        </g>
                    </g>
                </g>
            </g>
        </g>
    </g>
</svg>