<?xml version="1.0" encoding="UTF-8"?>
<svg width="296px" height="72px" viewBox="0 0 296 72" version="1.1" xmlns="http://www.w3.org/2000/svg" xmlns:xlink="http://www.w3.org/1999/xlink">
    <title>Group 13</title>
    <defs>
        <path d="M122.9,49 L122.9,44.4 L110.95,44.4 L122.5,27.5 L122.5,24.45 L105,24.45 L105,29 L115.3,29 L103.7,45.9 L103.7,49 L122.9,49 Z M137.8,49.6 C139.366667,49.6 140.866667,49.35 142.3,48.85 C143.733333,48.35 145.033333,47.7166667 146.2,46.95 L146.2,46.95 L144.25,43.35 C143.35,43.9166667 142.441667,44.3583333 141.525,44.675 C140.608333,44.9916667 139.616667,45.15 138.55,45.15 C136.55,45.15 134.908333,44.5583333 133.625,43.375 C132.341667,42.1916667 131.566667,40.5 131.3,38.3 L131.3,38.3 L146.9,38.3 C146.966667,38 147.025,37.6 147.075,37.1 C147.125,36.6 147.15,36.0666667 147.15,35.5 C147.15,33.8 146.933333,32.2333333 146.5,30.8 C146.066667,29.3666667 145.425,28.1333333 144.575,27.1 C143.725,26.0666667 142.666667,25.2666667 141.4,24.7 C140.133333,24.1333333 138.666667,23.85 137,23.85 C135.566667,23.85 134.166667,24.15 132.8,24.75 C131.433333,25.35 130.225,26.2 129.175,27.3 C128.125,28.4 127.283333,29.75 126.65,31.35 C126.016667,32.95 125.7,34.75 125.7,36.75 C125.7,38.7833333 126.008333,40.5916667 126.625,42.175 C127.241667,43.7583333 128.1,45.1 129.2,46.2 C130.3,47.3 131.583333,48.1416667 133.05,48.725 C134.516667,49.3083333 136.1,49.6 137.8,49.6 Z M142.15,34.4 L131.25,34.4 C131.516667,32.4 132.2,30.8833333 133.3,29.85 C134.4,28.8166667 135.683333,28.3 137.15,28.3 C138.85,28.3 140.108333,28.8416667 140.925,29.925 C141.741667,31.0083333 142.15,32.5 142.15,34.4 L142.15,34.4 Z M158.4,49 L158.4,31.85 C159.433333,30.85 160.358333,30.0916667 161.175,29.575 C161.991667,29.0583333 162.933333,28.8 164,28.8 C165.366667,28.8 166.35,29.2166667 166.95,30.05 C167.55,30.8833333 167.85,32.3166667 167.85,34.35 L167.85,34.35 L167.85,49 L173.6,49 L173.6,33.6 C173.6,30.4666667 173,28.0583333 171.8,26.375 C170.6,24.6916667 168.683333,23.85 166.05,23.85 C164.35,23.85 162.858333,24.2333333 161.575,25 C160.291667,25.7666667 159.1,26.6833333 158,27.75 L158,27.75 L157.8,27.75 L157.4,24.45 L152.65,24.45 L152.65,49 L158.4,49 Z M189.3,49.6 C190.266667,49.6 191.175,49.5083333 192.025,49.325 C192.875,49.1416667 193.633333,48.9333333 194.3,48.7 L194.3,48.7 L193.3,44.45 C192.933333,44.6166667 192.525,44.75 192.075,44.85 C191.625,44.95 191.183333,45 190.75,45 C188.45,45 187.3,43.5666667 187.3,40.7 L187.3,40.7 L187.3,29 L193.55,29 L193.55,24.45 L187.3,24.45 L187.3,17.75 L182.5,17.75 L181.8,24.45 L178,24.7 L178,29 L181.5,29 L181.5,40.7 C181.5,42.0333333 181.641667,43.2416667 181.925,44.325 C182.208333,45.4083333 182.658333,46.3416667 183.275,47.125 C183.891667,47.9083333 184.691667,48.5166667 185.675,48.95 C186.658333,49.3833333 187.866667,49.6 189.3,49.6 Z M204.45,49 L204.45,34 C205.216667,32.1333333 206.133333,30.825 207.2,30.075 C208.266667,29.325 209.283333,28.95 210.25,28.95 C210.783333,28.95 211.233333,28.9833333 211.6,29.05 C211.966667,29.1166667 212.366667,29.2166667 212.8,29.35 L212.8,29.35 L213.8,24.35 C213.1,24.0166667 212.166667,23.85 211,23.85 C209.7,23.85 208.433333,24.275 207.2,25.125 C205.966667,25.975 204.916667,27.2 204.05,28.8 L204.05,28.8 L203.85,28.8 L203.45,24.45 L198.7,24.45 L198.7,49 L204.45,49 Z M227.35,49.6 C228.916667,49.6 230.416667,49.35 231.85,48.85 C233.283333,48.35 234.583333,47.7166667 235.75,46.95 L235.75,46.95 L233.8,43.35 C232.9,43.9166667 231.991667,44.3583333 231.075,44.675 C230.158333,44.9916667 229.166667,45.15 228.1,45.15 C226.1,45.15 224.458333,44.5583333 223.175,43.375 C221.891667,42.1916667 221.116667,40.5 220.85,38.3 L220.85,38.3 L236.45,38.3 C236.516667,38 236.575,37.6 236.625,37.1 C236.675,36.6 236.7,36.0666667 236.7,35.5 C236.7,33.8 236.483333,32.2333333 236.05,30.8 C235.616667,29.3666667 234.975,28.1333333 234.125,27.1 C233.275,26.0666667 232.216667,25.2666667 230.95,24.7 C229.683333,24.1333333 228.216667,23.85 226.55,23.85 C225.116667,23.85 223.716667,24.15 222.35,24.75 C220.983333,25.35 219.775,26.2 218.725,27.3 C217.675,28.4 216.833333,29.75 216.2,31.35 C215.566667,32.95 215.25,34.75 215.25,36.75 C215.25,38.7833333 215.558333,40.5916667 216.175,42.175 C216.791667,43.7583333 217.65,45.1 218.75,46.2 C219.85,47.3 221.133333,48.1416667 222.6,48.725 C224.066667,49.3083333 225.65,49.6 227.35,49.6 Z M231.7,34.4 L220.8,34.4 C221.066667,32.4 221.75,30.8833333 222.85,29.85 C223.95,28.8166667 225.233333,28.3 226.7,28.3 C228.4,28.3 229.658333,28.8416667 230.475,29.925 C231.291667,31.0083333 231.7,32.5 231.7,34.4 L231.7,34.4 Z M247.8,49.6 C249.066667,49.6 250.083333,49.4333333 250.85,49.1 L250.85,49.1 L250.1,44.8 C249.866667,44.8666667 249.691667,44.9 249.575,44.9 L249.575,44.9 L249.2,44.9 C248.9,44.9 248.616667,44.7583333 248.35,44.475 C248.083333,44.1916667 247.95,43.7 247.95,43 L247.95,43 L247.95,13.7 L242.2,13.7 L242.2,42.7 C242.2,44.8333333 242.616667,46.5166667 243.45,47.75 C244.283333,48.9833333 245.733333,49.6 247.8,49.6 Z M261.7,49.6 C263.166667,49.6 264.525,49.2833333 265.775,48.65 C267.025,48.0166667 268.2,47.2333333 269.3,46.3 L269.3,46.3 L269.5,46.3 L269.9,49 L274.65,49 L274.65,34.45 C274.65,31.0166667 273.891667,28.3916667 272.375,26.575 C270.858333,24.7583333 268.566667,23.85 265.5,23.85 C263.533333,23.85 261.7,24.1666667 260,24.8 C258.3,25.4333333 256.766667,26.1833333 255.4,27.05 L255.4,27.05 L257.5,30.9 C258.6,30.2333333 259.725,29.6666667 260.875,29.2 C262.025,28.7333333 263.2,28.5 264.4,28.5 C265.233333,28.5 265.933333,28.625 266.5,28.875 C267.066667,29.125 267.525,29.475 267.875,29.925 C268.225,30.375 268.475,30.8916667 268.625,31.475 C268.775,32.0583333 268.866667,32.6666667 268.9,33.3 C266.366667,33.5666667 264.191667,33.95 262.375,34.45 C260.558333,34.95 259.058333,35.5666667 257.875,36.3 C256.691667,37.0333333 255.825,37.9083333 255.275,38.925 C254.725,39.9416667 254.45,41.1 254.45,42.4 C254.45,44.5666667 255.116667,46.3083333 256.45,47.625 C257.783333,48.9416667 259.533333,49.6 261.7,49.6 Z M263.55,45.1 C262.516667,45.1 261.666667,44.85 261,44.35 C260.333333,43.85 260,43.05 260,41.95 C260,41.35 260.15,40.7833333 260.45,40.25 C260.75,39.7166667 261.25,39.2416667 261.95,38.825 C262.65,38.4083333 263.566667,38.0333333 264.7,37.7 C265.833333,37.3666667 267.233333,37.1 268.9,36.9 L268.9,36.9 L268.9,42.4 C267.966667,43.2666667 267.091667,43.9333333 266.275,44.4 C265.458333,44.8666667 264.55,45.1 263.55,45.1 Z" id="path-1"></path>
    </defs>
    <g id="Page-1" stroke="none" stroke-width="1" fill="none" fill-rule="evenodd">
        <g id="About" transform="translate(-811.000000, -3217.000000)" fill="#FFFFFF" fill-rule="nonzero">
            <g id="Group-11" transform="translate(0.000000, 3169.000000)">
                <g id="Group-13" transform="translate(813.000000, 48.000000)">
                    <g id="zentrela">
                        <use xlink:href="#path-1"></use>
                        <use xlink:href="#path-1"></use>
                    </g>
                    <g id="Group">
                        <path d="M80.25,23.45 C80.25,23.45 80.25,23.4 80.25,23.4 C80.25,23.3 80.2,23.2 80.15,23.1 C80.15,23.05 80.1,23 80.1,22.95 C80.1,22.95 80.1,22.9 80.05,22.9 C80,22.8 79.95,22.75 79.85,22.65 C79.85,22.65 79.85,22.6 79.8,22.6 L68.15,9.05 C67.95,8.85 67.75,8.7 67.5,8.55 L52.05,1.15 C52.05,1.15 52,1.15 52,1.15 C51.95,1.1 51.85,1.1 51.8,1.1 C51.75,1.1 51.7,1.05 51.65,1.05 C51.6,1.05 51.5,1.05 51.45,1 C51.4,1 51.4,1 51.35,1 L37.75,0.4 C37.55,0.4 37.35,0.4 37.2,0.45 L18.6,5.2 C18.55,5.2 18.55,5.2 18.55,5.25 C18.4,5.3 18.3,5.35 18.2,5.4 C18.15,5.4 18.15,5.45 18.1,5.45 C18,5.5 17.85,5.6 17.75,5.7 C17.75,5.7 17.7,5.7 17.7,5.75 L2.95,20.8 C2.95,20.8 2.9,20.85 2.9,20.9 C2.85,20.95 2.8,21.05 2.75,21.1 C2.7,21.15 2.7,21.2 2.65,21.25 C2.6,21.3 2.6,21.35 2.55,21.4 C2.55,21.4 2.55,21.45 2.55,21.45 C2.55,21.5 2.5,21.55 2.5,21.6 C2.5,21.7 2.45,21.75 2.45,21.85 C2.45,21.9 2.45,21.95 2.45,22 C2.45,22.1 2.45,22.15 2.45,22.25 C2.45,22.3 2.45,22.3 2.45,22.35 L4,38.05 C4.05,38.8 4.55,39.4 5.25,39.7 L18.4,44.7 L26.25,57.3 C26.25,57.3 26.3,57.35 26.3,57.35 C26.3,57.4 26.35,57.4 26.35,57.45 C26.4,57.5 26.45,57.55 26.45,57.6 C26.5,57.65 26.55,57.7 26.6,57.75 C26.65,57.8 26.75,57.85 26.8,57.9 C26.85,57.95 26.9,57.95 26.95,58 C27.05,58.05 27.15,58.1 27.25,58.1 C27.3,58.1 27.35,58.15 27.4,58.15 C27.55,58.2 27.7,58.2 27.85,58.2 L41.9,58.2 L53.95,71.25 C54.35,71.65 54.85,71.9 55.4,71.9 C55.65,71.9 55.9,71.85 56.15,71.75 C56.9,71.45 57.4,70.7 57.35,69.9 L57.05,59.15 L59.1,54.05 L72.8,55.75 C73.55,55.85 74.3,55.5 74.7,54.85 L83.7,40.6 C83.95,40.15 84.05,39.65 83.95,39.15 L80.25,23.45 Z M65.5,11.9 L72.8007388,19.8175558 L61.4390838,18.7347422 L54.7550653,6.53832382 L65.5,11.9 Z M56.9629202,19.724206 L31.25,26.45 L50.3167129,6.49006875 L56.9629202,19.724206 Z M59.1017331,23.2178727 L44.65,39.55 L29.35,31.3 L59.1017331,23.2178727 Z M75.904404,23.7960271 L79.2871932,34.0623867 L64.3947076,22.6609115 L75.904404,23.7960271 Z M37.85,4.3 L46.85,4.7 L25.45,26.85 L21.35,8.5 L37.85,4.3 Z M17.9,11 L21.6,27.5 L7.65,21.45 L17.9,11 Z M7.65,36.45 L6.55,25.25 L21.85,31.85 L18.45,40.55 L7.65,36.45 Z M21.75,42.85 L25.35,33.55 L42.4,42.75 L28.3,53.4 L21.75,42.85 Z M44.1,54.9 C43.75,54.5 43.2,54.25 42.65,54.25 L33.55,54.25 L44.3,46.15 L45.15,48.25 L45.15,48.25 L49.95,61.15 L49.6,60.8 L44.1,54.9 Z M71.9,51.7 L57.95,49.95 C57.05,49.85 56.25,50.35 55.9,51.15 L53.15,58 C53.1,58.15 53.05,58.25 53.05,58.4 L49.1,47.75 L49.15,47.75 L47.85,44.5 L75.5,46 L71.9,51.7 Z M77.85,42.3 L49.2464679,41.0101606 L62.4514171,25.9257023 L79.8,39.2 L77.85,42.3 Z" id="Shape"></path>
                        <circle id="Oval" stroke="#FFFFFF" stroke-width="3" cx="5.5" cy="22.5" r="5.5"></circle>
                        <circle id="Oval" stroke="#FFFFFF" stroke-width="3" cx="81.5" cy="39.5" r="5.5"></circle>
                        <circle id="Oval" stroke="#FFFFFF" stroke-width="3" cx="59.5" cy="22.5" r="5.5"></circle>
                        <circle id="Oval" stroke="#FFFFFF" stroke-width="3" cx="46" cy="42" r="8"></circle>
                    </g>
                </g>
            </g>
        </g>
    </g>
</svg>