<svg xmlns="http://www.w3.org/2000/svg" width="295.5" height="74.6" viewBox="0 0 295.5 74.6">
  <g id="Group_13" data-name="Group 13" transform="translate(1.5 -0.4)">
    <text id="zentrela" transform="translate(102 4)" fill="#fff" font-size="50" font-family="SourceSansPro-Semibold, Source Sans Pro" font-weight="600"><tspan x="0" y="51">zentrela</tspan></text>
    <g id="Group">
      <path id="Shape" d="M51.5,70.85,39.45,57.8H25.4a1.4,1.4,0,0,1-.45-.049c-.049,0-.1-.05-.149-.05a.7.7,0,0,1-.3-.1c-.049-.05-.1-.05-.149-.1s-.15-.1-.2-.15L24,57.2c0-.05-.05-.1-.1-.15,0-.05-.05-.05-.05-.1l-.05-.05L15.95,44.3,2.8,39.3A1.958,1.958,0,0,1,1.55,37.65L0,21.95v-.5c0-.1.05-.149.05-.249,0-.05.049-.1.049-.15V21c.05-.049.05-.1.1-.149s.05-.1.1-.15.1-.15.15-.2a.172.172,0,0,1,.05-.1L15.25,5.35A.049.049,0,0,1,15.3,5.3a1.536,1.536,0,0,1,.35-.25c.049,0,.049-.049.1-.049a2.321,2.321,0,0,1,.35-.15c0-.05,0-.05.05-.05L34.75.05A1.861,1.861,0,0,1,35.3,0L48.9.6H49a.3.3,0,0,0,.2.049c.049,0,.1.05.149.05a.3.3,0,0,1,.2.049h.05l15.45,7.4a3.181,3.181,0,0,1,.65.5L77.35,22.2a.049.049,0,0,1,.05.049.87.87,0,0,1,.2.25.049.049,0,0,1,.05.05c0,.05.049.1.049.149a.7.7,0,0,1,.1.3v.049l3.7,15.7a2.108,2.108,0,0,1-.25,1.45l-9,14.25a1.936,1.936,0,0,1-1.9.9l-13.7-1.7L54.6,58.75l.3,10.75a1.9,1.9,0,0,1-1.2,1.85,2.01,2.01,0,0,1-.751.149A2.052,2.052,0,0,1,51.5,70.85Z" transform="translate(2.45 0.4)" fill="#fff"/>
      <circle id="Oval" cx="5.5" cy="5.5" r="5.5" transform="translate(0 17)" fill="#fff" stroke="#fff" stroke-miterlimit="10" stroke-width="3"/>
      <circle id="Oval-2" data-name="Oval" cx="5.5" cy="5.5" r="5.5" transform="translate(76 34)" fill="#fff" stroke="#fff" stroke-miterlimit="10" stroke-width="3"/>
      <circle id="Oval-3" data-name="Oval" cx="5.5" cy="5.5" r="5.5" transform="translate(54 17)" fill="#fff" stroke="#fff" stroke-miterlimit="10" stroke-width="3"/>
      <circle id="Oval-4" data-name="Oval" cx="8" cy="8" r="8" transform="translate(38 34)" fill="#fff" stroke="#fff" stroke-miterlimit="10" stroke-width="3"/>
    </g>
  </g>
</svg>
