<?xml version="1.0" encoding="UTF-8"?>
<svg width="214px" height="56px" viewBox="0 0 214 56" version="1.1" xmlns="http://www.w3.org/2000/svg" xmlns:xlink="http://www.w3.org/1999/xlink">
    <title>Group 4</title>
    <defs>
        <path d="M94.6329977,38.4299989 L94.6329977,34.887999 L85.4314979,34.887999 L94.3249977,21.8749993 L94.3249977,19.5264993 L80.849998,19.5264993 L80.849998,23.0299993 L88.7809978,23.0299993 L79.848998,36.0429989 L79.848998,38.4299989 L94.6329977,38.4299989 Z M106.105997,38.8919989 C107.312331,38.8919989 108.467331,38.6994989 109.570997,38.3144989 C110.674664,37.9294989 111.675664,37.4418322 112.573997,36.8514989 L112.573997,36.8514989 L111.072497,34.079499 C110.379497,34.5158323 109.680081,34.8559156 108.974247,35.099749 C108.268414,35.3435823 107.504831,35.4654989 106.683497,35.4654989 C105.143497,35.4654989 103.879414,35.0099156 102.891247,34.098749 C101.903081,33.1875823 101.306331,31.884999 101.100997,30.1909991 L101.100997,30.1909991 L113.112997,30.1909991 C113.164331,29.9599991 113.209247,29.6519991 113.247747,29.2669991 C113.286247,28.8819991 113.305497,28.4713325 113.305497,28.0349991 C113.305497,26.7259992 113.138664,25.5196659 112.804997,24.4159992 C112.471331,23.3123326 111.977247,22.3626659 111.322747,21.5669993 C110.668247,20.7713326 109.853331,20.1553327 108.877997,19.7189993 C107.902664,19.282666 106.773331,19.0644994 105.489997,19.0644994 C104.386331,19.0644994 103.308331,19.2954993 102.255997,19.7574993 C101.203664,20.2194993 100.273248,20.8739993 99.4647475,21.7209993 C98.6562476,22.5679993 98.0081642,23.6074992 97.5204976,24.8394992 C97.0328309,26.0714992 96.7889976,27.4574991 96.7889976,28.9974991 C96.7889976,30.5631657 97.0264143,31.9555824 97.5012476,33.174749 C97.9760809,34.3939156 98.6369976,35.4269989 99.4839975,36.2739989 C100.330998,37.1209989 101.319164,37.7690822 102.448497,38.2182489 C103.577831,38.6674155 104.796997,38.8919989 106.105997,38.8919989 Z M109.455497,27.1879992 L101.062497,27.1879992 C101.267831,25.6479992 101.793997,24.4801659 102.640997,23.6844992 C103.487997,22.8888326 104.476164,22.4909993 105.605497,22.4909993 C106.914497,22.4909993 107.883414,22.9080826 108.512247,23.7422492 C109.141081,24.5764159 109.455497,25.7249992 109.455497,27.1879992 L109.455497,27.1879992 Z M121.967997,38.4299989 L121.967997,25.2244992 C122.763664,24.4544992 123.475914,23.8705826 124.104747,23.4727492 C124.73358,23.0749159 125.458664,22.8759993 126.279997,22.8759993 C127.33233,22.8759993 128.089497,23.1968326 128.551497,23.8384992 C129.013497,24.4801659 129.244497,25.5838325 129.244497,27.1494992 L129.244497,27.1494992 L129.244497,38.4299989 L133.671997,38.4299989 L133.671997,26.5719992 C133.671997,24.1593326 133.209997,22.3049159 132.285997,21.0087493 C131.361997,19.7125827 129.886163,19.0644994 127.858497,19.0644994 C126.549497,19.0644994 125.400914,19.359666 124.412747,19.9499993 C123.42458,20.5403327 122.506997,21.246166 121.659997,22.0674993 L121.659997,22.0674993 L121.505997,22.0674993 L121.197997,19.5264993 L117.540497,19.5264993 L117.540497,38.4299989 L121.967997,38.4299989 Z M145.760996,38.8919989 C146.50533,38.8919989 147.204746,38.8214155 147.859246,38.6802489 C148.513746,38.5390822 149.097663,38.3786655 149.610996,38.1989989 L149.610996,38.1989989 L148.840996,34.926499 C148.558663,35.0548323 148.244246,35.157499 147.897746,35.234499 C147.551246,35.311499 147.211163,35.349999 146.877496,35.349999 C145.106496,35.349999 144.220996,34.2463323 144.220996,32.038999 L144.220996,32.038999 L144.220996,23.0299993 L149.033496,23.0299993 L149.033496,19.5264993 L144.220996,19.5264993 L144.220996,14.3674995 L140.524997,14.3674995 L139.985997,19.5264993 L137.059997,19.7189993 L137.059997,23.0299993 L139.754997,23.0299993 L139.754997,32.038999 C139.754997,33.0656657 139.86408,33.9960823 140.082247,34.830249 C140.300413,35.6644156 140.646913,36.3830823 141.121747,36.9862489 C141.59658,37.5894156 142.21258,38.0578322 142.969746,38.3914989 C143.726913,38.7251655 144.65733,38.8919989 145.760996,38.8919989 Z M157.426496,38.4299989 L157.426496,26.8799992 C158.016829,25.4426659 158.722663,24.4352492 159.543996,23.8577492 C160.365329,23.2802492 161.148163,22.9914993 161.892496,22.9914993 C162.303163,22.9914993 162.649663,23.0171659 162.931996,23.0684993 C163.214329,23.1198326 163.522329,23.1968326 163.855996,23.2994992 L163.855996,23.2994992 L164.625996,19.4494993 C164.086996,19.1928327 163.368329,19.0644994 162.469996,19.0644994 C161.468996,19.0644994 160.493663,19.3917493 159.543996,20.0462493 C158.594329,20.7007493 157.785829,21.6439993 157.118496,22.8759993 L157.118496,22.8759993 L156.964496,22.8759993 L156.656496,19.5264993 L152.998996,19.5264993 L152.998996,38.4299989 L157.426496,38.4299989 Z M175.059496,38.8919989 C176.265829,38.8919989 177.420829,38.6994989 178.524496,38.3144989 C179.628162,37.9294989 180.629162,37.4418322 181.527496,36.8514989 L181.527496,36.8514989 L180.025996,34.079499 C179.332996,34.5158323 178.633579,34.8559156 177.927746,35.099749 C177.221912,35.3435823 176.458329,35.4654989 175.636996,35.4654989 C174.096996,35.4654989 172.832912,35.0099156 171.844746,34.098749 C170.856579,33.1875823 170.259829,31.884999 170.054496,30.1909991 L170.054496,30.1909991 L182.066495,30.1909991 C182.117829,29.9599991 182.162745,29.6519991 182.201245,29.2669991 C182.239745,28.8819991 182.258995,28.4713325 182.258995,28.0349991 C182.258995,26.7259992 182.092162,25.5196659 181.758495,24.4159992 C181.424829,23.3123326 180.930746,22.3626659 180.276246,21.5669993 C179.621746,20.7713326 178.806829,20.1553327 177.831496,19.7189993 C176.856162,19.282666 175.726829,19.0644994 174.443496,19.0644994 C173.339829,19.0644994 172.261829,19.2954993 171.209496,19.7574993 C170.157162,20.2194993 169.226746,20.8739993 168.418246,21.7209993 C167.609746,22.5679993 166.961663,23.6074992 166.473996,24.8394992 C165.986329,26.0714992 165.742496,27.4574991 165.742496,28.9974991 C165.742496,30.5631657 165.979913,31.9555824 166.454746,33.174749 C166.929579,34.3939156 167.590496,35.4269989 168.437496,36.2739989 C169.284496,37.1209989 170.272662,37.7690822 171.401996,38.2182489 C172.531329,38.6674155 173.750496,38.8919989 175.059496,38.8919989 Z M178.408996,27.1879992 L170.015996,27.1879992 C170.221329,25.6479992 170.747496,24.4801659 171.594496,23.6844992 C172.441496,22.8888326 173.429662,22.4909993 174.558996,22.4909993 C175.867996,22.4909993 176.836912,22.9080826 177.465746,23.7422492 C178.094579,24.5764159 178.408996,25.7249992 178.408996,27.1879992 L178.408996,27.1879992 Z M190.805995,38.8919989 C191.781329,38.8919989 192.564162,38.7636655 193.154495,38.5069989 L193.154495,38.5069989 L192.576995,35.195999 C192.397329,35.2473323 192.262579,35.272999 192.172745,35.272999 L192.172745,35.272999 L191.883995,35.272999 C191.652995,35.272999 191.434829,35.1639156 191.229495,34.945749 C191.024162,34.7275823 190.921495,34.348999 190.921495,33.809999 L190.921495,33.809999 L190.921495,11.2489995 L186.493995,11.2489995 L186.493995,33.578999 C186.493995,35.2216656 186.814829,36.5178323 187.456495,37.4674989 C188.098162,38.4171655 189.214662,38.8919989 190.805995,38.8919989 Z M201.508995,38.8919989 C202.638328,38.8919989 203.684245,38.6481655 204.646745,38.1604989 C205.609245,37.6728322 206.513995,37.0696656 207.360995,36.3509989 L207.360995,36.3509989 L207.514995,36.3509989 L207.822995,38.4299989 L211.480495,38.4299989 L211.480495,27.2264992 C211.480495,24.5828326 210.896578,22.5615826 209.728745,21.1627493 C208.560912,19.763916 206.796328,19.0644994 204.434995,19.0644994 C202.920662,19.0644994 201.508995,19.3083327 200.199995,19.7959993 C198.890995,20.283666 197.710328,20.861166 196.657995,21.5284993 L196.657995,21.5284993 L198.274995,24.4929992 C199.121995,23.9796659 199.988245,23.5433326 200.873745,23.1839993 C201.759245,22.8246659 202.663995,22.6449993 203.587995,22.6449993 C204.229662,22.6449993 204.768662,22.7412493 205.204995,22.9337493 C205.641328,23.1262493 205.994245,23.3957492 206.263745,23.7422492 C206.533245,24.0887492 206.725745,24.4865826 206.841245,24.9357492 C206.956745,25.3849159 207.027328,25.8533325 207.052995,26.3409992 C205.102328,26.5463325 203.427578,26.8414992 202.028745,27.2264992 C200.629912,27.6114991 199.474912,28.0863325 198.563745,28.6509991 C197.652578,29.2156658 196.985245,29.8894158 196.561745,30.6722491 C196.138245,31.4550824 195.926495,32.346999 195.926495,33.347999 C195.926495,35.0163323 196.439828,36.3574156 197.466495,37.3712489 C198.493162,38.3850822 199.840662,38.8919989 201.508995,38.8919989 Z M202.933495,35.4269989 C202.137828,35.4269989 201.483328,35.234499 200.969995,34.849499 C200.456662,34.464499 200.199995,33.848499 200.199995,33.001499 C200.199995,32.539499 200.315495,32.1031657 200.546495,31.692499 C200.777495,31.2818324 201.162495,30.9160824 201.701495,30.5952491 C202.240495,30.2744157 202.946328,29.9856658 203.818995,29.7289991 C204.691662,29.4723324 205.769662,29.2669991 207.052995,29.1129991 L207.052995,29.1129991 L207.052995,33.347999 C206.334328,34.0153323 205.660578,34.5286656 205.031745,34.887999 C204.402912,35.2473323 203.703495,35.4269989 202.933495,35.4269989 Z" id="path-1"></path>
    </defs>
    <g id="Page-1" stroke="none" stroke-width="1" fill="none" fill-rule="evenodd">
        <g id="Version-2" transform="translate(-28.000000, -13.000000)" fill-rule="nonzero">
            <g id="Group-4" transform="translate(30.000000, 13.000000)">
                <g id="zentrela" fill="#1E334C">
                    <use xlink:href="#path-1"></use>
                    <use xlink:href="#path-1"></use>
                </g>
                <g id="Group">
                    <path d="M61.7924985,18.0564996 C61.7924985,18.0564996 61.7924985,18.0179996 61.7924985,18.0179996 C61.7924985,17.9409996 61.7539985,17.8639996 61.7154985,17.7869996 C61.7154985,17.7484996 61.6769985,17.7099996 61.6769985,17.6714996 C61.6769985,17.6714996 61.6769985,17.6329996 61.6384985,17.6329996 C61.5999985,17.5559996 61.5614985,17.5174996 61.4844985,17.4404996 C61.4844985,17.4404996 61.4844985,17.4019996 61.4459985,17.4019996 L52.4754987,6.96849983 C52.3214987,6.81449983 52.1674987,6.69899983 51.9749987,6.58349984 L40.078499,0.885499978 C40.078499,0.885499978 40.039999,0.885499978 40.039999,0.885499978 C40.001499,0.846999979 39.924499,0.846999979 39.885999,0.846999979 C39.847499,0.846999979 39.808999,0.80849998 39.770499,0.80849998 C39.731999,0.80849998 39.654999,0.80849998 39.616499,0.769999981 C39.577999,0.769999981 39.577999,0.769999981 39.539499,0.769999981 L29.0674993,0.307999992 C28.9134993,0.307999992 28.7594993,0.307999992 28.6439993,0.346499991 L14.3219996,4.0039999 C14.2834996,4.0039999 14.2834996,4.0039999 14.2834996,4.0424999 C14.1679996,4.0809999 14.0909997,4.1194999 14.0139997,4.1579999 C13.9754997,4.1579999 13.9754997,4.1964999 13.9369997,4.1964999 C13.8599997,4.2349999 13.7444997,4.31199989 13.6674997,4.38899989 C13.6674997,4.38899989 13.6289997,4.38899989 13.6289997,4.42749989 L2.27149994,16.0159996 C2.27149994,16.0159996 2.23299994,16.0544996 2.23299994,16.0929996 C2.19449995,16.1314996 2.15599995,16.2084996 2.11749995,16.2469996 C2.07899995,16.2854996 2.07899995,16.3239996 2.04049995,16.3624996 C2.00199995,16.4009996 2.00199995,16.4394996 1.96349995,16.4779996 C1.96349995,16.4779996 1.96349995,16.5164996 1.96349995,16.5164996 C1.96349995,16.5549996 1.92499995,16.5934996 1.92499995,16.6319996 C1.92499995,16.7089996 1.88649995,16.7474996 1.88649995,16.8244996 C1.88649995,16.8629996 1.88649995,16.9014996 1.88649995,16.9399996 C1.88649995,17.0169996 1.88649995,17.0554996 1.88649995,17.1324996 C1.88649995,17.1709996 1.88649995,17.1709996 1.88649995,17.2094996 L3.07999992,29.2984993 C3.11849992,29.8759993 3.50349991,30.3379992 4.0424999,30.5689992 L14.1679996,34.4189991 L20.2124995,44.1209989 C20.2124995,44.1209989 20.2509995,44.1594989 20.2509995,44.1594989 C20.2509995,44.1979989 20.2894995,44.1979989 20.2894995,44.2364989 C20.3279995,44.2749989 20.3664995,44.3134989 20.3664995,44.3519989 C20.4049995,44.3904989 20.4434995,44.4289989 20.4819995,44.4674989 C20.5204995,44.5059989 20.5974995,44.5444989 20.6359995,44.5829989 C20.6744995,44.6214989 20.7129995,44.6214989 20.7514995,44.6599989 C20.8284995,44.6984989 20.9054995,44.7369989 20.9824995,44.7369989 C21.0209995,44.7369989 21.0594995,44.7754989 21.0979995,44.7754989 C21.2134995,44.8139989 21.3289995,44.8139989 21.4444995,44.8139989 L32.2629992,44.8139989 L41.541499,54.8624986 C41.849499,55.1704986 42.234499,55.3629986 42.6579989,55.3629986 C42.8504989,55.3629986 43.0429989,55.3244986 43.2354989,55.2474986 C43.8129989,55.0164986 44.1979989,54.4389987 44.1594989,53.8229987 L43.9284989,45.5454989 L45.5069989,41.618499 L56.0559986,42.9274989 C56.6334986,43.0044989 57.2109986,42.7349989 57.5189986,42.234499 L64.4489984,31.2619992 C64.6414984,30.9154992 64.7184984,30.5304992 64.6414984,30.1454993 L61.7924985,18.0564996 Z M50.4349988,9.16299977 L56.0565675,15.2595176 L47.3080933,14.4257511 L42.1613993,5.03450922 L50.4349988,9.16299977 Z M43.8614474,15.1876382 L24.0624994,20.3664995 L38.743868,4.99735282 L43.8614474,15.1876382 Z M45.5083334,17.8777615 L34.3804991,30.4534992 L22.5994994,24.1009994 L45.5083334,17.8777615 Z M58.4463896,18.3229404 L61.0511373,26.2280371 L49.5839236,17.4489014 L58.4463896,18.3229404 Z M29.1444993,3.31099992 L36.0744991,3.61899991 L19.5964995,20.6744995 L16.4394996,6.54499984 L29.1444993,3.31099992 Z M13.7829997,8.46999979 L16.6319996,21.1749995 L5.89049985,16.5164996 L13.7829997,8.46999979 Z M5.89049985,28.0664993 L5.04349988,19.4424995 L16.8244996,24.5244994 L14.2064996,31.2234992 L5.89049985,28.0664993 Z M16.7474996,32.9944992 L19.5194995,25.8334994 L32.6479992,32.9174992 L21.7909995,41.117999 L16.7474996,32.9944992 Z M33.9569992,42.272999 C33.6874992,41.964999 33.2639992,41.772499 32.8404992,41.772499 L25.8334994,41.772499 L34.1109992,35.5354991 L34.7654991,37.1524991 L34.7654991,37.1524991 L38.461499,47.0854988 L38.1919991,46.8159988 L33.9569992,42.272999 Z M55.3629986,39.808999 L44.6214989,38.461499 C43.9284989,38.384499 43.3124989,38.769499 43.0429989,39.385499 L40.925499,44.6599989 C40.886999,44.7754989 40.848499,44.8524989 40.848499,44.9679989 L37.8069991,36.7674991 L37.8454991,36.7674991 L36.8444991,34.2649992 L58.1349986,35.4199991 L55.3629986,39.808999 Z M59.9444985,32.5709992 L37.9197793,31.5778229 L48.08759,19.9627903 L61.4459985,30.1839993 L59.9444985,32.5709992 Z" id="Shape" fill="#1E334C"></path>
                    <circle id="Oval" stroke="#1E334C" stroke-width="2.30999994" fill="#FFD45F" cx="4.2349999" cy="17.3249996" r="4.2349999"></circle>
                    <circle id="Oval" stroke="#1E334C" stroke-width="2.30999994" fill="#FFD45F" cx="62.7549984" cy="30.4149992" r="4.2349999"></circle>
                    <circle id="Oval" stroke="#1E334C" stroke-width="2.30999994" fill="#FFD45F" cx="45.8149989" cy="17.3249996" r="4.2349999"></circle>
                    <circle id="Oval" stroke="#1E334C" stroke-width="2.30999994" fill="#FFD45F" cx="35.4199991" cy="32.3399992" r="6.15999985"></circle>
                </g>
            </g>
        </g>
    </g>
</svg>